<?xml version="1.0" encoding="UTF-8" standalone="no"?>
<!DOCTYPE svg PUBLIC "-//W3C//DTD SVG 1.1//EN" "http://www.w3.org/Graphics/SVG/1.1/DTD/svg11.dtd">
<svg width="100%" height="100%" viewBox="0 0 15 15" version="1.1" xmlns="http://www.w3.org/2000/svg" xmlns:xlink="http://www.w3.org/1999/xlink" xml:space="preserve" xmlns:serif="http://www.serif.com/" style="fill-rule:evenodd;clip-rule:evenodd;stroke-linejoin:round;stroke-miterlimit:1.41421;">
    <g transform="matrix(1,0,0,1,-140,-205)">
        <g transform="matrix(1,0,0,1,140,205)">
            <g id="ObjectIcons_ArgumentGroup_nor">
                <g id="Icons">
                    <g transform="matrix(1,0,0,1,-40,-25)">
                        <g id="Base-Block" serif:id="Base Block">
                            <path d="M55,27.1C55,25.941 54.059,25 52.9,25L42.1,25C40.941,25 40,25.941 40,27.1L40,37.9C40,39.059 40.941,40 42.1,40L52.9,40C54.059,40 55,39.059 55,37.9L55,27.1Z" style="fill-opacity:0;"/>
                        </g>
                    </g>
                    <path d="M7,3L7.05,3C7.282,1.86 8.29,1.002 9.5,1L10.5,1C11.709,1.002 12.716,1.859 12.95,3L13,3L13,8L12.496,8C12.717,8.292 12.874,8.629 12.95,9L13,9L13,14L7,14L7,12L2,12L2,6L2.05,6C2.282,4.86 3.29,4.002 4.5,4L5.5,4C6.064,4.001 6.584,4.188 7,4.504L7,3ZM12,13L12,10C12.037,8.882 11.037,7.997 10,8L10,8L9.993,8L9.981,8L9.981,8.001C8.919,8.01 8.01,8.876 8,9.982L8,9.982L8,13L9,13L9,12L11,12L11,13L12,13ZM9.981,9C11.06,9.038 11.017,9.85 11.002,9.982L11,9.982L11,11L9,11L9,10C8.982,9.168 9.627,8.989 9.981,9L9.981,9ZM7.003,6.997C7.039,5.875 6.039,4.994 5,5.002L5,5C3.935,5 3.019,5.86 3.001,6.965L3,6.965L3,11L4,11L4,9L6,9L6,11L7,11L7,6.997L7.003,6.997ZM4.989,6C4.637,5.986 3.982,6.162 4,7L4,8L6,8L6,6.965L6.007,6.965C6.022,6.8 6.036,6.038 4.989,6.002L4.989,6ZM12,7L12,4C12.037,2.888 11.032,2.006 10,2.001L10,2L9.988,2L9.965,2L9.965,2.001C8.921,2.019 8.03,2.863 8.001,3.946L8,3.946L8,7L9,7L9,6L11,6L11,7L12,7ZM9.965,3C10.969,3.035 11.013,3.742 11.004,3.946L11,3.946L11,5L9,5L9,4C8.982,3.181 9.607,2.995 9.965,3L9.965,3Z" style="fill:rgb(196,196,196);"/>
                    <path d="M5,5.002C6.04,4.994 7.041,5.876 7.003,6.997L7,6.997L7,11L6,11L6,9L4,9L4,11L3,11L3,7L3,6.965L3.001,6.965C3.019,5.86 3.935,5 5,5L5,5.002ZM4.989,6C4.637,5.986 3.982,6.162 4,7L4,8L6,8L6,6.965L6.007,6.965C6.022,6.8 6.036,6.038 4.989,6.002L4.989,6Z"/>
                    <path d="M10,2.001C11.032,2.006 12.037,2.888 12,4L12,7L11,7L11,6L9,6L9,7L8,7L8,4L8,3.946L8.001,3.946C8.03,2.863 8.921,2.019 9.965,2.001L9.965,2L9.988,2L10,2L10,2.001ZM9.965,3C9.607,2.995 8.982,3.181 9,4L9,5L11,5L11,4L11,3.946L11.004,3.946C11.013,3.742 10.969,3.035 9.965,3L9.965,3Z"/>
                    <path d="M10,8C11.037,7.997 12.037,8.882 12,10L12,13L11,13L11,12L9,12L9,13L8,13L8,10L8,9.982L8,9.982C8.01,8.876 8.919,8.01 9.981,8.001L9.981,8L9.993,8L10,8L10,8ZM9.981,9C9.627,8.989 8.982,9.168 9,10L9,11L11,11L11,10L11,9.982L11.002,9.982C11.017,9.85 11.06,9.038 9.981,9L9.981,9Z"/>
                </g>
            </g>
        </g>
    </g>
</svg>
