<?xml version="1.0" encoding="UTF-8" standalone="no"?>
<!DOCTYPE svg PUBLIC "-//W3C//DTD SVG 1.1//EN" "http://www.w3.org/Graphics/SVG/1.1/DTD/svg11.dtd">
<svg width="100%" height="100%" viewBox="0 0 15 15" version="1.1" xmlns="http://www.w3.org/2000/svg" xmlns:xlink="http://www.w3.org/1999/xlink" xml:space="preserve" xmlns:serif="http://www.serif.com/" style="fill-rule:evenodd;clip-rule:evenodd;stroke-linejoin:round;stroke-miterlimit:1.41421;">
    <g transform="matrix(1,0,0,1,-300,-285)">
        <g id="ObjectIcons_Live_nor" transform="matrix(1,0,0,1,140,260)">
            <g transform="matrix(1,0,0,1,120,-1.13687e-13)">
                <g id="Object-Icon-Base" serif:id="Object Icon Base">
                    <path d="M55,27.1C55,25.941 54.059,25 52.9,25L42.1,25C40.941,25 40,25.941 40,27.1L40,37.9C40,39.059 40.941,40 42.1,40L52.9,40C54.059,40 55,39.059 55,37.9L55,27.1Z" style="fill-opacity:0;"/>
                </g>
            </g>
            <g transform="matrix(1.07143,0,0,1,-464.643,-281)">
                <path d="M597,309.363C597,308.611 596.43,308 595.728,308L584.272,308C583.57,308 583,308.611 583,309.363L583,317.637C583,318.389 583.57,319 584.272,319L595.728,319C596.43,319 597,318.389 597,317.637L597,309.363Z" style="fill:rgb(196,196,196);"/>
            </g>
            <g transform="matrix(0.928571,0,0,0.818182,-380.357,-224)">
                <path d="M597,309.363C597,308.611 596.462,308 595.799,308L584.201,308C583.538,308 583,308.611 583,309.363L583,317.637C583,318.389 583.538,319 584.201,319L595.799,319C596.462,319 597,318.389 597,317.637L597,309.363Z" style="fill:rgb(57,57,57);"/>
            </g>
            <g transform="matrix(1.06298,0,0,1.32148,-460.239,-382.587)">
                <path d="M587.255,316L585.373,316L585.373,312.216L586.314,312.216L586.314,315.243L587.255,315.243L587.255,316Z" style="fill:rgb(196,196,196);fill-rule:nonzero;"/>
            </g>
            <g transform="matrix(1.17337,0,0,1.32148,-524,-382.587)">
                <rect x="587.195" y="312.216" width="0.852" height="3.784" style="fill:rgb(196,196,196);fill-rule:nonzero;"/>
            </g>
            <g transform="matrix(1.06298,0,0,1.32148,-459.239,-382.587)">
                <path d="M591.91,312.216L591.959,314.224L590.985,316L590.019,316L589.136,314.224L589.136,312.216L590.055,312.216L590.077,314.224L590.531,315.003L591.018,314.224L591.018,312.216L591.91,312.216Z" style="fill:rgb(196,196,196);fill-rule:nonzero;"/>
            </g>
            <g transform="matrix(1.06298,0,0,1.32148,-458.239,-382.587)">
                <path d="M593.84,316L591.959,316L591.959,312.216L593.84,312.216L593.84,312.973L592.899,312.973L592.899,313.752L593.84,313.752L593.84,314.487L592.899,314.487L592.899,315.243L593.84,315.243L593.84,316Z" style="fill:rgb(196,196,196);fill-rule:nonzero;"/>
            </g>
        </g>
    </g>
</svg>
