<?xml version="1.0" encoding="UTF-8" standalone="no"?>
<!DOCTYPE svg PUBLIC "-//W3C//DTD SVG 1.1//EN" "http://www.w3.org/Graphics/SVG/1.1/DTD/svg11.dtd">
<svg width="100%" height="100%" viewBox="0 0 15 15" version="1.1" xmlns="http://www.w3.org/2000/svg" xmlns:xlink="http://www.w3.org/1999/xlink" xml:space="preserve" xmlns:serif="http://www.serif.com/" style="fill-rule:evenodd;clip-rule:evenodd;stroke-linejoin:round;stroke-miterlimit:1.41421;">
    <g transform="matrix(1,0,0,1,-240,-85)">
        <g transform="matrix(1,0,0,1,240,85)">
            <g id="ObjectIcons_ExternalSource_nor">
                <g id="Icons">
                    <g transform="matrix(1,0,0,1,-40,-25)">
                        <g id="Base-Block" serif:id="Base Block">
                            <path d="M55,27.1C55,25.941 54.059,25 52.9,25L42.1,25C40.941,25 40,25.941 40,27.1L40,37.9C40,39.059 40.941,40 42.1,40L52.9,40C54.059,40 55,39.059 55,37.9L55,27.1Z" style="fill-opacity:0;"/>
                        </g>
                    </g>
                    <path d="M12.65,14L4.35,14C3.605,14 3,13.395 3,12.65L3,12.35C3,12.274 3.006,12.199 3.02,12.126C3.007,12.059 3,11.99 3,11.92L3,9L1.32,9C0.591,9 0,8.409 0,7.68L0,7.32C0,6.592 0.59,6.001 1.32,6L3,6L3,3.08C3,3.01 3.007,2.941 3.02,2.874C3.006,2.801 3,2.726 3,2.65L3,2.35C3,1.606 3.604,1.001 4.35,1L12.65,1C13.396,1.001 14,1.606 14,2.35L14,2.65C14,2.771 13.984,2.889 13.952,3C13.984,3.111 14,3.229 14,3.35L14,11.65C14,11.771 13.984,11.889 13.952,12C13.984,12.111 14,12.229 14,12.35L14,12.65C14,13.391 13.402,13.993 12.65,14ZM13,13L13,2L4,2L4,6L5,6L5,3L12,3L12,12L5,12L5,9L4,9L4,13L13,13ZM7,7L7,4L11,7.5L7,11L7,8L1,8L1,7L7,7ZM8.613,11L11,11L11,8.954L8.613,11ZM11,4L8.771,4L11,5.911L11,4Z" style="fill:rgb(196,196,196);"/>
                    <path d="M13,13L4,13L4,9L5,9L5,12L12,12L12,3L5,3L5,6L4,6L4,2L13,2L13,13Z" style="fill:rgb(43,43,43);"/>
                    <clipPath id="_clip1">
                        <path d="M13,13L4,13L4,9L5,9L5,12L12,12L12,3L5,3L5,6L4,6L4,2L13,2L13,13Z"/>
                    </clipPath>
                    <g clip-path="url(#_clip1)">
                        <path d="M4,13L4,9L5,9L5,12L12,12L12,3L5,3L5,6L4,6L4,2L13,2L13,13L4,13Z" style="fill:rgb(57,57,57);"/>
                        <path d="M7,7L7,4L11,7.5L7,11L7,8L1,8L1,7L7,7Z" style="fill:rgb(57,57,57);"/>
                    </g>
                    <path d="M7,7L7,4L11,7.5L7,11L7,8L1,8L1,7L7,7Z"/>
                    <clipPath id="_clip2">
                        <path d="M7,7L7,4L11,7.5L7,11L7,8L1,8L1,7L7,7Z"/>
                    </clipPath>
                    <g clip-path="url(#_clip2)">
                        <path d="M4,13L4,9L5,9L5,12L12,12L12,3L5,3L5,6L4,6L4,2L13,2L13,13L4,13Z" style="fill:rgb(57,57,57);"/>
                        <path d="M7,7L7,4L11,7.5L7,11L7,8L1,8L1,7L7,7Z" style="fill:rgb(57,57,57);"/>
                    </g>
                </g>
            </g>
        </g>
    </g>
</svg>
