<?xml version="1.0" encoding="UTF-8" standalone="no"?>
<!DOCTYPE svg PUBLIC "-//W3C//DTD SVG 1.1//EN" "http://www.w3.org/Graphics/SVG/1.1/DTD/svg11.dtd">
<svg width="100%" height="100%" viewBox="0 0 15 15" version="1.1" xmlns="http://www.w3.org/2000/svg" xmlns:xlink="http://www.w3.org/1999/xlink" xml:space="preserve" xmlns:serif="http://www.serif.com/" style="fill-rule:evenodd;clip-rule:evenodd;stroke-linejoin:round;stroke-miterlimit:1.41421;">
    <g transform="matrix(1,0,0,1,-180,-45)">
        <g transform="matrix(1,0,0,1,180,45)">
            <g id="ObjectIcons_ActionPitch_nor">
                <g id="Icons">
                    <g transform="matrix(1,0,0,1,-40,-25)">
                        <g id="Base-Block" serif:id="Base Block">
                            <path d="M55,27.1C55,25.941 54.059,25 52.9,25L42.1,25C40.941,25 40,25.941 40,27.1L40,37.9C40,39.059 40.941,40 42.1,40L52.9,40C54.059,40 55,39.059 55,37.9L55,27.1Z" style="fill-opacity:0;"/>
                        </g>
                    </g>
                    <g transform="matrix(1,0,0,1,-160,-5)">
                        <path d="M174.25,5C174.664,5 175,5.336 175,5.75L175,19.25C175,19.664 174.664,20 174.25,20L172.75,20C172.336,20 172,19.664 172,19.25L172,5.75C172,5.336 172.336,5 172.75,5L174.25,5ZM174,19L174,6L173,6L173,19L174,19Z" style="fill:rgb(196,196,196);"/>
                    </g>
                    <g transform="matrix(1,0,0,1,-160,-5)">
                        <path d="M162.25,5C162.664,5 163,5.336 163,5.75L163,19.25C163,19.664 162.664,20 162.25,20L160.75,20C160.336,20 160,19.664 160,19.25L160,5.75C160,5.336 160.336,5 160.75,5L162.25,5ZM162,19L162,6L161,6L161,19L162,19Z" style="fill:rgb(196,196,196);"/>
                    </g>
                    <g transform="matrix(-1,-0,0,0.454545,5,8.09091)">
                        <rect x="3" y="2" width="1" height="11" style="fill:rgb(57,57,57);"/>
                    </g>
                    <g transform="matrix(-1,-0,0,0.454545,25,8.09091)">
                        <rect x="11" y="2" width="1" height="11" style="fill:rgb(57,57,57);"/>
                    </g>
                    <g transform="matrix(-1,0,0,0.454545,5,0.0909091)">
                        <rect x="3" y="2" width="1" height="11" style="fill:rgb(57,57,57);"/>
                    </g>
                    <g transform="matrix(-1,0,0,0.454545,25,0.0909091)">
                        <rect x="11" y="2" width="1" height="11" style="fill:rgb(57,57,57);"/>
                    </g>
                    <path d="M3,7.858L3.067,7.766C3.613,7.006 4.293,5.896 4.859,5.896C5.447,5.896 6.105,7.016 6.459,7.53C6.572,7.694 6.671,7.836 6.756,7.943C6.823,8.027 6.9,8.14 6.989,8.269C7.568,9.11 8.539,10.775 10.141,10.775C10.885,10.775 11.486,10.216 12,9.561L12,11.265C11.485,11.701 10.885,12 10.141,12C8.539,12 7.568,11.13 6.989,10.289C6.9,10.16 6.823,10.046 6.756,9.963C6.671,9.856 6.572,9.713 6.459,9.55C6.105,9.036 5.061,7.386 4.859,7.386C4.656,7.386 3.613,8.832 3.067,9.592L3,9.684L3,7.858ZM3,5.584L3,3.878C3.517,3.379 4.123,3 4.859,3C6.354,3 7.43,3.955 8.011,4.796C8.1,4.926 8.176,5.039 8.243,5.123C8.327,5.23 8.428,5.372 8.54,5.536C8.893,6.05 9.882,7.533 10.141,7.521C10.526,7.503 11.378,6.133 11.917,5.382C11.945,5.343 11.972,5.305 12,5.267L12,7.049L11.917,7.163C11.378,7.914 10.705,8.994 10.141,8.994C9.552,8.994 8.893,7.893 8.54,7.379C8.428,7.216 8.327,7.073 8.243,6.966C8.176,6.883 8.1,6.769 8.011,6.64C7.43,5.799 6.46,4.225 4.859,4.225C4.123,4.225 3.518,4.864 3,5.584Z" style="fill:rgb(196,196,196);"/>
                    <g transform="matrix(1.22222,0,0,1.11389,12.4781,8.52417)">
                        <path d="M0,-1.876C-0.153,-1.663 -0.306,-1.433 -0.459,-1.199C-0.9,-0.525 -1.451,0.444 -1.912,0.444C-2.394,0.444 -2.933,-0.544 -3.222,-1.005C-3.314,-1.152 -3.396,-1.28 -3.465,-1.376C-3.52,-1.451 -3.582,-1.553 -3.655,-1.669C-4.13,-2.424 -4.924,-3.837 -6.234,-3.837C-7.271,-3.837 -7.992,-2.133 -8.573,-1.302L-8.573,0.656L-8.146,0.001C-7.999,-0.204 -7.851,-0.429 -7.7,-0.658C-7.253,-1.34 -6.697,-2.337 -6.234,-2.337C-5.753,-2.337 -5.214,-1.331 -4.925,-0.87C-4.832,-0.723 -4.751,-0.595 -4.682,-0.499C-4.627,-0.424 -4.564,-0.322 -4.491,-0.206C-4.017,0.549 -3.223,2.043 -1.912,2.043C-0.865,2.043 -0.165,0.56 0.427,-0.291L0.427,-2.53L0,-1.876Z"/>
                    </g>
                    <g transform="matrix(-0.166667,0,0,3,14.6667,-15)">
                        <rect x="4" y="7" width="6" height="1" style="fill:rgb(149,149,149);"/>
                    </g>
                    <g transform="matrix(-0.166667,0,0,3,2.66667,-15)">
                        <rect x="4" y="7" width="6" height="1" style="fill:rgb(149,149,149);"/>
                    </g>
                </g>
            </g>
        </g>
    </g>
</svg>
