<?xml version="1.0" encoding="UTF-8" standalone="no"?>
<!DOCTYPE svg PUBLIC "-//W3C//DTD SVG 1.1//EN" "http://www.w3.org/Graphics/SVG/1.1/DTD/svg11.dtd">
<svg width="100%" height="100%" viewBox="0 0 15 15" version="1.1" xmlns="http://www.w3.org/2000/svg" xmlns:xlink="http://www.w3.org/1999/xlink" xml:space="preserve" xmlns:serif="http://www.serif.com/" style="fill-rule:evenodd;clip-rule:evenodd;stroke-linejoin:round;stroke-miterlimit:1.41421;">
    <g transform="matrix(1,0,0,1,-280,-285)">
        <g id="ObjectIcons_Project_nor" transform="matrix(1,0,0,1,100,260)">
            <g transform="matrix(1,0,0,1,140,-5.32907e-14)">
                <g id="Object-Icon-Base" serif:id="Object Icon Base">
                    <path d="M55,27.1C55,25.941 54.059,25 52.9,25L42.1,25C40.941,25 40,25.941 40,27.1L40,37.9C40,39.059 40.941,40 42.1,40L52.9,40C54.059,40 55,39.059 55,37.9L55,27.1Z" style="fill-opacity:0;"/>
                </g>
            </g>
            <g transform="matrix(1,0,0,1,180,26.0013)">
                <path d="M0,-1L0,14L14,14L14,3.078L10,-1.001L8,-1.001L0,-1Z" style="fill:rgb(196,196,196);"/>
            </g>
            <g transform="matrix(1,0,0,1,120,-18.999)">
                <path d="M67,45L70,44.999L73,47.999L73,58L61,58L61,47L61,45L67,45Z" style="fill:rgb(57,57,57);"/>
            </g>
            <g transform="matrix(1.66667,0,0,1,117.667,-298)">
                <rect x="41" y="330" width="3" height="2" style="fill:rgb(196,196,196);"/>
            </g>
            <g transform="matrix(1.33333,0,0,1,128.333,-301)">
                <rect x="41" y="330" width="3" height="2" style="fill:rgb(196,196,196);"/>
            </g>
            <g transform="matrix(1.66667,0,0,1,117.667,-295)">
                <rect x="41" y="330" width="3" height="2" style="fill:rgb(196,196,196);"/>
            </g>
        </g>
    </g>
</svg>
