<?xml version="1.0" encoding="UTF-8" standalone="no"?>
<!DOCTYPE svg PUBLIC "-//W3C//DTD SVG 1.1//EN" "http://www.w3.org/Graphics/SVG/1.1/DTD/svg11.dtd">
<svg width="100%" height="100%" viewBox="0 0 15 15" version="1.1" xmlns="http://www.w3.org/2000/svg" xmlns:xlink="http://www.w3.org/1999/xlink" xml:space="preserve" xmlns:serif="http://www.serif.com/" style="fill-rule:evenodd;clip-rule:evenodd;stroke-linejoin:round;stroke-miterlimit:1.41421;">
    <g transform="matrix(1,0,0,1,-200,-85)">
        <g transform="matrix(1,0,0,1,200,85)">
            <g id="ObjectIcons_SourcePlugin_nor">
                <g id="Icons">
                    <g transform="matrix(1,0,0,1,-40,-25)">
                        <g id="Base-Block" serif:id="Base Block">
                            <path d="M55,27.1C55,25.941 54.059,25 52.9,25L42.1,25C40.941,25 40,25.941 40,27.1L40,37.9C40,39.059 40.941,40 42.1,40L52.9,40C54.059,40 55,39.059 55,37.9L55,27.1Z" style="fill-opacity:0;"/>
                        </g>
                    </g>
                    <g transform="matrix(1,0,0,1,-475,-741)">
                        <g id="Object-Icon-Base" serif:id="Object Icon Base">
                            <path d="M490,743.25C490,742.008 488.992,741 487.75,741L477.25,741C476.008,741 475,742.008 475,743.25L475,753.75C475,754.992 476.008,756 477.25,756L487.75,756C488.992,756 490,754.992 490,753.75L490,743.25Z" style="fill-opacity:0;"/>
                        </g>
                    </g>
                    <path d="M11.009,4L12.8,4C13.469,4.006 14,4.542 14,5.2L14,5.8C14,6.458 13.469,6.994 12.8,7L11.009,7L11.009,8L12.8,8C13.469,8.006 14,8.542 14,9.2L14,9.8C14,10.458 13.469,10.994 12.8,11L11.009,11L11.009,14L8.027,14L8.027,12L7.349,12L4.534,11.548C4.138,11.359 4.011,10.569 3.988,10.146L3.99,10L0,10L0,5L4.04,5L4.043,4.609C3.925,4.074 4.365,3.537 4.604,3.443L7.328,3L8.027,3L8.027,1L11.009,1L11.009,4ZM10,5L10,2.252L9,2.252L9,4L7.519,4L5,4.33C5,4.33 5.05,5.353 5.01,6L1,6L1,9L5,9L5,10.637L7.533,11L9,11L9,12.712L10,12.712L10,10L13,10L13,9L10,9L10,6L13,6L13,5L10,5Z" style="fill:rgb(196,196,196);"/>
                    <path d="M9,4L9,2.252L10,2.252L10,5L13,5L13,6L10,6L10,9L13,9L13,10L10,10L10,12.712L9,12.712L9,11L7.533,11L5,10.637L5,6.154C5.059,5.53 5,4.33 5,4.33L7.519,4L9,4Z" style="fill:rgb(57,57,57);"/>
                    <g transform="matrix(0.75,0,0,0.75,-65,-16.5)">
                        <rect x="88" y="30" width="4" height="4" style="fill:rgb(57,57,57);"/>
                    </g>
                    <g transform="matrix(-0.166667,0,0,3,5.66667,-15)">
                        <rect x="4" y="7" width="6" height="1" style="fill:rgb(108,108,108);"/>
                    </g>
                </g>
            </g>
        </g>
    </g>
</svg>
