<?xml version="1.0" encoding="UTF-8" standalone="no"?>
<!DOCTYPE svg PUBLIC "-//W3C//DTD SVG 1.1//EN" "http://www.w3.org/Graphics/SVG/1.1/DTD/svg11.dtd">
<svg width="100%" height="100%" viewBox="0 0 15 15" version="1.1" xmlns="http://www.w3.org/2000/svg" xmlns:xlink="http://www.w3.org/1999/xlink" xml:space="preserve" xmlns:serif="http://www.serif.com/" style="fill-rule:evenodd;clip-rule:evenodd;stroke-linejoin:round;stroke-miterlimit:1.41421;">
    <g transform="matrix(1,0,0,1,-80,-365)">
        <g transform="matrix(1,0,0,1,80,365)">
            <g id="ObjectIcons_PropHighpassOutputBus_nor">
                <g id="Icons">
                    <g transform="matrix(1,0,0,1,-40,-25)">
                        <g id="Base-Block" serif:id="Base Block">
                            <path d="M55,27.1C55,25.941 54.059,25 52.9,25L42.1,25C40.941,25 40,25.941 40,27.1L40,37.9C40,39.059 40.941,40 42.1,40L52.9,40C54.059,40 55,39.059 55,37.9L55,27.1Z" style="fill-opacity:0;"/>
                        </g>
                    </g>
                    <g transform="matrix(1,0,0,1,-1,2.84217e-13)">
                        <g transform="matrix(1.57143,0,0,1.14286,-573.286,-54.7143)">
                            <path d="M375,55.54C375,54.69 374.498,54 373.88,54L369.12,54C368.502,54 368,54.69 368,55.54L368,59.46C368,60.31 368.502,61 369.12,61L373.88,61C374.498,61 375,60.31 375,59.46L375,55.54Z" style="fill:rgb(196,196,196);"/>
                        </g>
                        <g transform="matrix(0.863203,0,0,1.02225,-208.276,-278.448)">
                            <path d="M251.761,281.192L251.801,281.194L251.841,281.197L251.88,281.202L251.917,281.207L251.954,281.214L251.99,281.222L252.025,281.232L252.06,281.242L252.093,281.254L252.126,281.267L252.157,281.281L252.188,281.296L252.219,281.312L252.248,281.329L252.276,281.347L252.304,281.367L252.331,281.387L252.357,281.408L252.383,281.431L252.407,281.454L252.431,281.478L252.454,281.503L252.477,281.53L252.499,281.557L252.52,281.585L252.54,281.613L252.56,281.643L252.578,281.674L252.597,281.705L252.614,281.737L252.631,281.77L252.648,281.804L252.663,281.839L252.678,281.874L252.693,281.91L252.72,281.984L252.744,282.061L252.766,282.14L252.786,282.222L252.804,282.306L252.82,282.393L252.834,282.481L252.845,282.572L252.855,282.664L252.863,282.758L252.869,282.853L252.874,282.95L252.877,283.048L252.878,283.148L252.876,283.582L252.875,283.912L252.876,284.042L252.878,284.126L252.88,284.185L252.881,284.244L252.881,284.301L252.879,284.358L252.877,284.414L252.874,284.469L252.87,284.523L252.865,284.576L252.859,284.628L252.852,284.68L252.844,284.73L252.835,284.78L252.826,284.828L252.815,284.876L252.804,284.923L252.792,284.969L252.78,285.014L252.766,285.059L252.752,285.102L252.737,285.144L252.722,285.186L252.705,285.226L252.689,285.266L252.671,285.305L252.653,285.343L252.635,285.38L252.616,285.416L252.596,285.451L252.576,285.485L252.555,285.518L252.534,285.551L252.513,285.582L252.491,285.612L252.469,285.642L252.446,285.67L252.423,285.698L252.399,285.725L252.376,285.751L252.352,285.775L252.327,285.799L252.303,285.822L252.278,285.844L252.253,285.865L252.228,285.885L252.203,285.904L252.177,285.922L252.152,285.94L252.126,285.956L252.101,285.971L252.075,285.985L252.049,285.999L252.023,286.011L251.997,286.022L251.971,286.033L251.946,286.042L251.92,286.051L251.894,286.058L251.869,286.065L251.844,286.07L251.818,286.074L251.793,286.078L251.768,286.08L251.744,286.082L251.719,286.082L249.403,286.082L249.367,286.082L249.333,286.08L249.299,286.076L249.265,286.072L249.232,286.066L249.2,286.059L249.167,286.05L249.136,286.04L249.105,286.03L249.074,286.017L249.044,286.004L249.015,285.99L248.986,285.974L248.957,285.958L248.929,285.94L248.902,285.921L248.875,285.901L248.848,285.88L248.823,285.858L248.797,285.835L248.773,285.811L248.748,285.786L248.725,285.761L248.701,285.734L248.679,285.706L248.657,285.678L248.635,285.648L248.614,285.618L248.594,285.587L248.574,285.555L248.555,285.522L248.536,285.489L248.5,285.42L248.466,285.348L248.435,285.273L248.406,285.196L248.379,285.116L248.355,285.034L248.333,284.95L248.313,284.864L248.296,284.777L248.281,284.687L248.269,284.597L248.259,284.504L248.252,284.411L248.247,284.317L248.244,284.222L248.244,284.126L248.247,283.916L248.25,283.632L248.25,283.486L248.25,283.35L248.248,283.234L248.246,283.187L248.244,283.148L248.239,283.063L248.236,282.977L248.234,282.89L248.235,282.804L248.237,282.717L248.242,282.631L248.249,282.545L248.258,282.46L248.27,282.375L248.284,282.292L248.3,282.21L248.32,282.129L248.342,282.051L248.367,281.974L248.38,281.937L248.394,281.9L248.41,281.863L248.425,281.828L248.442,281.793L248.459,281.758L248.477,281.725L248.496,281.692L248.516,281.66L248.537,281.629L248.558,281.598L248.581,281.569L248.604,281.54L248.628,281.512L248.653,281.485L248.679,281.46L248.706,281.435L248.733,281.411L248.762,281.388L248.792,281.367L248.822,281.346L248.854,281.327L248.886,281.308L248.92,281.291L248.954,281.276L248.99,281.261L249.026,281.248L249.064,281.236L249.102,281.225L249.142,281.216L249.183,281.208L249.224,281.202L249.267,281.197L249.311,281.194L249.356,281.192L249.403,281.191L249.825,281.192L250.501,281.192L251.719,281.191L251.761,281.192ZM250.458,282.171L250.362,282.175L250.272,282.181L250.187,282.19L250.147,282.195L250.108,282.201L250.071,282.207L250.035,282.214L250,282.221L249.967,282.229L249.935,282.238L249.904,282.246L249.874,282.256L249.846,282.266L249.818,282.276L249.792,282.287L249.767,282.298L249.743,282.31L249.72,282.323L249.698,282.335L249.678,282.349L249.658,282.362L249.639,282.376L249.621,282.391L249.604,282.406L249.588,282.421L249.573,282.437L249.558,282.453L249.545,282.47L249.532,282.487L249.52,282.504L249.509,282.522L249.489,282.559L249.471,282.597L249.456,282.637L249.444,282.677L249.433,282.72L249.425,282.763L249.418,282.808L249.413,282.853L249.409,282.9L249.406,282.948L249.403,283.046L249.403,283.148L249.403,284.126L249.404,284.206L249.407,284.281L249.412,284.352L249.42,284.419L249.429,284.482L249.441,284.541L249.455,284.596L249.471,284.648L249.49,284.696L249.5,284.719L249.51,284.741L249.522,284.762L249.533,284.782L249.546,284.802L249.558,284.82L249.572,284.838L249.586,284.856L249.601,284.872L249.616,284.888L249.631,284.903L249.648,284.918L249.665,284.931L249.682,284.944L249.7,284.957L249.719,284.969L249.738,284.98L249.758,284.99L249.779,285L249.8,285.01L249.843,285.027L249.89,285.042L249.938,285.056L249.989,285.067L250.043,285.076L250.099,285.084L250.157,285.091L250.218,285.096L250.282,285.1L250.348,285.102L250.416,285.104L250.487,285.104L250.561,285.104L250.665,285.102L250.762,285.099L250.853,285.093L250.938,285.086L251.018,285.076L251.091,285.065L251.16,285.051L251.192,285.044L251.223,285.036L251.253,285.028L251.281,285.019L251.309,285.009L251.335,285L251.36,284.99L251.384,284.979L251.407,284.968L251.429,284.956L251.449,284.944L251.469,284.931L251.488,284.918L251.506,284.905L251.523,284.891L251.539,284.877L251.554,284.862L251.568,284.847L251.581,284.831L251.594,284.815L251.606,284.798L251.617,284.781L251.627,284.763L251.636,284.745L251.654,284.708L251.668,284.669L251.68,284.628L251.691,284.586L251.699,284.541L251.705,284.495L251.71,284.448L251.714,284.398L251.716,284.347L251.719,284.24L251.719,284.126L251.723,284.048L251.726,283.965L251.729,283.854L251.731,283.716L251.73,283.551L251.727,283.361L251.724,283.258L251.719,283.148L251.715,283.049L251.709,282.953L251.705,282.906L251.7,282.86L251.694,282.814L251.687,282.77L251.677,282.727L251.666,282.685L251.654,282.644L251.638,282.604L251.621,282.565L251.601,282.528L251.578,282.492L251.565,282.475L251.552,282.458L251.538,282.441L251.523,282.425L251.507,282.409L251.49,282.394L251.472,282.379L251.454,282.365L251.434,282.351L251.414,282.337L251.392,282.324L251.37,282.311L251.346,282.299L251.321,282.288L251.296,282.277L251.269,282.266L251.241,282.256L251.211,282.246L251.181,282.237L251.149,282.228L251.116,282.22L251.082,282.213L251.046,282.206L251.009,282.2L250.971,282.194L250.931,282.189L250.89,282.184L250.848,282.18L250.758,282.174L250.663,282.17L250.561,282.17L250.458,282.171Z" style="fill:rgb(34,34,34);"/>
                            <path d="M249.403,286.082C248.649,286.082 248.231,285.151 248.244,284.126C248.247,283.931 248.257,283.329 248.244,283.148C248.181,282.244 248.405,281.183 249.403,281.191C249.697,281.194 251.265,281.191 251.719,281.191C252.612,281.191 252.872,282.083 252.878,283.148C252.878,283.148 252.872,283.98 252.878,284.126C252.931,285.4 252.237,286.082 251.719,286.082C251.024,286.083 249.863,286.082 249.403,286.082ZM250.561,282.17C249.432,282.173 249.403,282.597 249.403,283.148C249.403,283.567 249.403,284.105 249.403,284.126C249.403,284.999 249.762,285.11 250.561,285.104C251.701,285.096 251.719,284.751 251.719,284.126C251.719,284.104 251.745,283.749 251.719,283.148C251.697,282.616 251.681,282.166 250.561,282.17Z" style="fill:rgb(57,57,57);fill-rule:nonzero;"/>
                        </g>
                        <g transform="matrix(0.844568,1.26883e-14,0,1.05718,-202.236,-288.354)">
                            <path d="M256.031,281.27L256.079,281.271L256.126,281.272L256.171,281.274L256.215,281.276L256.258,281.28L256.3,281.284L256.34,281.289L256.379,281.294L256.417,281.301L256.454,281.308L256.49,281.315L256.524,281.324L256.558,281.333L256.59,281.343L256.621,281.353L256.652,281.365L256.681,281.377L256.709,281.389L256.736,281.403L256.762,281.417L256.788,281.432L256.812,281.447L256.835,281.463L256.858,281.48L256.879,281.498L256.9,281.516L256.92,281.535L256.939,281.554L256.957,281.574L256.974,281.595L256.991,281.617L257.007,281.639L257.022,281.662L257.036,281.686L257.05,281.71L257.062,281.735L257.075,281.76L257.086,281.786L257.108,281.84L257.126,281.897L257.143,281.956L257.157,282.018L257.17,282.082L257.18,282.149L257.189,282.218L257.197,282.289L257.203,282.363L257.207,282.439L257.211,282.518L257.213,282.599L257.215,282.682L257.215,282.713L257.213,282.744L257.209,282.774L257.203,282.803L257.196,282.832L257.188,282.861L257.178,282.889L257.167,282.916L257.154,282.943L257.14,282.969L257.125,282.995L257.109,283.02L257.091,283.044L257.073,283.068L257.053,283.092L257.033,283.115L257.011,283.137L256.989,283.159L256.966,283.18L256.943,283.201L256.918,283.222L256.893,283.241L256.842,283.279L256.788,283.315L256.733,283.349L256.678,283.381L256.621,283.411L256.565,283.439L256.509,283.465L256.454,283.489L256.401,283.511L256.349,283.531L256.299,283.55L256.252,283.566L256.208,283.581L256.131,283.605L256.071,283.622L256.019,283.635L256.053,283.639L256.088,283.645L256.127,283.652L256.167,283.661L256.21,283.671L256.255,283.682L256.301,283.695L256.348,283.709L256.397,283.725L256.446,283.742L256.496,283.761L256.546,283.782L256.596,283.804L256.645,283.828L256.695,283.853L256.743,283.881L256.791,283.91L256.837,283.941L256.882,283.974L256.925,284.009L256.967,284.046L257.006,284.084L257.024,284.104L257.042,284.125L257.059,284.146L257.076,284.168L257.091,284.19L257.106,284.213L257.12,284.236L257.134,284.26L257.146,284.284L257.157,284.309L257.168,284.334L257.177,284.36L257.186,284.387L257.194,284.414L257.2,284.442L257.205,284.47L257.21,284.499L257.213,284.528L257.214,284.558L257.215,284.588L257.215,284.743L257.214,284.89L257.212,284.961L257.209,285.031L257.205,285.098L257.2,285.163L257.192,285.227L257.183,285.288L257.172,285.347L257.158,285.404L257.142,285.459L257.133,285.486L257.123,285.512L257.112,285.537L257.101,285.562L257.089,285.586L257.075,285.609L257.061,285.632L257.046,285.655L257.03,285.676L257.014,285.697L256.996,285.718L256.977,285.737L256.957,285.756L256.936,285.775L256.914,285.793L256.89,285.81L256.866,285.826L256.84,285.842L256.813,285.857L256.785,285.871L256.756,285.885L256.725,285.898L256.693,285.91L256.659,285.921L256.625,285.932L256.588,285.942L256.55,285.951L256.511,285.959L256.471,285.967L256.428,285.974L256.384,285.98L256.339,285.985L256.292,285.99L256.243,285.993L256.193,285.996L256.141,285.998L256.087,286L256.031,286L252.479,286L252.479,281.27L256.031,281.27ZM253.663,285.054L253.847,285.054L254.021,285.053L254.186,285.05L254.342,285.047L254.489,285.042L254.628,285.036L254.758,285.03L254.881,285.022L254.995,285.013L255.102,285.004L255.202,284.993L255.295,284.982L255.381,284.97L255.46,284.956L255.533,284.942L255.6,284.927L255.661,284.912L255.716,284.895L255.766,284.878L255.811,284.861L255.851,284.842L255.886,284.823L255.916,284.803L255.943,284.782L255.965,284.761L255.984,284.74L255.999,284.718L256.011,284.695L256.02,284.672L256.026,284.648L256.03,284.624L256.031,284.599L256.03,284.574L256.028,284.548L256.024,284.524L256.018,284.499L256.008,284.475L255.996,284.452L255.981,284.429L255.963,284.406L255.952,284.395L255.94,284.385L255.927,284.374L255.913,284.363L255.898,284.353L255.882,284.343L255.846,284.323L255.806,284.304L255.759,284.285L255.707,284.267L255.65,284.25L255.585,284.234L255.515,284.219L255.437,284.204L255.352,284.191L255.26,284.178L255.16,284.167L255.052,284.156L254.935,284.146L254.81,284.137L254.676,284.13L254.532,284.123L254.379,284.118L254.215,284.114L254.042,284.111L253.858,284.109L253.663,284.108L253.663,285.054ZM253.663,282.216L253.663,283.162L254.002,283.162L254.309,283.161L254.586,283.158L254.713,283.155L254.834,283.152L254.947,283.149L255.054,283.144L255.155,283.139L255.249,283.133L255.336,283.126L255.418,283.118L255.494,283.108L255.564,283.098L255.628,283.086L255.687,283.073L255.741,283.059L255.766,283.051L255.79,283.043L255.812,283.034L255.834,283.026L255.854,283.016L255.873,283.007L255.89,282.997L255.907,282.986L255.923,282.975L255.937,282.964L255.95,282.952L255.963,282.94L255.974,282.927L255.984,282.914L255.994,282.9L256.002,282.886L256.009,282.871L256.016,282.856L256.021,282.841L256.026,282.825L256.03,282.808L256.033,282.791L256.036,282.754L256.037,282.716L256.035,282.67L256.032,282.627L256.027,282.587L256.021,282.549L256.012,282.514L256.006,282.498L256,282.482L255.993,282.466L255.986,282.452L255.977,282.437L255.968,282.424L255.958,282.411L255.947,282.398L255.935,282.386L255.922,282.375L255.907,282.364L255.892,282.354L255.875,282.344L255.858,282.334L255.839,282.325L255.818,282.317L255.797,282.309L255.774,282.301L255.749,282.294L255.723,282.287L255.667,282.275L255.604,282.264L255.535,282.254L255.458,282.246L255.374,282.239L255.282,282.233L255.182,282.228L255.074,282.224L254.957,282.221L254.831,282.219L254.695,282.217L254.394,282.216L254.051,282.216L253.663,282.216Z" style="fill:rgb(34,34,34);"/>
                            <path d="M252.479,286L252.479,281.27L256.031,281.27C257.068,281.27 257.2,281.783 257.215,282.682C257.226,283.355 256.019,283.635 256.019,283.635C256.356,283.677 257.215,283.931 257.215,284.588C257.215,285.429 257.237,286 256.031,286L252.479,286ZM253.663,282.216L253.663,283.162C255.555,283.164 256.049,283.138 256.037,282.716C256.022,282.21 255.856,282.212 253.663,282.216ZM253.663,284.108L253.663,285.054C255.673,285.059 256.029,284.864 256.031,284.599C256.033,284.324 255.801,284.108 253.663,284.108Z" style="fill:rgb(57,57,57);fill-rule:nonzero;"/>
                        </g>
                    </g>
                    <g transform="matrix(-1,0,0,1,14.9997,-0.995052)">
                        <path d="M10.755,12.995L14.308,12.995C14.884,12.955 14.987,12.557 14.79,11.932C13.667,10.104 11.488,6.56 11.481,6.548C9.572,3.44 8.209,3.044 5.283,3L0,2.995L0,7L5.2,7.001C5.971,7.005 7.061,7.006 7.895,8.346C7.904,8.36 10.755,12.995 10.755,12.995ZM11.332,11.995L13.611,11.995C13.611,11.995 10.623,7.134 10.614,7.119C9.06,4.589 7.672,4.041 5.283,4.005L1,4L1,6L5.2,6.001C5.971,6.005 7.539,5.849 8.745,7.787C8.754,7.801 11.332,11.995 11.332,11.995Z" style="fill:rgb(196,196,196);"/>
                    </g>
                    <g transform="matrix(1,0,0,0.933333,1.99975,3.00495)">
                        <path d="M1.667,8.566L-0.612,8.567C-0.612,8.567 2.377,3.358 2.386,3.342C3.94,0.631 5.328,0.044 7.717,0.005L12,0L12,2.143L7.8,2.144C7.029,2.148 5.461,1.981 4.255,4.057C4.246,4.072 1.667,8.566 1.667,8.566Z" style="fill:rgb(57,57,57);fill-rule:nonzero;"/>
                    </g>
                </g>
            </g>
        </g>
    </g>
</svg>
