<?xml version="1.0" encoding="UTF-8" standalone="no"?>
<!DOCTYPE svg PUBLIC "-//W3C//DTD SVG 1.1//EN" "http://www.w3.org/Graphics/SVG/1.1/DTD/svg11.dtd">
<svg width="100%" height="100%" viewBox="0 0 15 15" version="1.1" xmlns="http://www.w3.org/2000/svg" xmlns:xlink="http://www.w3.org/1999/xlink" xml:space="preserve" xmlns:serif="http://www.serif.com/" style="fill-rule:evenodd;clip-rule:evenodd;stroke-linejoin:round;stroke-miterlimit:1.41421;">
    <g transform="matrix(1,0,0,1,-160,-205)">
        <g transform="matrix(1,0,0,1,160,205)">
            <g id="ObjectIcons_BatchPrepareList_nor">
                <g id="Icons">
                    <g transform="matrix(1,0,0,1,-40,-25)">
                        <g id="Base-Block" serif:id="Base Block">
                            <path d="M55,27.1C55,25.941 54.059,25 52.9,25L42.1,25C40.941,25 40,25.941 40,27.1L40,37.9C40,39.059 40.941,40 42.1,40L52.9,40C54.059,40 55,39.059 55,37.9L55,27.1Z" style="fill-opacity:0;"/>
                        </g>
                    </g>
                    <path d="M5.77,13L2.23,13C1.551,13 1,12.449 1,11.77L1,11.23C1,10.552 1.55,10.002 2.23,10L5,10L5,9L2.23,9C1.551,9 1,8.449 1,7.77L1,7.23C1,6.552 1.55,6.002 2.23,6L5,6L5,5L2.23,5C1.551,5 1,4.449 1,3.77L1,3.23C1,2.552 1.55,2.002 2.23,2L5.77,2L5.896,2.006L6,2.022L6.104,2.006L6.23,2L6.77,2C7.044,2.001 7.296,2.09 7.5,2.242C7.702,2.09 7.954,2.001 8.23,2L8.77,2L8.896,2.006L9,2.022L9.104,2.006L9.23,2L12.77,2C13.45,2.002 14,2.552 14,3.23L14,3.77C14,4.447 13.452,4.996 12.77,5L10,5L10,6L12.77,6C13.452,6.004 14,6.553 14,7.23L14,7.77C14,8.447 13.452,8.996 12.77,9L10,9L10,10L12.77,10C13.452,10.004 14,10.553 14,11.23L14,11.77C14,12.447 13.452,12.996 12.77,13L9.23,13C9.152,13 9.075,12.993 9,12.978L8.896,12.994L8.77,13L8.23,13C7.956,13 7.703,12.91 7.5,12.758C7.298,12.909 7.047,12.999 6.77,13L6.23,13C6.152,13 6.075,12.993 6,12.978L5.896,12.994L5.77,13ZM13,4L13,3L8,3L8,12L13,12L13,11L9,11L9,8L13,8L13,7L9,7L9,4L13,4ZM7,12L7,3L2,3L2,4L6,4L6,7L2,7L2,8L6,8L6,11L2,11L2,12L7,12Z" style="fill:rgb(196,196,196);"/>
                    <path d="M2,11L6,11L6,8L2,8L2,7L6,7L6,4L2,4L2,3L7,3L7,12L2,12L2,11Z" style="fill:rgb(108,108,108);"/>
                    <path d="M13,4L9,4L9,7L13,7L13,8L9,8L9,11L13,11L13,12L9,12L8,12L8,11L8,8L8,7L8,4L8,3L13,3L13,4Z"/>
                </g>
            </g>
        </g>
    </g>
</svg>
