<?xml version="1.0" encoding="UTF-8" standalone="no"?>
<!DOCTYPE svg PUBLIC "-//W3C//DTD SVG 1.1//EN" "http://www.w3.org/Graphics/SVG/1.1/DTD/svg11.dtd">
<svg width="100%" height="100%" viewBox="0 0 15 15" version="1.1" xmlns="http://www.w3.org/2000/svg" xmlns:xlink="http://www.w3.org/1999/xlink" xml:space="preserve" xmlns:serif="http://www.serif.com/" style="fill-rule:evenodd;clip-rule:evenodd;stroke-linejoin:round;stroke-miterlimit:1.41421;">
    <g transform="matrix(1,0,0,1,-60,-285)">
        <g transform="matrix(1,0,0,1,60,285)">
            <g id="ObjectIcons_Ray_nor">
                <g id="Icons">
                    <g transform="matrix(1,0,0,1,-40,-25)">
                        <g id="Base-Block" serif:id="Base Block">
                            <path d="M55,27.1C55,25.941 54.059,25 52.9,25L42.1,25C40.941,25 40,25.941 40,27.1L40,37.9C40,39.059 40.941,40 42.1,40L52.9,40C54.059,40 55,39.059 55,37.9L55,27.1Z" style="fill-opacity:0;"/>
                        </g>
                    </g>
                    <g transform="matrix(1,0,0,1,-258,-66)">
                        <path d="M269.058,72.002L269.116,72.007L269.174,72.015L269.231,72.027L269.287,72.042L269.342,72.06L269.396,72.082L269.449,72.106L269.5,72.134L269.55,72.165L269.597,72.198L269.643,72.234L269.686,72.273L269.727,72.314L269.766,72.357L269.802,72.403L269.835,72.45L269.866,72.5L269.894,72.551L269.918,72.604L269.94,72.658L269.958,72.713L269.973,72.769L269.985,72.826L269.993,72.884L269.998,72.942L270,73L270,74L269.998,74.058L269.993,74.116L269.985,74.174L269.973,74.231L269.958,74.287L269.94,74.342L269.918,74.396L269.894,74.449L269.866,74.5L269.835,74.55L269.802,74.597L269.766,74.643L269.727,74.686L269.686,74.727L269.643,74.766L269.597,74.802L269.55,74.835L269.5,74.866L269.449,74.894L269.396,74.918L269.342,74.94L269.287,74.958L269.231,74.973L269.174,74.985L269.116,74.993L269.058,74.998L269,75L260,75L259.942,74.998L259.884,74.993L259.826,74.985L259.769,74.973L259.713,74.958L259.658,74.94L259.604,74.918L259.551,74.894L259.5,74.866L259.45,74.835L259.403,74.802L259.357,74.766L259.314,74.727L259.273,74.686L259.234,74.643L259.198,74.597L259.165,74.55L259.134,74.5L259.106,74.449L259.082,74.396L259.06,74.342L259.042,74.287L259.027,74.231L259.015,74.174L259.007,74.116L259.002,74.058L259,74L259,73L259.002,72.942L259.007,72.884L259.015,72.826L259.027,72.769L259.042,72.713L259.06,72.658L259.082,72.604L259.106,72.551L259.134,72.5L259.165,72.45L259.198,72.403L259.234,72.357L259.273,72.314L259.314,72.273L259.357,72.234L259.403,72.198L259.45,72.165L259.5,72.134L259.551,72.106L259.604,72.082L259.658,72.06L259.713,72.042L259.769,72.027L259.826,72.015L259.884,72.007L259.942,72.002L260,72L269,72L269.058,72.002ZM260,73L260,74L269,74L269,73L260,73Z" style="fill:rgb(196,196,196);"/>
                        <rect x="260" y="73" width="9" height="1" style="fill:rgb(43,43,43);"/>
                    </g>
                    <g transform="matrix(1,0,0,1,-259,-66)">
                        <path d="M270.558,71.001L270.57,71.001L270.621,71.003L270.634,71.004L270.685,71.007L270.698,71.008L270.748,71.012L270.761,71.014L270.811,71.019L270.823,71.021L270.873,71.028L270.886,71.03L270.935,71.038L270.948,71.04L270.997,71.05L271.009,71.052L271.057,71.063L271.07,71.065L271.118,71.077L271.13,71.08L271.178,71.093L271.19,71.097L271.237,71.111L271.249,71.114L271.296,71.13L271.308,71.134L271.354,71.15L271.365,71.154L271.411,71.172L271.423,71.176L271.468,71.195L271.479,71.199L271.524,71.219L271.535,71.224L271.579,71.245L271.59,71.25L271.633,71.271L271.644,71.277L271.687,71.3L271.698,71.305L271.74,71.329L271.75,71.335L271.792,71.36L271.802,71.366L271.843,71.391L271.853,71.398L271.893,71.424L271.903,71.431L271.943,71.458L271.953,71.465L271.991,71.494L272.001,71.501L272.039,71.53L272.049,71.538L272.086,71.568L272.095,71.575L272.132,71.606L272.141,71.614L272.177,71.646L272.185,71.654L272.22,71.686L272.229,71.695L272.263,71.728L272.272,71.737L272.305,71.771L272.314,71.78L272.346,71.815L272.354,71.823L272.386,71.859L272.394,71.868L272.425,71.905L272.432,71.914L272.462,71.952L272.47,71.961L272.499,71.999L272.506,72.009L272.535,72.047L272.541,72.057L272.569,72.097L272.576,72.107L272.602,72.147L272.609,72.157L272.634,72.198L272.64,72.208L272.665,72.25L272.671,72.26L272.694,72.302L272.7,72.313L272.723,72.356L272.729,72.367L272.75,72.41L272.755,72.421L272.776,72.465L272.781,72.476L272.801,72.521L272.805,72.532L272.824,72.577L272.828,72.589L272.846,72.635L272.85,72.646L272.866,72.693L272.87,72.704L272.885,72.751L272.889,72.763L272.903,72.81L272.907,72.822L272.92,72.87L272.923,72.882L272.934,72.93L272.937,72.942L272.948,72.991L272.95,73.003L272.96,73.052L272.962,73.065L272.97,73.114L272.972,73.127L272.979,73.177L272.981,73.189L272.986,73.239L272.988,73.252L272.992,73.302L272.993,73.315L272.996,73.366L272.997,73.379L272.999,73.43L272.999,73.442L273,73.494L273,73.506L272.999,73.558L272.999,73.57L272.997,73.621L272.996,73.634L272.993,73.685L272.992,73.698L272.988,73.748L272.986,73.761L272.981,73.811L272.979,73.823L272.972,73.873L272.97,73.886L272.962,73.935L272.96,73.948L272.95,73.997L272.948,74.009L272.937,74.058L272.934,74.07L272.923,74.118L272.92,74.13L272.907,74.178L272.903,74.19L272.889,74.237L272.885,74.249L272.87,74.296L272.866,74.307L272.85,74.354L272.846,74.365L272.828,74.411L272.824,74.423L272.805,74.468L272.801,74.479L272.781,74.524L272.776,74.535L272.755,74.579L272.75,74.59L272.729,74.633L272.723,74.644L272.7,74.687L272.694,74.698L272.671,74.74L272.665,74.75L272.64,74.792L272.634,74.802L272.609,74.843L272.602,74.853L272.576,74.893L272.569,74.903L272.541,74.943L272.535,74.953L272.506,74.991L272.499,75.001L272.47,75.039L272.462,75.048L272.432,75.086L272.425,75.095L272.394,75.132L272.386,75.141L272.354,75.177L272.346,75.185L272.314,75.22L272.305,75.229L272.272,75.263L272.263,75.272L272.229,75.305L272.22,75.314L272.185,75.346L272.177,75.354L272.141,75.386L272.132,75.394L272.095,75.425L272.086,75.432L272.049,75.462L272.039,75.47L272.001,75.499L271.991,75.506L271.953,75.535L271.943,75.542L271.903,75.569L271.893,75.576L271.853,75.602L271.843,75.609L271.802,75.634L271.792,75.64L271.75,75.665L271.74,75.671L271.698,75.695L271.687,75.7L271.644,75.723L271.633,75.729L271.59,75.75L271.579,75.755L271.535,75.776L271.524,75.781L271.479,75.801L271.468,75.805L271.423,75.824L271.411,75.828L271.365,75.846L271.354,75.85L271.308,75.866L271.296,75.87L271.249,75.886L271.237,75.889L271.19,75.903L271.178,75.907L271.13,75.92L271.118,75.923L271.07,75.935L271.057,75.937L271.009,75.948L270.997,75.95L270.948,75.96L270.935,75.962L270.886,75.97L270.873,75.972L270.823,75.979L270.811,75.981L270.761,75.986L270.748,75.988L270.698,75.992L270.685,75.993L270.634,75.996L270.621,75.997L270.57,75.999L270.558,75.999L270.506,76L270.494,76L270.442,75.999L270.43,75.999L270.379,75.997L270.366,75.996L270.315,75.993L270.302,75.992L270.252,75.988L270.239,75.986L270.189,75.981L270.177,75.979L270.127,75.972L270.114,75.97L270.065,75.962L270.052,75.96L270.003,75.95L269.991,75.948L269.943,75.937L269.93,75.935L269.882,75.923L269.87,75.92L269.822,75.907L269.81,75.903L269.763,75.889L269.751,75.885L269.704,75.87L269.692,75.866L269.646,75.85L269.635,75.846L269.589,75.828L269.577,75.824L269.532,75.805L269.521,75.801L269.476,75.781L269.465,75.776L269.421,75.755L269.41,75.75L269.367,75.729L269.356,75.723L269.313,75.7L269.302,75.695L269.26,75.671L269.25,75.665L269.208,75.64L269.198,75.634L269.157,75.609L269.147,75.602L269.107,75.576L269.097,75.569L269.057,75.541L269.047,75.535L269.009,75.506L268.999,75.499L268.961,75.47L268.951,75.462L268.914,75.432L268.905,75.425L268.868,75.394L268.859,75.386L268.823,75.354L268.815,75.346L268.78,75.314L268.771,75.305L268.737,75.272L268.728,75.263L268.695,75.229L268.686,75.22L268.654,75.185L268.646,75.177L268.614,75.141L268.606,75.132L268.575,75.095L268.568,75.086L268.538,75.049L268.53,75.039L268.501,75.001L268.494,74.991L268.465,74.953L268.459,74.943L268.431,74.903L268.424,74.893L268.398,74.853L268.391,74.843L268.366,74.802L268.36,74.792L268.335,74.75L268.329,74.74L268.305,74.698L268.3,74.687L268.277,74.644L268.271,74.633L268.25,74.59L268.245,74.579L268.224,74.535L268.219,74.524L268.199,74.479L268.195,74.468L268.176,74.423L268.172,74.411L268.154,74.365L268.15,74.354L268.134,74.308L268.13,74.296L268.115,74.249L268.111,74.237L268.097,74.19L268.093,74.178L268.08,74.13L268.077,74.118L268.066,74.07L268.063,74.058L268.052,74.009L268.05,73.997L268.04,73.948L268.038,73.935L268.03,73.886L268.028,73.873L268.021,73.823L268.019,73.811L268.014,73.761L268.012,73.748L268.008,73.698L268.007,73.685L268.004,73.634L268.003,73.621L268.001,73.57L268.001,73.558L268,73.506L268,73.494L268.001,73.442L268.001,73.43L268.003,73.379L268.004,73.366L268.007,73.315L268.008,73.302L268.012,73.252L268.014,73.239L268.019,73.189L268.021,73.177L268.028,73.127L268.03,73.114L268.038,73.065L268.04,73.052L268.05,73.003L268.052,72.991L268.063,72.942L268.066,72.93L268.077,72.882L268.08,72.87L268.093,72.822L268.097,72.81L268.111,72.763L268.115,72.751L268.13,72.704L268.134,72.692L268.15,72.646L268.154,72.635L268.172,72.589L268.176,72.577L268.195,72.532L268.199,72.521L268.219,72.476L268.224,72.465L268.245,72.421L268.25,72.41L268.271,72.367L268.277,72.356L268.3,72.313L268.305,72.302L268.329,72.26L268.335,72.25L268.36,72.208L268.366,72.198L268.391,72.157L268.398,72.147L268.424,72.107L268.431,72.097L268.459,72.057L268.465,72.047L268.494,72.009L268.501,71.999L268.53,71.961L268.538,71.951L268.568,71.914L268.575,71.905L268.606,71.868L268.614,71.859L268.646,71.823L268.654,71.815L268.686,71.78L268.695,71.771L268.728,71.737L268.737,71.728L268.771,71.695L268.78,71.686L268.815,71.654L268.823,71.646L268.859,71.614L268.868,71.606L268.905,71.575L268.914,71.568L268.951,71.538L268.961,71.53L268.999,71.501L269.009,71.494L269.047,71.465L269.057,71.459L269.097,71.431L269.107,71.424L269.147,71.398L269.157,71.391L269.198,71.366L269.208,71.36L269.25,71.335L269.26,71.329L269.302,71.305L269.313,71.3L269.356,71.277L269.367,71.271L269.41,71.25L269.421,71.245L269.465,71.224L269.476,71.219L269.521,71.199L269.532,71.195L269.577,71.176L269.589,71.172L269.635,71.154L269.646,71.15L269.692,71.134L269.704,71.13L269.751,71.115L269.763,71.111L269.81,71.097L269.822,71.093L269.87,71.08L269.882,71.077L269.93,71.065L269.943,71.063L269.991,71.052L270.003,71.05L270.052,71.04L270.065,71.038L270.114,71.03L270.127,71.028L270.177,71.021L270.189,71.019L270.239,71.014L270.252,71.012L270.302,71.008L270.315,71.007L270.366,71.004L270.379,71.003L270.43,71.001L270.442,71.001L270.494,71L270.506,71L270.558,71.001ZM270.461,72L270.423,72.002L270.385,72.004L270.347,72.008L270.309,72.012L270.272,72.017L270.235,72.023L270.198,72.03L270.161,72.038L270.125,72.047L270.09,72.057L270.054,72.067L270.019,72.079L269.984,72.091L269.95,72.104L269.916,72.118L269.883,72.133L269.85,72.148L269.817,72.164L269.785,72.181L269.754,72.199L269.722,72.217L269.692,72.236L269.662,72.256L269.632,72.277L269.603,72.298L269.574,72.32L269.546,72.343L269.519,72.366L269.492,72.39L269.465,72.414L269.44,72.44L269.414,72.465L269.39,72.492L269.366,72.519L269.343,72.546L269.32,72.574L269.298,72.603L269.277,72.632L269.256,72.662L269.236,72.692L269.217,72.722L269.199,72.754L269.181,72.785L269.164,72.817L269.148,72.85L269.133,72.883L269.118,72.916L269.104,72.95L269.091,72.984L269.079,73.019L269.067,73.054L269.057,73.09L269.047,73.125L269.038,73.161L269.03,73.198L269.023,73.235L269.017,73.272L269.012,73.309L269.008,73.347L269.004,73.385L269.002,73.423L269,73.461L269,73.5L269,73.539L269.002,73.577L269.004,73.615L269.008,73.653L269.012,73.691L269.017,73.728L269.023,73.765L269.03,73.802L269.038,73.839L269.047,73.875L269.057,73.91L269.067,73.946L269.079,73.981L269.091,74.016L269.104,74.05L269.118,74.084L269.133,74.117L269.148,74.15L269.164,74.183L269.181,74.215L269.199,74.246L269.217,74.278L269.236,74.308L269.256,74.338L269.277,74.368L269.298,74.397L269.32,74.426L269.343,74.454L269.366,74.481L269.39,74.508L269.414,74.535L269.44,74.56L269.465,74.586L269.492,74.61L269.519,74.634L269.546,74.657L269.574,74.68L269.603,74.702L269.632,74.723L269.662,74.744L269.692,74.764L269.722,74.783L269.754,74.801L269.785,74.819L269.817,74.836L269.85,74.852L269.883,74.867L269.916,74.882L269.95,74.896L269.984,74.909L270.019,74.921L270.054,74.933L270.09,74.943L270.125,74.953L270.161,74.962L270.198,74.97L270.235,74.977L270.272,74.983L270.309,74.988L270.347,74.992L270.385,74.996L270.423,74.998L270.461,75L270.5,75L270.539,75L270.577,74.998L270.615,74.996L270.653,74.992L270.691,74.988L270.728,74.983L270.765,74.977L270.802,74.97L270.839,74.962L270.875,74.953L270.91,74.943L270.946,74.933L270.981,74.921L271.016,74.909L271.05,74.896L271.084,74.882L271.117,74.867L271.15,74.852L271.183,74.836L271.215,74.819L271.246,74.801L271.278,74.783L271.308,74.764L271.338,74.744L271.368,74.723L271.397,74.702L271.426,74.68L271.454,74.657L271.481,74.634L271.508,74.61L271.535,74.586L271.56,74.56L271.586,74.535L271.61,74.508L271.634,74.481L271.657,74.454L271.68,74.426L271.702,74.397L271.723,74.368L271.744,74.338L271.764,74.308L271.783,74.278L271.801,74.246L271.819,74.215L271.836,74.183L271.852,74.15L271.867,74.117L271.882,74.084L271.896,74.05L271.909,74.016L271.921,73.981L271.933,73.946L271.943,73.91L271.953,73.875L271.962,73.839L271.97,73.802L271.977,73.765L271.983,73.728L271.988,73.691L271.992,73.653L271.996,73.615L271.998,73.577L272,73.539L272,73.5L272,73.461L271.998,73.423L271.996,73.385L271.992,73.347L271.988,73.309L271.983,73.272L271.977,73.235L271.97,73.198L271.962,73.161L271.953,73.125L271.943,73.09L271.933,73.054L271.921,73.019L271.909,72.984L271.896,72.95L271.882,72.916L271.867,72.883L271.852,72.85L271.836,72.817L271.819,72.785L271.801,72.754L271.783,72.722L271.764,72.692L271.744,72.662L271.723,72.632L271.702,72.603L271.68,72.574L271.657,72.546L271.634,72.519L271.61,72.492L271.586,72.465L271.56,72.44L271.535,72.414L271.508,72.39L271.481,72.366L271.454,72.343L271.426,72.32L271.397,72.298L271.368,72.277L271.338,72.256L271.308,72.236L271.278,72.217L271.246,72.199L271.215,72.181L271.183,72.164L271.15,72.148L271.117,72.133L271.084,72.118L271.05,72.104L271.016,72.091L270.981,72.079L270.946,72.067L270.91,72.057L270.875,72.047L270.839,72.038L270.802,72.03L270.765,72.023L270.728,72.017L270.691,72.012L270.653,72.008L270.615,72.004L270.577,72.002L270.539,72L270.5,72L270.461,72Z" style="fill:rgb(196,196,196);"/>
                        <circle cx="270.5" cy="73.5" r="1.5"/>
                    </g>
                </g>
            </g>
        </g>
    </g>
</svg>
