<?xml version="1.0" encoding="UTF-8" standalone="no"?>
<!DOCTYPE svg PUBLIC "-//W3C//DTD SVG 1.1//EN" "http://www.w3.org/Graphics/SVG/1.1/DTD/svg11.dtd">
<svg width="100%" height="100%" viewBox="0 0 15 15" version="1.1" xmlns="http://www.w3.org/2000/svg" xmlns:xlink="http://www.w3.org/1999/xlink" xml:space="preserve" xmlns:serif="http://www.serif.com/" style="fill-rule:evenodd;clip-rule:evenodd;stroke-linejoin:round;stroke-miterlimit:1.41421;">
    <g transform="matrix(1,0,0,1,-160,-45)">
        <g transform="matrix(1,0,0,1,160,45)">
            <g id="ObjectIcons_ActionPause_nor">
                <g id="Icons">
                    <g transform="matrix(1,0,0,1,-40,-25)">
                        <g id="Base-Block" serif:id="Base Block">
                            <path d="M55,27.1C55,25.941 54.059,25 52.9,25L42.1,25C40.941,25 40,25.941 40,27.1L40,37.9C40,39.059 40.941,40 42.1,40L52.9,40C54.059,40 55,39.059 55,37.9L55,27.1Z" style="fill-opacity:0;"/>
                        </g>
                    </g>
                    <g transform="matrix(1,0,0,1,-40,-25)">
                        <g id="Object-Icon-Base" serif:id="Object Icon Base">
                            <path d="M55,27.1C55,25.941 54.059,25 52.9,25L42.1,25C40.941,25 40,25.941 40,27.1L40,37.9C40,39.059 40.941,40 42.1,40L52.9,40C54.059,40 55,39.059 55,37.9L55,27.1Z" style="fill-opacity:0;"/>
                        </g>
                    </g>
                    <g transform="matrix(1.66667,0,0,3.66667,-4.66667,-20)">
                        <path d="M7,6.341C7,6.153 6.664,6 6.25,6L4.75,6C4.336,6 4,6.153 4,6.341L4,8.659C4,8.847 4.336,9 4.75,9L6.25,9C6.664,9 7,8.847 7,8.659L7,6.341Z" style="fill:rgb(196,196,196);"/>
                    </g>
                    <g transform="matrix(1.66667,0,0,3.66667,1.33333,-20)">
                        <path d="M7,6.341C7,6.153 6.664,6 6.25,6L4.75,6C4.336,6 4,6.153 4,6.341L4,8.659C4,8.847 4.336,9 4.75,9L6.25,9C6.664,9 7,8.847 7,8.659L7,6.341Z" style="fill:rgb(196,196,196);"/>
                    </g>
                    <g transform="matrix(1,0,0,1.28571,-5.68434e-14,-2.14286)">
                        <rect x="3" y="4" width="3" height="7" style="fill:rgb(57,57,57);"/>
                    </g>
                    <g transform="matrix(1,0,0,1.28571,-8.81073e-13,-2.14286)">
                        <rect x="9" y="4" width="3" height="7" style="fill:rgb(57,57,57);"/>
                    </g>
                </g>
            </g>
        </g>
    </g>
</svg>
