<?xml version="1.0" encoding="UTF-8" standalone="no"?>
<!DOCTYPE svg PUBLIC "-//W3C//DTD SVG 1.1//EN" "http://www.w3.org/Graphics/SVG/1.1/DTD/svg11.dtd">
<svg width="100%" height="100%" viewBox="0 0 15 15" version="1.1" xmlns="http://www.w3.org/2000/svg" xmlns:xlink="http://www.w3.org/1999/xlink" xml:space="preserve" xmlns:serif="http://www.serif.com/" style="fill-rule:evenodd;clip-rule:evenodd;stroke-linejoin:round;stroke-miterlimit:1.41421;">
    <g transform="matrix(1,0,0,1,-240,-165)">
        <g id="ObjectIcons_Time_nor" transform="matrix(1.07143,0,0,1.07557,-266.571,-67.7153)">
            <g>
                <g transform="matrix(0.933333,0,0,0.929739,435.467,193.121)">
                    <g id="Base-Block" serif:id="Base Block">
                        <path d="M55,27.1C55,25.941 54.059,25 52.9,25L42.1,25C40.941,25 40,25.941 40,27.1L40,37.9C40,39.059 40.941,40 42.1,40L52.9,40C54.059,40 55,39.059 55,37.9L55,27.1Z" style="fill-opacity:0;"/>
                    </g>
                </g>
                <g transform="matrix(0.933333,0,0,0.929739,379.467,118.742)">
                    <path d="M107.5,106C111.087,106 114,108.913 114,112.5C114,116.087 111.087,119 107.5,119C103.913,119 101,116.087 101,112.5C101,108.913 103.913,106 107.5,106ZM107.5,107C110.536,107 113,109.464 113,112.5C113,115.536 110.536,118 107.5,118C104.464,118 102,115.536 102,112.5C102,109.464 104.464,107 107.5,107Z" style="fill:rgb(196,196,196);"/>
                </g>
                <g transform="matrix(0.933333,0,0,0.929739,379.467,118.742)">
                    <path d="M107.5,107C110.536,107 113,109.464 113,112.5C113,115.536 110.536,118 107.5,118C104.464,118 102,115.536 102,112.5C102,109.464 104.464,107 107.5,107ZM108,112.413L108,109L107,109L107,113L109.67,115.208L110.329,114.457L108,112.413Z" style="fill:rgb(57,57,57);"/>
                </g>
                <g transform="matrix(0.933333,0,0,0.929739,379.467,118.742)">
                    <path d="M108,112.413L108,109L107,109L107,113L109.67,115.208L110.329,114.457L108,112.413Z" style="fill:rgb(196,196,196);"/>
                </g>
            </g>
        </g>
    </g>
</svg>
