<?xml version="1.0" encoding="UTF-8" standalone="no"?>
<!DOCTYPE svg PUBLIC "-//W3C//DTD SVG 1.1//EN" "http://www.w3.org/Graphics/SVG/1.1/DTD/svg11.dtd">
<svg width="100%" height="100%" viewBox="0 0 15 15" version="1.1" xmlns="http://www.w3.org/2000/svg" xmlns:xlink="http://www.w3.org/1999/xlink" xml:space="preserve" xmlns:serif="http://www.serif.com/" style="fill-rule:evenodd;clip-rule:evenodd;stroke-linejoin:round;stroke-miterlimit:1.41421;">
    <g transform="matrix(1,0,0,1,-300,-45)">
        <g transform="matrix(1,0,0,1,300,45)">
            <g id="ObjectIcons_ActionStop_nor">
                <g id="Icons">
                    <g transform="matrix(1,0,0,1,-40,-25)">
                        <g id="Object-Icon-Base" serif:id="Object Icon Base">
                            <path d="M55,27.1C55,25.941 54.059,25 52.9,25L42.1,25C40.941,25 40,25.941 40,27.1L40,37.9C40,39.059 40.941,40 42.1,40L52.9,40C54.059,40 55,39.059 55,37.9L55,27.1Z" style="fill-opacity:0;"/>
                        </g>
                    </g>
                    <path d="M11.02,2C12.117,2.004 13,2.89 13,3.98L13,11.02C13,12.113 12.113,13 11.02,13L3.98,13C2.887,13 2,12.113 2,11.02L2,3.98C2,2.89 2.883,2.004 3.98,2L11.02,2ZM12,3L3,3L3,12L12,12L12,3Z" style="fill:rgb(196,196,196);"/>
                    <g transform="matrix(1.28571,0,0,1.28571,-2.14286,-2.14286)">
                        <rect x="4" y="4" width="7" height="7" style="fill:rgb(57,57,57);"/>
                    </g>
                </g>
            </g>
        </g>
    </g>
</svg>
