<?xml version="1.0" encoding="UTF-8" standalone="no"?>
<!DOCTYPE svg PUBLIC "-//W3C//DTD SVG 1.1//EN" "http://www.w3.org/Graphics/SVG/1.1/DTD/svg11.dtd">
<svg width="100%" height="100%" viewBox="0 0 15 15" version="1.1" xmlns="http://www.w3.org/2000/svg" xmlns:xlink="http://www.w3.org/1999/xlink" xml:space="preserve" xmlns:serif="http://www.serif.com/" style="fill-rule:evenodd;clip-rule:evenodd;stroke-linejoin:round;stroke-miterlimit:1.41421;">
    <g transform="matrix(1,0,0,1,-340,-125)">
        <g transform="matrix(1,0,0,1,340,125)">
            <g id="ObjectIcons_MusicSegment_nor">
                <g id="Icons">
                    <g transform="matrix(1,0,0,1,-40,-25)">
                        <g id="Base-Block" serif:id="Base Block">
                            <path d="M55,27.1C55,25.941 54.059,25 52.9,25L42.1,25C40.941,25 40,25.941 40,27.1L40,37.9C40,39.059 40.941,40 42.1,40L52.9,40C54.059,40 55,39.059 55,37.9L55,27.1Z" style="fill-opacity:0;"/>
                        </g>
                    </g>
                    <path d="M12.18,14L2.82,14C1.816,14 1,13.184 1,12.18L1,8.82C1,8.301 1.218,7.832 1.57,7.5C1.218,7.168 1,6.699 1,6.18L1,2.82C1,1.817 1.812,1.003 2.82,1L12.18,1C13.188,1.003 14,1.817 14,2.82L14,6.18C14,6.699 13.782,7.168 13.43,7.5C13.782,7.832 14,8.301 14,8.82L14,12.18C14,13.181 13.19,13.995 12.18,14ZM11.95,13C12.535,12.994 13,12.526 13,11.95L13,3.05C13,2.472 12.532,2.002 11.95,2L3.05,2C2.468,2.002 2,2.472 2,3.05L2,11.95C2,12.53 2.47,13 3.05,13L11.95,13Z" style="fill:rgb(196,196,196);"/>
                    <g transform="matrix(3.66667,-6.10623e-16,-1.11022e-16,1.66667,-5.33333,-14.6667)">
                        <path d="M5,10.63C5,10.282 4.872,10 4.714,10L2.286,10C2.128,10 2,10.282 2,10.63L2,13L5,13L5,10.63Z" style="fill:rgb(57,57,57);"/>
                    </g>
                    <g transform="matrix(1,5.55112e-17,-5.55112e-17,1,-60,-65)">
                        <path d="M62.375,69.395L62.998,69.377L64,69L64.52,68.631L64.89,68.985L65.526,67.448L66.25,68.75L67,68L67.154,69L69,69L69.522,68.621L69.814,69.062L70.03,68.315L70.331,67.794L70.667,68.369L70.999,68.964L72.486,69.41L73,69.411L73,69.424L73.012,69.424L73.012,69.589L72.498,69.591L71.011,70.037L70.679,70.631L70.343,71.207L70.042,70.685L69.826,69.938L69.535,70.379L69.012,70L67.166,70L67.012,71L66.262,70.25L65.538,71.552L64.902,70.016L64.532,70.37L64.012,70L63.01,69.623L62.386,69.605L61.988,69.606L61.988,69.407L62,69.406L62,69.394L62.375,69.395Z" style="fill:rgb(149,149,149);"/>
                    </g>
                    <g transform="matrix(1,0,0,1,-60,-65)">
                        <rect x="63" y="72" width="9" height="1" style="fill:rgb(178,178,178);"/>
                    </g>
                    <path d="M13,4.589L13,7L2,7L2,4.606L2.386,4.605L3.01,4.623L4.012,5L4.532,5.37L4.902,5.016L5.538,6.552L6.262,5.25L7.012,6L7.166,5L9.012,5L9.535,5.379L9.826,4.938L10.042,5.685L10.343,6.207L10.679,5.631L11.011,5.037L12.498,4.591L13,4.589ZM11.95,2C12.531,2.002 13,2.472 13,3.05L13,4.424L13,4.411L12.486,4.41L10.999,3.964L10.667,3.369L10.331,2.794L10.03,3.315L9.814,4.062L9.522,3.621L9,4L7.154,4L7,3L6.25,3.75L5.526,2.448L4.89,3.985L4.52,3.631L4,4L2.998,4.377L2.375,4.395L2,4.394L2,3.05C2,2.472 2.469,2.002 3.05,2L11.95,2Z" style="fill:rgb(57,57,57);"/>
                    <g transform="matrix(1,0,0,1,-60,-65)">
                        <path d="M62.375,69.395L62.998,69.377L64,69L64.52,68.631L64.89,68.985L65.526,67.448L66.25,68.75L67,68L67.154,69L69,69L69.522,68.621L69.814,69.062L70.03,68.315L70.331,67.794L70.667,68.369L70.999,68.964L72.486,69.41L73,69.411L73,69.424L73.012,69.424L73.012,69.589L72.498,69.591L71.011,70.037L70.679,70.631L70.343,71.207L70.042,70.685L69.826,69.938L69.535,70.379L69.012,70L67.166,70L67.012,71L66.262,70.25L65.538,71.552L64.902,70.016L64.532,70.37L64.012,70L63.01,69.623L62.386,69.605L61.988,69.606L61.988,69.407L62,69.406L62,69.394L62.375,69.395Z" style="fill:rgb(196,196,196);"/>
                    </g>
                    <g transform="matrix(-1,-1.77976e-16,1.77976e-16,-1,15,15)">
                        <path d="M13,4.589L13,7L2,7L2,4.606L2.386,4.605L3.01,4.623L4.012,5L4.532,5.37L4.902,5.016L5.538,6.552L6.262,5.25L7.012,6L7.166,5L9.012,5L9.535,5.379L9.826,4.938L10.042,5.685L10.343,6.207L10.679,5.631L11.011,5.037L12.498,4.591L13,4.589ZM11.95,2C12.531,2.002 13,2.472 13,3.05L13,4.424L13,4.411L12.486,4.41L10.999,3.964L10.667,3.369L10.331,2.794L10.03,3.315L9.814,4.062L9.522,3.621L9,4L7.154,4L7,3L6.25,3.75L5.526,2.448L4.89,3.985L4.52,3.631L4,4L2.998,4.377L2.375,4.395L2,4.394L2,3.05C2,2.472 2.469,2.002 3.05,2L11.95,2Z" style="fill:rgb(57,57,57);"/>
                    </g>
                    <g transform="matrix(-1,-1.77976e-16,1.77976e-16,-1,75,80)">
                        <path d="M62.375,69.395L62.998,69.377L64,69L64.52,68.631L64.89,68.985L65.526,67.448L66.25,68.75L67,68L67.154,69L69,69L69.522,68.621L69.814,69.062L70.03,68.315L70.331,67.794L70.667,68.369L70.999,68.964L72.486,69.41L73,69.411L73,69.424L73.012,69.424L73.012,69.589L72.498,69.591L71.011,70.037L70.679,70.631L70.343,71.207L70.042,70.685L69.826,69.938L69.535,70.379L69.012,70L67.166,70L67.012,71L66.262,70.25L65.538,71.552L64.902,70.016L64.532,70.37L64.012,70L63.01,69.623L62.386,69.605L61.988,69.606L61.988,69.407L62,69.406L62,69.394L62.375,69.395Z" style="fill:rgb(196,196,196);"/>
                    </g>
                    <g transform="matrix(1,0,0,1,8,-1)">
                        <rect x="4" y="8" width="1" height="1" style="fill:rgb(178,178,178);"/>
                    </g>
                    <g transform="matrix(1,0,0,1,-2,-1)">
                        <rect x="4" y="8" width="1" height="1" style="fill:rgb(178,178,178);"/>
                    </g>
                </g>
            </g>
        </g>
    </g>
</svg>
