<?xml version="1.0" encoding="UTF-8" standalone="no"?>
<!DOCTYPE svg PUBLIC "-//W3C//DTD SVG 1.1//EN" "http://www.w3.org/Graphics/SVG/1.1/DTD/svg11.dtd">
<svg width="100%" height="100%" viewBox="0 0 15 15" version="1.1" xmlns="http://www.w3.org/2000/svg" xmlns:xlink="http://www.w3.org/1999/xlink" xml:space="preserve" xmlns:serif="http://www.serif.com/" style="fill-rule:evenodd;clip-rule:evenodd;stroke-linejoin:round;stroke-miterlimit:1.41421;">
    <g transform="matrix(1,0,0,1,-20,-285)">
        <g transform="matrix(1,0,0,1,20,285)">
            <g id="ObjectIcons_Attenuation_nor">
                <g id="Icons">
                    <g transform="matrix(1,0,0,1,-40,-25)">
                        <g id="Base-Block" serif:id="Base Block">
                            <path d="M55,27.1C55,25.941 54.059,25 52.9,25L42.1,25C40.941,25 40,25.941 40,27.1L40,37.9C40,39.059 40.941,40 42.1,40L52.9,40C54.059,40 55,39.059 55,37.9L55,27.1Z" style="fill-opacity:0;"/>
                        </g>
                    </g>
                    <path d="M7.5,1C11.087,1 14,3.913 14,7.5C14,11.087 11.087,14 7.5,14C3.913,14 1,11.087 1,7.5C1,3.913 3.913,1 7.5,1ZM7.5,13C4.467,13 2,10.533 2,7.5C2,4.467 4.467,2 7.5,2C10.533,2 13,4.467 13,7.5C13,10.533 10.533,13 7.5,13ZM7.5,2.733C4.872,2.733 2.733,4.872 2.733,7.5C2.733,10.128 4.872,12.267 7.5,12.267C10.128,12.267 12.267,10.128 12.267,7.5C12.267,4.872 10.128,2.733 7.5,2.733ZM7.5,11C5.571,11 4,9.43 4,7.5C4,5.57 5.571,4 7.5,4C9.429,4 11,5.57 11,7.5C11,9.43 9.429,11 7.5,11ZM7.5,4.933C6.084,4.933 4.933,6.084 4.933,7.5C4.933,8.916 6.084,10.067 7.5,10.067C8.916,10.067 10.067,8.916 10.067,7.5C10.067,6.084 8.916,4.933 7.5,4.933ZM9,7.5C9,8.328 8.328,9 7.5,9C6.672,9 6,8.328 6,7.5C6,6.672 6.672,6 7.5,6C8.328,6 9,6.672 9,7.5Z" style="fill:rgb(196,196,196);"/>
                    <g transform="matrix(0.977778,0,0,0.977778,7.5,12.2667)">
                        <path d="M0,-9.75C-2.688,-9.75 -4.875,-7.563 -4.875,-4.875C-4.875,-2.187 -2.688,0 0,0C2.688,0 4.875,-2.187 4.875,-4.875C4.875,-7.563 2.688,-9.75 0,-9.75M0,0.75C-3.102,0.75 -5.625,-1.773 -5.625,-4.875C-5.625,-7.977 -3.102,-10.5 0,-10.5C3.102,-10.5 5.625,-7.977 5.625,-4.875C5.625,-1.773 3.102,0.75 0,0.75" style="fill:rgb(57,57,57);"/>
                    </g>
                    <g transform="matrix(0.933333,0,0,0.933333,7.5,10.0667)">
                        <path d="M0,-5.5C-1.517,-5.5 -2.75,-4.267 -2.75,-2.75C-2.75,-1.233 -1.517,0 0,0C1.517,0 2.75,-1.233 2.75,-2.75C2.75,-4.267 1.517,-5.5 0,-5.5M0,1C-2.067,1 -3.75,-0.682 -3.75,-2.75C-3.75,-4.818 -2.067,-6.5 0,-6.5C2.067,-6.5 3.75,-4.818 3.75,-2.75C3.75,-0.682 2.067,1 0,1"/>
                    </g>
                    <g transform="matrix(0.833333,0,0,0.833333,9,7.5)">
                        <path d="M0,0C0,0.994 -0.806,1.8 -1.8,1.8C-2.794,1.8 -3.6,0.994 -3.6,0C-3.6,-0.994 -2.794,-1.8 -1.8,-1.8C-0.806,-1.8 0,-0.994 0,0"/>
                    </g>
                </g>
            </g>
        </g>
    </g>
</svg>
