<?xml version="1.0" encoding="UTF-8" standalone="no"?>
<!DOCTYPE svg PUBLIC "-//W3C//DTD SVG 1.1//EN" "http://www.w3.org/Graphics/SVG/1.1/DTD/svg11.dtd">
<svg width="100%" height="100%" viewBox="0 0 15 15" version="1.1" xmlns="http://www.w3.org/2000/svg" xmlns:xlink="http://www.w3.org/1999/xlink" xml:space="preserve" xmlns:serif="http://www.serif.com/" style="fill-rule:evenodd;clip-rule:evenodd;stroke-linejoin:round;stroke-miterlimit:1.41421;">
    <g transform="matrix(1,0,0,1,-100,-125)">
        <g transform="matrix(1,0,0,1,100,125)">
            <g id="ObjectIcons_SoundVoiceVirtual_nor">
                <g id="Icons">
                    <g transform="matrix(1,0,0,1,-40,-25)">
                        <g id="Base-Block" serif:id="Base Block">
                            <path d="M55,27.1C55,25.941 54.059,25 52.9,25L42.1,25C40.941,25 40,25.941 40,27.1L40,37.9C40,39.059 40.941,40 42.1,40L52.9,40C54.059,40 55,39.059 55,37.9L55,27.1Z" style="fill-opacity:0;"/>
                        </g>
                    </g>
                    <g transform="matrix(1,0,0,1,-200,-85)">
                        <path d="M207.357,85.005C207.807,85.025 208.632,85.653 208.662,86.434C208.708,87.636 208.162,88.036 208.162,88.036C208.162,88.036 208.298,88.101 208.512,88.385L209.985,90.61C210.275,91.102 210.426,92.985 209.576,93.006L208.259,93.012L208.492,94.008C208.653,94.589 207.528,94.904 207,95L204.609,95C204.608,95.763 205.058,96.001 207,96C207.577,96.092 207.956,96.38 208,97L208,98C208.013,98.782 206.809,99.988 206.008,100L203.942,100C202.719,99.832 200.019,99.184 200.019,98.227L200.019,93.196C199.979,92.123 200.014,87.508 200.014,87.508C199.998,85.97 201.388,85.026 202.662,85.005L207.357,85.005ZM203,86C201.542,86.026 200.986,86.527 201,88C201,88 200.972,92.172 201.004,93.101L201.004,98.101C202.005,98.527 203.007,98.854 204.004,99L206,99C206.445,98.842 206.784,98.615 207.004,98.101L207,97C204.154,97.002 203.52,96.428 203.524,94L207,94C207.431,93.917 207.419,93.791 207.289,93.287L206.644,92.105C206.621,92.037 206.649,92.002 206.728,92L208.88,92C209.172,91.992 209.241,91.34 209.004,90.913L207.644,88.922C207.469,88.676 207.175,88.752 206.984,88.66C206.902,88.62 206.816,88.191 206.892,87.928C206.967,87.664 207.293,87.473 207.325,87.452C207.595,87.273 207.671,86.994 207.655,86.537C207.674,86.161 207.3,85.964 207.163,86L203,86Z" style="fill:rgb(196,196,196);"/>
                    </g>
                    <g transform="matrix(1,0,0,1,-199.996,-83.899)">
                        <path d="M201,97C202.001,97.426 203.003,97.753 204,97.899L205.996,97.899C206.441,97.741 206.78,97.514 207,97L206.996,95.899C204.15,95.901 203.516,95.327 203.52,92.899L206.996,92.899C207.427,92.816 207.415,92.69 207.285,92.186L206.64,91.004C206.617,90.936 206.645,90.901 206.724,90.899L208.876,90.899C209.168,90.891 209.237,90.238 209,89.812L207.64,87.821C207.465,87.575 207.171,87.651 206.98,87.559C206.898,87.519 206.812,87.09 206.888,86.827C206.963,86.563 207.289,86.372 207.321,86.351C207.591,86.172 207.667,85.893 207.651,85.436C207.67,85.059 207.296,84.863 207.159,84.899L204.996,84.899L202.996,84.899C201.538,84.925 200.982,85.426 200.996,86.899C200.996,86.899 200.968,91.071 201,92L201,97Z" style="fill:rgb(108,108,108);"/>
                    </g>
                    <g transform="matrix(2.03829,0,0,1.83812,-135.165,-116.667)">
                        <path d="M71.147,71.631C70.992,71.604 70.851,71.53 70.745,71.322L69.294,67.959C69.271,67.887 69.258,67.81 69.258,67.733C69.259,67.453 69.361,67.284 69.721,67.279L70.746,67.279C70.939,67.316 71.089,67.426 71.181,67.592L71.451,68.309L71.718,67.586C71.804,67.409 72.017,67.28 72.203,67.279L73.181,67.279C73.457,67.278 73.651,67.412 73.669,67.712C73.673,67.767 73.669,67.821 73.659,67.874L72.164,71.362C72.088,71.483 71.907,71.608 71.755,71.631L71.147,71.631Z" style="fill:rgb(196,196,196);fill-rule:nonzero;"/>
                    </g>
                    <g transform="matrix(1.21837,0,0,1.18402,-76.5733,-71.2269)">
                        <path d="M71.052,72L68.823,66.933L70.188,66.933C70.188,66.933 71.327,69.968 71.467,69.973C71.585,69.978 72.691,66.933 72.691,66.933L73.973,66.933L71.853,72L71.052,72Z" style="fill-rule:nonzero;"/>
                    </g>
                    <g transform="matrix(1,0,0,1,-199.248,-84.0739)">
                        <path d="M205.234,86.433C205.236,86.271 205.163,86.143 204.941,86.084C203.696,86.17 202.868,86.779 202.042,87.739C201.195,88.723 201.248,90.074 201.248,90.074C201.341,90.215 201.27,90.202 201.452,90.051C201.627,89.58 202.066,88.853 202.779,88.332C203.565,87.757 204.304,87.524 205.027,87.499C205.17,87.52 205.253,87.474 205.246,87.329L205.234,86.433Z" style="fill:rgb(196,196,196);"/>
                    </g>
                    <g transform="matrix(1,0,0,1,-198,-84)">
                        <circle cx="203" cy="89" r="1" style="fill:rgb(196,196,196);"/>
                    </g>
                </g>
            </g>
        </g>
    </g>
</svg>
