<?xml version="1.0" encoding="UTF-8" standalone="no"?>
<!DOCTYPE svg PUBLIC "-//W3C//DTD SVG 1.1//EN" "http://www.w3.org/Graphics/SVG/1.1/DTD/svg11.dtd">
<svg width="100%" height="100%" viewBox="0 0 15 15" version="1.1" xmlns="http://www.w3.org/2000/svg" xmlns:xlink="http://www.w3.org/1999/xlink" xml:space="preserve" xmlns:serif="http://www.serif.com/" style="fill-rule:evenodd;clip-rule:evenodd;stroke-linejoin:round;stroke-miterlimit:1.41421;">
    <g transform="matrix(1,0,0,1,-100,-205)">
        <g transform="matrix(1,0,0,1,100,205)">
            <g id="ObjectIcons_Queries_nor">
                <g id="Icons">
                    <g transform="matrix(1,0,0,1,-40,-25)">
                        <g id="Base-Block" serif:id="Base Block">
                            <path d="M55,27.1C55,25.941 54.059,25 52.9,25L42.1,25C40.941,25 40,25.941 40,27.1L40,37.9C40,39.059 40.941,40 42.1,40L52.9,40C54.059,40 55,39.059 55,37.9L55,27.1Z" style="fill-opacity:0;"/>
                        </g>
                    </g>
                    <path d="M7.5,0.25L1,3.803L1,11.272L7.5,14.84L14,11.272L14,3.803L7.5,0.25ZM7.5,1.5L2,4.5L2,10.5L7.5,13.5L13,10.5L13,4.5L7.5,1.5Z" style="fill:rgb(196,196,196);"/>
                    <path d="M6.75,13.091L2,10.5L2,4.5L7.5,1.5L13,4.5L13,10.5L7.999,13.228C7.998,12.271 8.005,11.599 8.095,11.124C8.336,9.846 8.869,9.977 9.297,9.768C9.863,9.489 10.638,9.109 11,7.685C11.21,6.856 11.016,6.002 10.453,5.278C9.731,4.35 8.71,4 7.5,4C5.432,4 4,5.433 4,7.5L5.5,7.5C5.503,6.257 6.261,5.5 7.5,5.5C8.252,5.5 8.828,5.632 9.269,6.199C9.549,6.56 9.643,6.936 9.546,7.315C9.355,8.068 9.1,8.193 8.636,8.421C7.786,8.838 7.107,8.865 6.834,10.699C6.747,11.286 6.745,12.06 6.75,13.091Z" style="fill:rgb(57,57,57);"/>
                    <g transform="matrix(1,0,0,1,8.25,3.75)">
                        <path d="M-1.5,10.25C-1.5,8.748 -1.527,7.698 -1.416,6.949C-1.143,5.115 -0.464,5.088 0.386,4.671C0.85,4.443 1.105,4.318 1.296,3.565C1.393,3.186 1.299,2.81 1.019,2.449C0.578,1.882 0.002,1.75 -0.75,1.75C-1.991,1.75 -2.75,2.51 -2.75,3.75L-4.25,3.75C-4.25,1.683 -2.818,0.25 -0.75,0.25C0.46,0.25 1.481,0.6 2.203,1.528C2.766,2.252 2.96,3.106 2.75,3.935C2.388,5.359 1.613,5.739 1.047,6.018C0.619,6.227 0.086,6.096 -0.155,7.374C-0.268,7.968 -0.25,8.868 -0.25,10.25" style="fill:rgb(196,196,196);"/>
                    </g>
                </g>
            </g>
        </g>
    </g>
</svg>
