<?xml version="1.0" encoding="UTF-8" standalone="no"?>
<!DOCTYPE svg PUBLIC "-//W3C//DTD SVG 1.1//EN" "http://www.w3.org/Graphics/SVG/1.1/DTD/svg11.dtd">
<svg width="100%" height="100%" viewBox="0 0 15 15" version="1.1" xmlns="http://www.w3.org/2000/svg" xmlns:xlink="http://www.w3.org/1999/xlink" xml:space="preserve" xmlns:serif="http://www.serif.com/" style="fill-rule:evenodd;clip-rule:evenodd;stroke-linejoin:round;stroke-miterlimit:1.41421;">
    <g transform="matrix(1,0,0,1,-340,-305)">
        <g transform="matrix(1,0,0,1,340,305)">
            <g id="ObjectIcons_PropMultiOutputBus_nor">
                <g id="Icons">
                    <g transform="matrix(1,0,0,1,-40,-25)">
                        <g id="Base-Block" serif:id="Base Block">
                            <path d="M55,27.1C55,25.941 54.059,25 52.9,25L42.1,25C40.941,25 40,25.941 40,27.1L40,37.9C40,39.059 40.941,40 42.1,40L52.9,40C54.059,40 55,39.059 55,37.9L55,27.1Z" style="fill-opacity:0;"/>
                        </g>
                    </g>
                    <g transform="matrix(1.125,0,0,0.875,-357.25,-25.25)">
                        <rect x="322" y="30" width="8" height="8" style="fill:rgb(196,196,196);"/>
                    </g>
                    <g transform="matrix(1.16667,0,0,0.833333,-370.833,-26.3333)">
                        <rect x="323" y="34" width="6" height="6" style="fill:rgb(57,57,57);"/>
                    </g>
                    <g transform="matrix(1.125,0,0,0.875,-359.25,-23.25)">
                        <rect x="322" y="30" width="8" height="8" style="fill:rgb(196,196,196);"/>
                    </g>
                    <g transform="matrix(1.16667,0,0,0.833333,-372.833,-24.3333)">
                        <rect x="323" y="34" width="6" height="6" style="fill:rgb(57,57,57);"/>
                    </g>
                    <g transform="matrix(1.125,0,0,0.875,-361.25,-21.25)">
                        <rect x="322" y="30" width="8" height="8" style="fill:rgb(196,196,196);"/>
                    </g>
                    <g transform="matrix(1.16667,0,0,0.833333,-374.833,-22.3333)">
                        <rect x="323" y="34" width="6" height="6" style="fill:rgb(57,57,57);"/>
                    </g>
                    <g transform="matrix(1,0,0,1,-1,1.13687e-13)">
                        <g transform="matrix(1.57143,0,0,1.14286,-573.286,-54.7143)">
                            <path d="M375,55.54C375,54.69 374.498,54 373.88,54L369.12,54C368.502,54 368,54.69 368,55.54L368,59.46C368,60.31 368.502,61 369.12,61L373.88,61C374.498,61 375,60.31 375,59.46L375,55.54Z" style="fill:rgb(196,196,196);"/>
                        </g>
                        <g transform="matrix(0.863203,0,0,1.02225,-207.285,-278.448)">
                            <path d="M250.637,281.143L250.711,281.145L250.784,281.148L250.856,281.152L250.926,281.158L250.995,281.164L251.063,281.172L251.129,281.181L251.194,281.191L251.258,281.203L251.32,281.215L251.381,281.229L251.441,281.244L251.499,281.261L251.556,281.278L251.612,281.297L251.666,281.316L251.719,281.337L251.771,281.36L251.822,281.383L251.871,281.408L251.919,281.434L251.966,281.461L252.011,281.489L252.056,281.518L252.099,281.549L252.141,281.581L252.181,281.614L252.221,281.648L252.259,281.684L252.296,281.72L252.332,281.758L252.366,281.797L252.4,281.838L252.432,281.879L252.463,281.922L252.493,281.966L252.521,282.011L252.549,282.057L252.575,282.104L252.601,282.153L252.625,282.203L252.648,282.254L252.669,282.306L252.69,282.36L252.71,282.414L252.728,282.47L252.746,282.527L252.762,282.585L252.777,282.645L252.791,282.705L252.804,282.767L252.816,282.83L252.827,282.894L252.837,282.96L252.845,283.026L252.853,283.094L252.86,283.163L252.865,283.233L252.87,283.305L252.873,283.377L252.876,283.451L252.877,283.526L252.878,283.602L252.876,283.762L252.872,283.917L252.868,283.993L252.864,284.067L252.859,284.14L252.853,284.211L252.846,284.281L252.838,284.35L252.829,284.418L252.819,284.485L252.809,284.55L252.797,284.614L252.784,284.676L252.771,284.737L252.756,284.797L252.74,284.856L252.723,284.914L252.706,284.97L252.686,285.025L252.666,285.078L252.645,285.131L252.623,285.182L252.599,285.231L252.574,285.28L252.548,285.327L252.521,285.373L252.492,285.418L252.462,285.461L252.431,285.503L252.399,285.544L252.365,285.583L252.33,285.622L252.294,285.659L252.256,285.695L252.217,285.729L252.176,285.762L252.134,285.794L252.09,285.825L252.045,285.854L251.999,285.883L251.951,285.909L251.901,285.935L251.85,285.959L251.797,285.983L251.743,286.004L251.687,286.025L251.63,286.044L251.571,286.063L251.51,286.079L251.448,286.095L251.383,286.109L251.318,286.122L251.25,286.134L251.181,286.145L251.11,286.154L251.037,286.162L250.962,286.169L250.886,286.175L250.807,286.179L250.727,286.182L250.645,286.184L250.561,286.185L250.465,286.184L250.372,286.181L250.282,286.177L250.194,286.171L250.109,286.163L250.026,286.153L249.946,286.142L249.868,286.129L249.792,286.115L249.719,286.099L249.648,286.082L249.579,286.063L249.513,286.043L249.449,286.021L249.387,285.998L249.327,285.973L249.269,285.947L249.213,285.92L249.159,285.891L249.107,285.861L249.058,285.83L249.01,285.798L248.964,285.764L248.919,285.729L248.877,285.694L248.836,285.657L248.797,285.619L248.76,285.579L248.724,285.539L248.69,285.498L248.658,285.456L248.627,285.413L248.598,285.369L248.57,285.324L248.544,285.278L248.519,285.232L248.495,285.184L248.473,285.136L248.452,285.087L248.432,285.037L248.413,284.987L248.396,284.936L248.38,284.884L248.365,284.832L248.351,284.779L248.338,284.726L248.326,284.672L248.315,284.617L248.305,284.562L248.296,284.507L248.288,284.451L248.281,284.394L248.268,284.281L248.259,284.166L248.252,284.05L248.247,283.933L248.245,283.816L248.244,283.698L248.245,283.616L248.246,283.535L248.249,283.456L248.252,283.378L248.257,283.301L248.262,283.226L248.269,283.153L248.277,283.081L248.285,283.01L248.295,282.94L248.306,282.872L248.318,282.806L248.331,282.74L248.345,282.677L248.36,282.614L248.377,282.553L248.394,282.493L248.412,282.435L248.432,282.378L248.453,282.322L248.474,282.268L248.497,282.215L248.522,282.163L248.547,282.113L248.573,282.064L248.601,282.016L248.629,281.969L248.659,281.924L248.69,281.881L248.722,281.838L248.756,281.797L248.79,281.757L248.826,281.719L248.863,281.682L248.901,281.646L248.941,281.611L248.981,281.578L249.023,281.545L249.066,281.515L249.111,281.485L249.156,281.457L249.203,281.43L249.251,281.404L249.3,281.379L249.351,281.356L249.403,281.334L249.456,281.313L249.51,281.293L249.566,281.275L249.623,281.258L249.681,281.242L249.741,281.227L249.802,281.213L249.864,281.201L249.928,281.19L249.993,281.18L250.059,281.171L250.127,281.163L250.196,281.157L250.266,281.152L250.338,281.148L250.411,281.145L250.485,281.143L250.561,281.143L250.637,281.143ZM250.507,282.122L250.455,282.124L250.405,282.127L250.356,282.131L250.309,282.136L250.263,282.143L250.219,282.151L250.177,282.159L250.136,282.169L250.096,282.18L250.058,282.191L250.021,282.204L249.986,282.218L249.952,282.232L249.92,282.248L249.888,282.264L249.858,282.281L249.83,282.299L249.802,282.318L249.776,282.338L249.751,282.358L249.727,282.379L249.704,282.401L249.682,282.424L249.662,282.447L249.642,282.471L249.624,282.495L249.606,282.52L249.589,282.546L249.574,282.572L249.559,282.599L249.545,282.627L249.532,282.654L249.52,282.683L249.508,282.712L249.497,282.741L249.478,282.8L249.462,282.861L249.448,282.924L249.437,282.987L249.427,283.051L249.42,283.117L249.414,283.182L249.41,283.248L249.407,283.314L249.405,283.381L249.403,283.512L249.403,283.642L249.403,283.803L249.406,283.96L249.408,284.036L249.412,284.111L249.417,284.184L249.423,284.256L249.431,284.325L249.442,284.393L249.454,284.459L249.468,284.522L249.486,284.584L249.495,284.614L249.505,284.643L249.516,284.672L249.528,284.7L249.541,284.727L249.554,284.754L249.568,284.781L249.583,284.806L249.599,284.831L249.616,284.855L249.634,284.879L249.653,284.901L249.673,284.924L249.693,284.945L249.715,284.966L249.738,284.985L249.762,285.005L249.787,285.023L249.813,285.04L249.841,285.057L249.869,285.073L249.899,285.088L249.93,285.102L249.962,285.116L249.996,285.128L250.031,285.14L250.067,285.151L250.104,285.16L250.143,285.169L250.184,285.177L250.226,285.184L250.269,285.19L250.314,285.196L250.36,285.2L250.408,285.203L250.457,285.205L250.508,285.206L250.561,285.206L250.614,285.205L250.665,285.203L250.714,285.2L250.762,285.195L250.808,285.189L250.853,285.181L250.896,285.173L250.938,285.163L250.979,285.153L251.018,285.141L251.055,285.128L251.091,285.115L251.126,285.1L251.16,285.084L251.192,285.067L251.223,285.05L251.253,285.031L251.281,285.012L251.309,284.992L251.335,284.971L251.36,284.949L251.384,284.926L251.407,284.903L251.429,284.879L251.449,284.854L251.469,284.829L251.488,284.803L251.506,284.777L251.523,284.75L251.539,284.722L251.554,284.694L251.568,284.665L251.581,284.636L251.594,284.607L251.617,284.547L251.636,284.486L251.654,284.423L251.668,284.36L251.68,284.295L251.691,284.231L251.699,284.166L251.705,284.101L251.71,284.036L251.714,283.971L251.716,283.907L251.719,283.782L251.719,283.662L251.719,283.541L251.717,283.416L251.715,283.352L251.712,283.287L251.708,283.222L251.702,283.157L251.694,283.091L251.685,283.026L251.673,282.962L251.659,282.898L251.642,282.836L251.623,282.774L251.612,282.744L251.601,282.714L251.589,282.684L251.575,282.655L251.561,282.627L251.547,282.599L251.531,282.571L251.514,282.544L251.497,282.517L251.478,282.492L251.458,282.466L251.438,282.442L251.416,282.418L251.393,282.395L251.369,282.372L251.344,282.351L251.318,282.33L251.29,282.31L251.262,282.29L251.232,282.272L251.2,282.255L251.168,282.238L251.134,282.223L251.099,282.208L251.062,282.194L251.024,282.182L250.985,282.171L250.944,282.16L250.902,282.151L250.858,282.143L250.812,282.136L250.765,282.131L250.717,282.126L250.666,282.123L250.615,282.121L250.561,282.121L250.507,282.122Z" style="fill:rgb(34,34,34);"/>
                            <path d="M250.561,286.185C248.493,286.185 248.244,284.956 248.244,283.698C248.244,281.93 248.929,281.143 250.561,281.143C252.193,281.143 252.878,281.965 252.878,283.602C252.878,285.337 252.373,286.185 250.561,286.185ZM250.561,282.121C249.396,282.125 249.403,282.959 249.403,283.642C249.403,284.514 249.421,285.214 250.561,285.206C251.701,285.199 251.719,284.287 251.719,283.662C251.719,283.037 251.722,282.117 250.561,282.121Z" style="fill:rgb(57,57,57);fill-rule:nonzero;"/>
                        </g>
                        <g transform="matrix(0.844568,1.26883e-14,0,1.05718,-202.236,-288.354)">
                            <path d="M256.079,281.271L256.126,281.272L256.171,281.274L256.215,281.276L256.258,281.28L256.3,281.284L256.34,281.289L256.379,281.294L256.417,281.301L256.454,281.308L256.49,281.315L256.524,281.324L256.558,281.333L256.59,281.343L256.621,281.353L256.652,281.365L256.681,281.377L256.709,281.389L256.736,281.403L256.762,281.417L256.788,281.432L256.812,281.447L256.835,281.463L256.858,281.48L256.879,281.498L256.9,281.516L256.92,281.535L256.939,281.554L256.957,281.574L256.974,281.595L256.991,281.617L257.007,281.639L257.022,281.662L257.036,281.686L257.05,281.71L257.062,281.735L257.075,281.76L257.086,281.786L257.108,281.84L257.126,281.897L257.143,281.956L257.157,282.018L257.17,282.082L257.18,282.149L257.189,282.218L257.197,282.289L257.203,282.363L257.207,282.439L257.211,282.518L257.213,282.599L257.215,282.682L257.215,282.713L257.213,282.744L257.209,282.774L257.203,282.803L257.196,282.832L257.188,282.861L257.178,282.889L257.167,282.916L257.154,282.943L257.14,282.969L257.125,282.995L257.109,283.02L257.091,283.044L257.073,283.068L257.053,283.092L257.033,283.115L257.011,283.137L256.989,283.159L256.966,283.18L256.943,283.201L256.918,283.222L256.893,283.241L256.842,283.279L256.788,283.315L256.733,283.349L256.678,283.381L256.621,283.411L256.565,283.439L256.509,283.465L256.454,283.489L256.401,283.511L256.349,283.531L256.299,283.55L256.252,283.566L256.208,283.581L256.131,283.605L256.071,283.622L256.019,283.635L256.053,283.639L256.088,283.645L256.127,283.652L256.167,283.661L256.21,283.671L256.255,283.682L256.301,283.695L256.348,283.709L256.397,283.725L256.446,283.742L256.496,283.761L256.546,283.782L256.596,283.804L256.645,283.828L256.695,283.853L256.743,283.881L256.791,283.91L256.837,283.941L256.882,283.974L256.925,284.009L256.967,284.046L257.006,284.084L257.024,284.104L257.042,284.125L257.059,284.146L257.076,284.168L257.091,284.19L257.106,284.213L257.12,284.236L257.134,284.26L257.146,284.284L257.157,284.309L257.168,284.334L257.177,284.36L257.186,284.387L257.194,284.414L257.2,284.442L257.205,284.47L257.21,284.499L257.213,284.528L257.214,284.558L257.215,284.588L257.215,284.743L257.214,284.89L257.212,284.961L257.209,285.031L257.205,285.098L257.2,285.163L257.192,285.227L257.183,285.288L257.172,285.347L257.158,285.404L257.142,285.459L257.133,285.486L257.123,285.512L257.112,285.537L257.101,285.562L257.089,285.586L257.075,285.609L257.061,285.632L257.046,285.655L257.03,285.676L257.014,285.697L256.996,285.718L256.977,285.737L256.957,285.756L256.936,285.775L256.914,285.793L256.89,285.81L256.866,285.826L256.84,285.842L256.813,285.857L256.785,285.871L256.756,285.885L256.725,285.898L256.693,285.91L256.659,285.921L256.625,285.932L256.588,285.942L256.55,285.951L256.511,285.959L256.471,285.967L256.428,285.974L256.384,285.98L256.339,285.985L256.292,285.99L256.243,285.993L256.193,285.996L256.141,285.998L256.087,286L256.031,286L253.663,286L253.663,281.27L256.031,281.27L256.079,281.271ZM254.847,285.054L254.955,285.053L255.057,285.051L255.152,285.048L255.241,285.043L255.323,285.038L255.399,285.032L255.47,285.025L255.535,285.017L255.595,285.008L255.65,284.999L255.7,284.988L255.746,284.977L255.787,284.965L255.824,284.952L255.857,284.938L255.886,284.923L255.912,284.908L255.934,284.892L255.954,284.875L255.97,284.857L255.984,284.839L255.996,284.82L256.005,284.801L256.013,284.781L256.019,284.76L256.023,284.739L256.026,284.717L256.029,284.694L256.03,284.648L256.031,284.599L256.031,284.549L256.03,284.499L256.028,284.476L256.024,284.452L256.02,284.43L256.014,284.407L256.007,284.386L255.997,284.365L255.985,284.345L255.971,284.325L255.954,284.306L255.935,284.288L255.912,284.27L255.886,284.253L255.857,284.237L255.823,284.222L255.786,284.208L255.745,284.194L255.7,284.181L255.649,284.17L255.594,284.159L255.534,284.149L255.469,284.14L255.398,284.132L255.322,284.126L255.24,284.12L255.151,284.115L255.056,284.112L254.955,284.109L254.847,284.108L254.847,285.054ZM254.847,283.162L254.953,283.162L255.052,283.159L255.146,283.156L255.233,283.15L255.314,283.144L255.39,283.136L255.46,283.127L255.525,283.116L255.585,283.105L255.64,283.092L255.691,283.079L255.737,283.065L255.778,283.05L255.816,283.034L255.85,283.017L255.881,283L255.907,282.983L255.931,282.965L255.952,282.947L255.97,282.928L255.985,282.91L255.997,282.891L256.008,282.872L256.017,282.854L256.023,282.835L256.028,282.817L256.032,282.799L256.035,282.781L256.037,282.748L256.037,282.716L256.035,282.68L256.032,282.641L256.03,282.621L256.026,282.601L256.021,282.58L256.014,282.56L256.006,282.539L255.996,282.518L255.983,282.498L255.968,282.477L255.951,282.457L255.931,282.437L255.908,282.418L255.882,282.399L255.852,282.38L255.818,282.362L255.781,282.345L255.74,282.328L255.694,282.312L255.644,282.298L255.589,282.284L255.529,282.271L255.464,282.259L255.394,282.249L255.318,282.24L255.236,282.232L255.148,282.226L255.054,282.221L254.954,282.218L254.847,282.216L254.847,283.162Z" style="fill:rgb(34,34,34);"/>
                            <path d="M253.663,286L253.663,281.27L256.031,281.27C257.068,281.27 257.2,281.783 257.215,282.682C257.226,283.355 256.019,283.635 256.019,283.635C256.356,283.677 257.215,283.931 257.215,284.588C257.215,285.429 257.237,286 256.031,286L253.663,286ZM254.847,282.216L254.847,283.162C256.012,283.165 256.041,282.876 256.037,282.716C256.031,282.528 256.025,282.224 254.847,282.216ZM254.847,284.108L254.847,285.054C256.041,285.047 256.029,284.864 256.031,284.599C256.033,284.324 256.037,284.115 254.847,284.108Z" style="fill:rgb(57,57,57);fill-rule:nonzero;"/>
                        </g>
                    </g>
                </g>
            </g>
        </g>
    </g>
</svg>
