<?xml version="1.0" encoding="UTF-8" standalone="no"?>
<!DOCTYPE svg PUBLIC "-//W3C//DTD SVG 1.1//EN" "http://www.w3.org/Graphics/SVG/1.1/DTD/svg11.dtd">
<svg width="100%" height="100%" viewBox="0 0 15 15" version="1.1" xmlns="http://www.w3.org/2000/svg" xmlns:xlink="http://www.w3.org/1999/xlink" xml:space="preserve" xmlns:serif="http://www.serif.com/" style="fill-rule:evenodd;clip-rule:evenodd;stroke-linejoin:round;stroke-miterlimit:1.41421;">
    <g transform="matrix(1,0,0,1,-301,-85)">
        <g transform="matrix(1,0,0,1,301,85)">
            <g id="ObjectIcons_ToneGenerator_nor">
                <g id="Icons">
                    <g transform="matrix(1,0,0,1,-40,-25)">
                        <g id="Base-Block" serif:id="Base Block">
                            <path d="M55,27.1C55,25.941 54.059,25 52.9,25L42.1,25C40.941,25 40,25.941 40,27.1L40,37.9C40,39.059 40.941,40 42.1,40L52.9,40C54.059,40 55,39.059 55,37.9L55,27.1Z" style="fill-opacity:0;"/>
                        </g>
                    </g>
                    <g transform="matrix(1.36364,0,0,3,-2.72727,-15.0969)">
                        <path d="M13,7.36C13,7.161 12.645,7 12.208,7L2.792,7C2.355,7 2,7.161 2,7.36L2,7.64C2,7.839 2.355,8 2.792,8L12.208,8C12.645,8 13,7.839 13,7.64L13,7.36Z" style="fill:rgb(196,196,196);"/>
                    </g>
                    <g transform="matrix(-1.84237,1.14603e-16,-4.78416e-16,-3,238.808,159)">
                        <rect x="122" y="51" width="2" height="1" style="fill:rgb(196,196,196);"/>
                    </g>
                    <g transform="matrix(-0.811106,-2.33735e-16,-3.55533e-16,-1.99658,111.994,107.822)">
                        <rect x="122" y="51" width="2" height="1" style="fill:rgb(57,57,57);"/>
                    </g>
                    <g transform="matrix(1.18182,0,0,1,-1.36364,0)">
                        <rect x="2" y="7" width="11" height="1" style="fill:rgb(57,57,57);"/>
                    </g>
                    <g transform="matrix(1,0,0,1,11.4355,6.90262)">
                        <path d="M-1.015,1C-1.331,2.543 -1.466,2.88 -1.466,2.88C-1.466,2.88 -1.803,2.03 -2.142,0.624C-2.197,0.392 -2.377,-0.322 -2.43,-0.54C-2.908,-2.529 -3.721,-6.248 -6.421,-6.248C-9.209,-6.248 -9.909,-2.649 -10.435,0L-6.88,0C-6.563,-1.544 -6.404,-1.901 -6.404,-1.901C-6.404,-1.901 -6.082,-1.041 -5.706,0.519C-5.65,0.751 -5.47,1.571 -5.418,1.789C-4.499,5.604 -3.319,7.235 -1.376,7.235C1.202,7.235 2.044,3.741 2.525,1L-1.015,1Z" style="fill:rgb(196,196,196);"/>
                    </g>
                    <g transform="matrix(1,0,0,1,11.4355,6.90262)">
                        <path d="M0,1C-0.316,2.543 -0.836,4.75 -1.436,4.75C-1.698,4.75 -2.257,4.251 -3.063,0.907C-3.118,0.675 -3.167,0.471 -3.21,0.308C-3.251,0.154 -3.298,-0.039 -3.351,-0.257C-3.829,-2.246 -4.552,-5.25 -6.436,-5.25C-8.272,-5.25 -8.876,-2.649 -9.402,0L-7.872,0C-7.555,-1.544 -7.035,-3.75 -6.436,-3.75C-6.173,-3.75 -5.614,-3.25 -4.809,0.094C-4.753,0.326 -4.704,0.53 -4.661,0.693C-4.62,0.847 -4.573,1.04 -4.521,1.258C-4.042,3.247 -3.319,6.25 -1.436,6.25C0.401,6.25 1.005,3.65 1.531,1L0,1Z"/>
                    </g>
                    <g transform="matrix(1,0,0,1,-120,-45)">
                        <rect x="122" y="51" width="2" height="1" style="fill:rgb(196,196,196);fill-opacity:0.75;"/>
                    </g>
                    <g transform="matrix(1.84237,0,0,3,-223.769,-144)">
                        <rect x="122" y="51" width="2" height="1" style="fill:rgb(196,196,196);"/>
                    </g>
                    <g transform="matrix(0.811106,5.55112e-17,-1.66533e-16,1.99658,-96.9549,-92.8256)">
                        <rect x="122" y="51" width="2" height="1" style="fill:rgb(57,57,57);"/>
                    </g>
                    <g transform="matrix(1,0,0,1,-111,-43)">
                        <rect x="122" y="51" width="2" height="1" style="fill:rgb(196,196,196);fill-opacity:0.75;"/>
                    </g>
                </g>
            </g>
        </g>
    </g>
</svg>
