<?xml version="1.0" encoding="UTF-8" standalone="no"?>
<!DOCTYPE svg PUBLIC "-//W3C//DTD SVG 1.1//EN" "http://www.w3.org/Graphics/SVG/1.1/DTD/svg11.dtd">
<svg width="100%" height="100%" viewBox="0 0 15 15" version="1.1" xmlns="http://www.w3.org/2000/svg" xmlns:xlink="http://www.w3.org/1999/xlink" xml:space="preserve" xmlns:serif="http://www.serif.com/" style="fill-rule:evenodd;clip-rule:evenodd;stroke-linejoin:round;stroke-miterlimit:1.41421;">
    <g transform="matrix(1,0,0,1,-220,-85)">
        <g transform="matrix(1,0,0,1,220,85.0671)">
            <g id="ObjectIcons_AudioFile_nor">
                <g id="Icons">
                    <g transform="matrix(1,0,0,1,-40,-25.0671)">
                        <g id="Base-Block" serif:id="Base Block">
                            <path d="M55,27.1C55,25.941 54.059,25 52.9,25L42.1,25C40.941,25 40,25.941 40,27.1L40,37.9C40,39.059 40.941,40 42.1,40L52.9,40C54.059,40 55,39.059 55,37.9L55,27.1Z" style="fill-opacity:0;"/>
                        </g>
                    </g>
                    <g transform="matrix(1,0,0,0.994835,0,0.0051652)">
                        <path d="M2.92,10L2.08,10C1.484,10 1,9.514 1,8.914L1,6.086C1,5.487 1.483,5.001 2.08,5L2.92,5C3.49,5.001 3.956,5.444 3.996,6.004L4.08,6L4.92,6L5,6.004L5,4.086C5,3.487 5.483,3.001 6.08,3L6.92,3L7,3.004L7,2.086C7,1.487 7.483,1.001 8.08,1L8.92,1C9.49,1.001 9.956,1.444 9.996,2.004L10.08,2L10.92,2C11.517,2.001 12,2.487 12,3.086L12,5.004L12.08,5L12.92,5C13.517,5.001 14,5.487 14,6.086L14,8.914C14,9.512 13.518,9.998 12.92,10L12.08,10C11.511,10 11.045,9.557 11.004,8.996L10.92,9L10.08,9L10,8.996L10,10.914C10,11.512 9.518,11.998 8.92,12L8.08,12L8,11.996L8,12.914C8,13.513 7.516,14 6.92,14L6.08,14C5.511,14 5.045,13.557 5.004,12.996L4.92,13L4.08,13C3.484,13 3,12.514 3,11.914L3,9.996L2.92,10ZM7,13L7,4L6,4L6,13L7,13ZM5,12L5,7L4,7L4,12L5,12ZM9,11L9,2L8,2L8,11L9,11ZM3,9L3,6L2,6L2,9L3,9ZM13,9L13,6L12,6L12,9L13,9ZM11,8L11,3L10,3L10,8L11,8Z" style="fill:rgb(196,196,196);"/>
                    </g>
                    <g transform="matrix(-1,-0,-0,1,5,0)">
                        <rect x="2" y="6" width="1" height="3"/>
                    </g>
                    <g transform="matrix(-1,-0,-0,1,25,0)">
                        <rect x="12" y="6" width="1" height="3"/>
                    </g>
                    <g transform="matrix(-1,-0,-0,1,9,4)">
                        <rect x="4" y="3" width="1" height="5"/>
                    </g>
                    <g transform="matrix(-1,-0,-0,1,13,2)">
                        <rect x="6" y="2" width="1" height="9"/>
                    </g>
                    <g transform="matrix(-1,-0,-0,1,17,-2)">
                        <rect x="8" y="4" width="1" height="9"/>
                    </g>
                    <g transform="matrix(-1,-0,-0,1,21,-4)">
                        <rect x="10" y="7" width="1" height="5"/>
                    </g>
                </g>
            </g>
        </g>
    </g>
</svg>
