<?xml version="1.0" encoding="UTF-8" standalone="no"?>
<!DOCTYPE svg PUBLIC "-//W3C//DTD SVG 1.1//EN" "http://www.w3.org/Graphics/SVG/1.1/DTD/svg11.dtd">
<svg width="100%" height="100%" viewBox="0 0 15 15" version="1.1" xmlns="http://www.w3.org/2000/svg" xmlns:xlink="http://www.w3.org/1999/xlink" xml:space="preserve" xmlns:serif="http://www.serif.com/" style="fill-rule:evenodd;clip-rule:evenodd;stroke-linejoin:round;stroke-miterlimit:1.41421;">
    <g transform="matrix(1,0,0,1,-20,-205)">
        <g transform="matrix(1,0,0,1,20,205)">
            <g id="ObjectIcons_MixingSession_nor">
                <g id="Icons">
                    <g transform="matrix(1,0,0,1,-40,-25)">
                        <g id="Base-Block" serif:id="Base Block">
                            <path d="M55,27.1C55,25.941 54.059,25 52.9,25L42.1,25C40.941,25 40,25.941 40,27.1L40,37.9C40,39.059 40.941,40 42.1,40L52.9,40C54.059,40 55,39.059 55,37.9L55,27.1Z" style="fill-opacity:0;"/>
                        </g>
                    </g>
                    <path d="M2,7.081L2,2.5C2,1.672 2.672,1 3.5,1C4.328,1 5,1.672 5,2.5L5,7.081C5.581,7.279 6,7.831 6,8.48L6,9.52C6,10.169 5.581,10.721 5,10.919L5,12.5C5,13.328 4.328,14 3.5,14C2.672,14 2,13.328 2,12.5L2,10.919C1.419,10.721 1,10.169 1,9.52L1,8.48C1,7.831 1.419,7.279 2,7.081ZM4,8L4,7L4,2L3,2L3,8L2,8L2,10L3,10L3,13L4,13L4,11.052L4,10L5,10L5,8L4,8Z" style="fill:rgb(196,196,196);"/>
                    <path d="M6,3.093L6,2.5C6,1.672 6.672,1 7.5,1C8.328,1 9,1.672 9,2.5L9,3.093C9.583,3.304 10,3.864 10,4.52L10,5.48C10,6.136 9.583,6.696 9,6.907L9,12.5C9,13.328 8.328,14 7.5,14C6.672,14 6,13.328 6,12.5L6,6.907C5.417,6.696 5,6.136 5,5.48L5,4.52C5,3.864 5.417,3.304 6,3.093ZM8,13L8,7.016L8,6L9,6L9,4L8,4L8,3L8,2L7,2L7,4L6,4L6,6L7,6L7,13L8,13Z" style="fill:rgb(196,196,196);"/>
                    <path d="M10,7.093L10,2.5C10,1.672 10.672,1 11.5,1C12.328,1 13,1.672 13,2.5L13,7.093C13.583,7.304 14,7.864 14,8.52L14,9.48C14,10.136 13.583,10.696 13,10.907L13,12.5C13,13.328 12.328,14 11.5,14C10.672,14 10,13.328 10,12.5L10,10.907C9.417,10.696 9,10.136 9,9.48L9,8.52C9,7.864 9.417,7.304 10,7.093ZM13,8L12,8L12,6.989L12,2L11,2L11,8L10,8L10,10L11,10L11,13L12,13L12,11L12,10L13,10L13,8Z" style="fill:rgb(196,196,196);"/>
                    <g transform="matrix(-1,-0,0,0.555556,23,0.333333)">
                        <rect x="11" y="3" width="1" height="9" style="fill:rgb(57,57,57);"/>
                    </g>
                    <g transform="matrix(-1,0,0,0.222222,23,10.3333)">
                        <rect x="11" y="3" width="1" height="9" style="fill:rgb(57,57,57);"/>
                    </g>
                    <g transform="matrix(-1,0,0,0.111111,19,1.66667)">
                        <rect x="11" y="3" width="1" height="9"/>
                    </g>
                    <g transform="matrix(-1,0,0,0.666667,19,5)">
                        <rect x="11" y="3" width="1" height="9"/>
                    </g>
                    <g transform="matrix(-1,-0,0,1,7,3)">
                        <rect x="2" y="5" width="3" height="1"/>
                    </g>
                    <g transform="matrix(-1,-0,0,1,7,5)">
                        <rect x="2" y="4" width="3" height="1" style="fill:rgb(108,108,108);"/>
                    </g>
                    <g transform="matrix(-1,-0,0,1,15,-6)">
                        <rect x="6" y="10" width="3" height="1"/>
                    </g>
                    <g transform="matrix(-1,-0,0,1,15,-4)">
                        <rect x="6" y="9" width="3" height="1" style="fill:rgb(108,108,108);"/>
                    </g>
                    <g transform="matrix(-1,-0,0,1,23,3)">
                        <rect x="10" y="5" width="3" height="1"/>
                    </g>
                    <g transform="matrix(-0.333333,0,0,1,15.3333,2)">
                        <rect x="10" y="5" width="3" height="1" style="fill:rgb(160,160,160);"/>
                    </g>
                    <g transform="matrix(-0.333333,0,0,1,15.3333,5)">
                        <rect x="10" y="5" width="3" height="1" style="fill:rgb(160,160,160);"/>
                    </g>
                    <g transform="matrix(-0.333333,0,0,1,11.3333,-2)">
                        <rect x="10" y="5" width="3" height="1" style="fill:rgb(160,160,160);"/>
                    </g>
                    <g transform="matrix(-0.333333,0,0,1,11.3333,1)">
                        <rect x="10" y="5" width="3" height="1" style="fill:rgb(160,160,160);"/>
                    </g>
                    <g transform="matrix(-1,0,0,0.555556,15,0.333333)">
                        <rect x="11" y="3" width="1" height="9" style="fill:rgb(57,57,57);"/>
                    </g>
                    <g transform="matrix(-1,0,0,0.222222,15,10.3333)">
                        <rect x="11" y="3" width="1" height="9" style="fill:rgb(57,57,57);"/>
                    </g>
                    <g transform="matrix(-0.333333,0,0,1,7.33333,2)">
                        <rect x="10" y="5" width="3" height="1" style="fill:rgb(160,160,160);"/>
                    </g>
                    <g transform="matrix(-0.333333,0,0,1,7.33333,5)">
                        <rect x="10" y="5" width="3" height="1" style="fill:rgb(160,160,160);"/>
                    </g>
                    <g transform="matrix(-1,-0,0,1,23,5)">
                        <rect x="10" y="4" width="3" height="1" style="fill:rgb(108,108,108);"/>
                    </g>
                </g>
            </g>
        </g>
    </g>
</svg>
