<?xml version="1.0" encoding="UTF-8" standalone="no"?>
<!DOCTYPE svg PUBLIC "-//W3C//DTD SVG 1.1//EN" "http://www.w3.org/Graphics/SVG/1.1/DTD/svg11.dtd">
<svg width="100%" height="100%" viewBox="0 0 15 15" version="1.1" xmlns="http://www.w3.org/2000/svg" xmlns:xlink="http://www.w3.org/1999/xlink" xml:space="preserve" xmlns:serif="http://www.serif.com/" style="fill-rule:evenodd;clip-rule:evenodd;stroke-linejoin:round;stroke-miterlimit:1.41421;">
    <g transform="matrix(1,0,0,1,-260,-285)">
        <g id="ObjectIcons_API_nor" transform="matrix(32.0741,0,0,25.9565,-437,-10)">
            <g transform="matrix(0.0311778,0,0,0.038526,20.4838,10.402)">
                <g id="Object-Icon-Base" serif:id="Object Icon Base">
                    <path d="M55,27.1C55,25.941 54.059,25 52.9,25L42.1,25C40.941,25 40,25.941 40,27.1L40,37.9C40,39.059 40.941,40 42.1,40L52.9,40C54.059,40 55,39.059 55,37.9L55,27.1Z" style="fill-opacity:0;"/>
                </g>
            </g>
            <g transform="matrix(0.043649,0,0,0.0440297,21.6873,11.3431)">
                <path d="M5.856,8.759C5.946,9.058 6.008,9.355 6,9.647L6,10.124C5.978,10.655 5.754,10.937 5.351,11L4.603,11C4.321,11.004 4.065,10.772 3.843,10.17L3.632,9.25L3.395,9.25L3.145,10.214C3.004,10.71 2.743,10.976 2.356,11L1.714,11C1.281,10.966 1.024,10.7 1,10.125L1,9.581C0.999,9.388 1.058,9.092 1.163,8.717L2.424,4.602C2.59,4.226 2.822,4.03 3.114,4L3.93,4C4.236,4.043 4.45,4.223 4.561,4.559C4.88,5.596 5.558,7.796 5.856,8.759ZM4.027,7.5L3.5,6.003L2.973,7.5L4.027,7.5Z" style="fill:rgb(196,196,196);fill-rule:nonzero;"/>
            </g>
            <g transform="matrix(0.0467667,0,0,0.051368,21.5906,11.2624)">
                <path d="M7.648,11C7.242,10.991 7.028,10.713 7,10.175L7,5.767C7.017,5.272 7.248,5.023 7.674,5L9,5C10.506,5 11,5.808 11,7.354C11,8.9 10.516,9.5 9,9.5L9,10.229C8.971,10.67 8.793,10.951 8.394,11L7.648,11Z" style="fill:rgb(196,196,196);fill-rule:nonzero;"/>
            </g>
            <g transform="matrix(0.0311778,0,0,0.038526,21.7309,11.3652)">
                <path d="M7,11L7,5L9,5C10.506,5 11,5.454 11,7C11,8.546 10.516,9 9,9L8,9L8,11L7,11ZM8,6L8,8L9,8C9.462,8 10,8.029 10,7C10,5.971 9.423,6 9,6L8,6Z" style="fill:rgb(57,57,57);fill-rule:nonzero;"/>
            </g>
            <g transform="matrix(0.0935335,0,0,0.0440297,20.9827,11.3431)">
                <path d="M13,4.84C13,4.376 12.857,4 12.68,4L12.32,4C12.143,4 12,4.376 12,4.84L12,10.16C12,10.624 12.143,11 12.32,11L12.68,11C12.857,11 13,10.624 13,10.16L13,4.84Z" style="fill:rgb(196,196,196);"/>
            </g>
            <g transform="matrix(0.0311778,0,0,0.0330223,21.7621,11.4257)">
                <rect x="12" y="4" width="1" height="7" style="fill:rgb(57,57,57);"/>
            </g>
            <g transform="matrix(0.0311778,0,0,0.0330223,21.7309,11.4257)">
                <path d="M6,10L6,11L5,11L4.405,8.667L2.605,8.667L2,11L1,11L1,10L2.928,4L4.069,4L6,10ZM4.249,7.5L3.5,5.481L2.751,7.5L4.249,7.5Z" style="fill:rgb(57,57,57);fill-rule:nonzero;"/>
            </g>
        </g>
    </g>
</svg>
