<?xml version="1.0" encoding="UTF-8" standalone="no"?>
<!DOCTYPE svg PUBLIC "-//W3C//DTD SVG 1.1//EN" "http://www.w3.org/Graphics/SVG/1.1/DTD/svg11.dtd">
<svg width="100%" height="100%" viewBox="0 0 15 15" version="1.1" xmlns="http://www.w3.org/2000/svg" xmlns:xlink="http://www.w3.org/1999/xlink" xml:space="preserve" xmlns:serif="http://www.serif.com/" style="fill-rule:evenodd;clip-rule:evenodd;stroke-linejoin:round;stroke-miterlimit:1.41421;">
    <g transform="matrix(1,0,0,1,-140,-45)">
        <g transform="matrix(1,0,0,1,140,45)">
            <g id="ObjectIcons_ActionMute_nor">
                <g id="Icons">
                    <g transform="matrix(1,0,0,1,-40,-25)">
                        <g id="Base-Block" serif:id="Base Block">
                            <path d="M55,27.1C55,25.941 54.059,25 52.9,25L42.1,25C40.941,25 40,25.941 40,27.1L40,37.9C40,39.059 40.941,40 42.1,40L52.9,40C54.059,40 55,39.059 55,37.9L55,27.1Z" style="fill-opacity:0;"/>
                        </g>
                    </g>
                    <path d="M6.46,5L10.267,1.216C11.038,0.885 11.825,0.867 12,1.651L12,13.029C11.863,13.667 11.115,14.172 10.395,13.944L6.746,10L4.25,10C3.56,10 3,9.44 3,8.75L3,6.25C3,5.562 3.556,5.004 4.25,5L6.46,5ZM7.147,6L4,6L4,9L7.036,9L11,13.012L11,2.1L7.147,6Z" style="fill:rgb(196,196,196);"/>
                    <path d="M7.147,6L11,2.1L11,13.012L7.036,9L4,9L4,6L7.147,6Z" style="fill:rgb(57,57,57);"/>
                </g>
            </g>
        </g>
    </g>
</svg>
