<?xml version="1.0" encoding="UTF-8" standalone="no"?>
<!DOCTYPE svg PUBLIC "-//W3C//DTD SVG 1.1//EN" "http://www.w3.org/Graphics/SVG/1.1/DTD/svg11.dtd">
<svg width="100%" height="100%" viewBox="0 0 15 15" version="1.1" xmlns="http://www.w3.org/2000/svg" xmlns:xlink="http://www.w3.org/1999/xlink" xml:space="preserve" xmlns:serif="http://www.serif.com/" style="fill-rule:evenodd;clip-rule:evenodd;stroke-linejoin:round;stroke-miterlimit:1.41421;">
    <g transform="matrix(1,0,0,1,-220,-45)">
        <g transform="matrix(1,0,0,1,220,45)">
            <g id="ObjectIcons_ActionProperty_nor">
                <g id="Icons">
                    <g transform="matrix(1,0,0,1,-40,-25)">
                        <g id="Base-Block" serif:id="Base Block">
                            <path d="M55,27.1C55,25.941 54.059,25 52.9,25L42.1,25C40.941,25 40,25.941 40,27.1L40,37.9C40,39.059 40.941,40 42.1,40L52.9,40C54.059,40 55,39.059 55,37.9L55,27.1Z" style="fill-opacity:0;"/>
                        </g>
                    </g>
                    <path d="M10,14L6,14L6,9.975C5.43,9.86 5,9.355 5,8.75L5,6.25C5,5.645 5.43,5.14 6,5.025L6,1L10,1L10,5.025C10.57,5.14 11,5.645 11,6.25L11,8.75C11,9.355 10.57,9.86 10,9.975L10,14ZM9,6L9,2L7,2L7,6L6,6L6,9L7,9L7,13L9,13L9,9L10,9L10,6L9,6Z" style="fill:rgb(196,196,196);"/>
                    <g transform="matrix(-2,-0,0,0.333333,23,1)">
                        <rect x="7" y="3" width="1" height="9" style="fill:rgb(57,57,57);"/>
                    </g>
                    <g transform="matrix(-2,0,0,0.222222,23,10.3333)">
                        <rect x="7" y="3" width="1" height="9" style="fill:rgb(57,57,57);"/>
                    </g>
                    <g transform="matrix(-0.333333,0,0,1,10.3333,3)">
                        <rect x="4" y="7" width="6" height="1" style="fill:rgb(108,108,108);"/>
                    </g>
                    <g transform="matrix(-0.333333,0,0,1,10.3333,-2)">
                        <rect x="4" y="7" width="6" height="1" style="fill:rgb(196,196,196);fill-opacity:0.5;"/>
                    </g>
                    <g transform="matrix(-0.333333,0,0,1,10.3333,-2)">
                        <rect x="4" y="7" width="6" height="1" style="fill:rgb(149,149,149);"/>
                    </g>
                    <g transform="matrix(-0.333333,0,0,1,10.3333,2)">
                        <rect x="4" y="7" width="6" height="1" style="fill:rgb(149,149,149);"/>
                    </g>
                    <g transform="matrix(-1.33333,-0,0,2,18,-7)">
                        <rect x="6" y="7" width="3" height="1"/>
                    </g>
                    <g transform="matrix(-0.666667,0,0,1,12.6667,-1)">
                        <rect x="4" y="7" width="6" height="1" style="fill:rgb(149,149,149);"/>
                    </g>
                </g>
            </g>
        </g>
    </g>
</svg>
