<?xml version="1.0" encoding="UTF-8" standalone="no"?>
<!DOCTYPE svg PUBLIC "-//W3C//DTD SVG 1.1//EN" "http://www.w3.org/Graphics/SVG/1.1/DTD/svg11.dtd">
<svg width="100%" height="100%" viewBox="0 0 15 15" version="1.1" xmlns="http://www.w3.org/2000/svg" xmlns:xlink="http://www.w3.org/1999/xlink" xml:space="preserve" xmlns:serif="http://www.serif.com/" style="fill-rule:evenodd;clip-rule:evenodd;stroke-linejoin:round;stroke-miterlimit:1.41421;">
    <g transform="matrix(1,0,0,1,-460,-125)">
        <g transform="matrix(1,0,0,1,460,125)">
            <g id="ObjectIcons_MusicTransition_nor">
                <g id="Icons">
                    <g transform="matrix(1,0,0,1,-40,-25)">
                        <g id="Base-Block" serif:id="Base Block">
                            <path d="M55,27.1C55,25.941 54.059,25 52.9,25L42.1,25C40.941,25 40,25.941 40,27.1L40,37.9C40,39.059 40.941,40 42.1,40L52.9,40C54.059,40 55,39.059 55,37.9L55,27.1Z" style="fill-opacity:0;"/>
                        </g>
                    </g>
                    <g transform="matrix(1.16968,0,0,2.86933,-258.687,-206.592)">
                        <path d="M228,72.707C228,72.317 227.222,72 226.264,72L221.161,72L221.161,74.44L226.264,74.44C227.222,74.44 228,74.123 228,73.732L228,72.707Z" style="fill:rgb(196,196,196);"/>
                    </g>
                    <g transform="matrix(1.60831,-6.55798e-15,0,2.86933,-351.695,-198.592)">
                        <path d="M228,72L222.423,72C221.726,72 221.161,72.317 221.161,72.707L221.161,73.732C221.161,74.123 221.726,74.44 222.423,74.44L228,74.44L228,72Z" style="fill:rgb(196,196,196);"/>
                    </g>
                    <g transform="matrix(-10,0,0,5,25,-26)">
                        <rect x="1" y="7" width="1" height="1" style="fill:rgb(108,108,108);"/>
                    </g>
                    <g transform="matrix(-7,0,0,5,14,-34)">
                        <rect x="1" y="7" width="1" height="1" style="fill:rgb(108,108,108);"/>
                    </g>
                    <g transform="matrix(0.877261,0,0,1.22971,-192.015,-82.5392)">
                        <rect x="221.161" y="72" width="6.839" height="2.44" style="fill:rgb(196,196,196);"/>
                    </g>
                    <g transform="matrix(1.12893,0,3.46945e-18,1.60964,7,13.173)">
                        <path d="M0.857,-6.5C0.332,-6.689 0.071,-6.471 0,-5.961L0,-1.088C0.057,-0.453 0.344,-0.222 0.95,-0.554L5.023,-2.93C5.534,-3.385 5.439,-3.762 4.984,-4.092L0.857,-6.5Z" style="fill:rgb(196,196,196);"/>
                    </g>
                    <g transform="matrix(-5,0,0,1,13,-1.33227e-15)">
                        <rect x="1" y="7" width="1" height="1"/>
                    </g>
                    <g transform="matrix(-0.8,0,0,0.777778,8,11)">
                        <path d="M0,-9L0,0L-5,-4.5L0,-9Z"/>
                    </g>
                </g>
            </g>
        </g>
    </g>
</svg>
