<?xml version="1.0" encoding="UTF-8" standalone="no"?>
<!DOCTYPE svg PUBLIC "-//W3C//DTD SVG 1.1//EN" "http://www.w3.org/Graphics/SVG/1.1/DTD/svg11.dtd">
<svg width="100%" height="100%" viewBox="0 0 15 15" version="1.1" xmlns="http://www.w3.org/2000/svg" xmlns:xlink="http://www.w3.org/1999/xlink" xml:space="preserve" xmlns:serif="http://www.serif.com/" style="fill-rule:evenodd;clip-rule:evenodd;stroke-linejoin:round;stroke-miterlimit:1.41421;">
    <g transform="matrix(1,0,0,1,-80,-85)">
        <g transform="matrix(1,0,0,1,80,85)">
            <g id="ObjectIcons_MediaPackage_nor">
                <g id="Icons">
                    <g transform="matrix(1,0,0,1,-40,-25)">
                        <g id="Base-Block" serif:id="Base Block">
                            <path d="M55,27.1C55,25.941 54.059,25 52.9,25L42.1,25C40.941,25 40,25.941 40,27.1L40,37.9C40,39.059 40.941,40 42.1,40L52.9,40C54.059,40 55,39.059 55,37.9L55,27.1Z" style="fill-opacity:0;"/>
                        </g>
                    </g>
                    <path d="M7.5,0.735L1,3.926L1,11.062L7.5,14.63L14,11.062L14,3.926L7.5,0.735ZM7.5,1.817L2,4.5L2,10.5L7.5,13.5L13,10.5L13,4.5L7.5,1.817Z" style="fill:rgb(196,196,196);"/>
                    <g transform="matrix(1,0,0,1,3.41061e-13,0.0033667)">
                        <path d="M7.5,1.817L2,4.5L2,10.5L7.5,13.5L13,10.5L13,4.5L7.5,1.817ZM11,10L11,5L10,5L7.527,7.415L7.495,7.46L5,5L4,5L4,10L5,10L5,7L7,9L7.511,9.495L8,9L10,7L10,10L11,10Z" style="fill:rgb(57,57,57);"/>
                    </g>
                    <g transform="matrix(1,0,0,1,-140,-45)">
                        <path d="M145,55L144,55L144,50L145,50L147.495,52.46L147.527,52.415L150,50L151,50L151,55L150,55L150,52L148,54L147.511,54.495L147,54L145,52L145,55Z" style="fill:rgb(196,196,196);"/>
                    </g>
                </g>
            </g>
        </g>
    </g>
</svg>
