<?xml version="1.0" encoding="UTF-8" standalone="no"?>
<!DOCTYPE svg PUBLIC "-//W3C//DTD SVG 1.1//EN" "http://www.w3.org/Graphics/SVG/1.1/DTD/svg11.dtd">
<svg width="100%" height="100%" viewBox="0 0 15 15" version="1.1" xmlns="http://www.w3.org/2000/svg" xmlns:xlink="http://www.w3.org/1999/xlink" xml:space="preserve" xmlns:serif="http://www.serif.com/" style="fill-rule:evenodd;clip-rule:evenodd;stroke-linejoin:round;stroke-miterlimit:1.41421;">
    <g transform="matrix(1,0,0,1,-100,-45)">
        <g transform="matrix(1,0,0,1,100,45)">
            <g id="ObjectIcons_ActionHighpass_nor">
                <g id="Icons">
                    <g transform="matrix(1,0,0,1,-40,-25)">
                        <g id="Base-Block" serif:id="Base Block">
                            <path d="M55,27.1C55,25.941 54.059,25 52.9,25L42.1,25C40.941,25 40,25.941 40,27.1L40,37.9C40,39.059 40.941,40 42.1,40L52.9,40C54.059,40 55,39.059 55,37.9L55,27.1Z" style="fill-opacity:0;"/>
                        </g>
                    </g>
                    <g transform="matrix(-1,0,0,1,14.9997,0.00494813)">
                        <path d="M10.755,12.995L14.308,12.995C14.884,12.955 14.987,12.557 14.79,11.932C13.667,10.104 11.488,6.56 11.481,6.548C9.572,3.44 8.209,3.044 5.283,3L0,2.995L0,7L5.2,7.001C5.971,7.005 7.061,7.006 7.895,8.346C7.904,8.36 10.755,12.995 10.755,12.995ZM11.332,11.995L13.611,11.995C13.611,11.995 10.623,7.134 10.614,7.119C9.06,4.589 7.672,4.041 5.283,4.005L1,4L1,6L5.2,6.001C5.971,6.005 7.539,5.849 8.745,7.787C8.754,7.801 11.332,11.995 11.332,11.995Z" style="fill:rgb(196,196,196);"/>
                    </g>
                    <g transform="matrix(1,0,0,0.933333,1.99975,4.00495)">
                        <path d="M1.667,8.566L-0.612,8.567C-0.612,8.567 2.377,3.358 2.386,3.342C3.94,0.631 5.328,0.044 7.717,0.005L12,0L12,2.143L7.8,2.144C7.029,2.148 5.461,1.981 4.255,4.057C4.246,4.072 1.667,8.566 1.667,8.566Z" style="fill:rgb(57,57,57);"/>
                    </g>
                </g>
            </g>
        </g>
    </g>
</svg>
