<?xml version="1.0" encoding="UTF-8" standalone="no"?>
<!DOCTYPE svg PUBLIC "-//W3C//DTD SVG 1.1//EN" "http://www.w3.org/Graphics/SVG/1.1/DTD/svg11.dtd">
<svg width="100%" height="100%" viewBox="0 0 15 15" version="1.1" xmlns="http://www.w3.org/2000/svg" xmlns:xlink="http://www.w3.org/1999/xlink" xml:space="preserve" xmlns:serif="http://www.serif.com/" style="fill-rule:evenodd;clip-rule:evenodd;stroke-linejoin:round;stroke-miterlimit:1.41421;">
    <g transform="matrix(1,0,0,1,-280,-45)">
        <g transform="matrix(1,0,0,1,280,45)">
            <g id="ObjectIcons_ActionSeek_nor">
                <g id="Icons">
                    <g transform="matrix(1,0,0,1,-40,-25)">
                        <g id="Object-Icon-Base" serif:id="Object Icon Base">
                            <path d="M55,27.1C55,25.941 54.059,25 52.9,25L42.1,25C40.941,25 40,25.941 40,27.1L40,37.9C40,39.059 40.941,40 42.1,40L52.9,40C54.059,40 55,39.059 55,37.9L55,27.1Z" style="fill-opacity:0;"/>
                        </g>
                    </g>
                    <path d="M7,6.729L7,3.093C7.271,2.293 7.857,2.208 8.71,2.732L14.252,6.885C14.569,7.268 14.598,7.661 14.226,8.068L8.728,12.189L8.234,12.559C7.498,12.787 7.026,12.672 7,11.974L7,8.337L1.735,12.317L1.24,12.691C0.501,12.923 0.026,12.806 0,12.099L0,3.102C0.273,2.291 0.861,2.206 1.718,2.736L7,6.729ZM8,3.605L8,11.401L13.119,7.503L8,3.605ZM1,3.605L1,11.401L6.119,7.503L1,3.605Z" style="fill:rgb(196,196,196);"/>
                    <g transform="matrix(1.27967,0,0,1.11374,1,11.4012)">
                        <path d="M0,-7L0,0L4,-3.5L0,-7Z" style="fill:rgb(57,57,57);"/>
                    </g>
                    <g transform="matrix(1.27967,0,0,1.11374,8,11.4012)">
                        <path d="M0,-7L0,0L4,-3.5L0,-7Z" style="fill:rgb(57,57,57);"/>
                    </g>
                </g>
            </g>
        </g>
    </g>
</svg>
