<?xml version="1.0" encoding="UTF-8" standalone="no"?>
<!DOCTYPE svg PUBLIC "-//W3C//DTD SVG 1.1//EN" "http://www.w3.org/Graphics/SVG/1.1/DTD/svg11.dtd">
<svg width="100%" height="100%" viewBox="0 0 15 15" version="1.1" xmlns="http://www.w3.org/2000/svg" xmlns:xlink="http://www.w3.org/1999/xlink" xml:space="preserve" xmlns:serif="http://www.serif.com/" style="fill-rule:evenodd;clip-rule:evenodd;stroke-linejoin:round;stroke-miterlimit:2;">
    <g transform="matrix(1,0,0,1,-40,-245)">
        <g id="ObjectIcons_Listener_nor" transform="matrix(1.07143,0,0,1.07557,-466.571,12.2847)">
            <g>
                <g transform="matrix(0.933333,0,0,0.929739,435.467,193.121)">
                    <g id="Base-Block" serif:id="Base Block">
                        <path d="M55,27.1C55,25.941 54.059,25 52.9,25L42.1,25C40.941,25 40,25.941 40,27.1L40,37.9C40,39.059 40.941,40 42.1,40L52.9,40C54.059,40 55,39.059 55,37.9L55,27.1Z" style="fill-opacity:0;"/>
                    </g>
                </g>
                <g transform="matrix(0.722365,0,0,0.697304,470.543,214.97)">
                    <path d="M16.561,17.838C16.54,17.838 16.521,17.844 16.479,17.81C15.813,17.401 15.52,15.634 14.824,14.764C13.041,12.533 11.091,12.686 11.091,9.385C11.091,8.153 11.96,6.484 14,6.484C16.332,6.484 17.055,7.632 17.055,8.674C17.11,9.513 17.589,9.902 18.343,10L20.08,10C20.853,9.929 21.269,9.498 21.364,8.667C21.364,4.737 17.93,2 14,2C10.07,2 6.796,5.281 6.796,9.211C6.796,10.471 6.907,11.872 7.597,13.122C8.507,14.772 9.298,15.668 10.168,16.338C10.978,16.958 11.558,17.408 11.878,18.388C12.478,20.208 13.355,21.096 14.715,21.806C15.225,22.036 16.766,21.999 17.336,21.999C19.546,21.999 21.529,18.881 21.529,16.671C21.48,15.89 20.946,15.35 20.238,15.333L18.499,15.333C17.974,15.333 17.247,15.774 17.23,16.658C17.23,17.164 16.638,17.838 16.561,17.838Z" style="fill:rgb(196,196,196);"/>
                </g>
                <g transform="matrix(0.891205,0,0,0.675992,470.126,215.74)">
                    <path d="M8.337,4.175C8.811,3.618 8.76,3.043 8.385,2.455L7.178,1.084C7.11,1.025 7.056,0.933 6.84,0.933C6.539,0.933 6.609,0.924 6.307,0.924C6.046,0.924 5.908,1.09 5.796,1.216C3.889,3.448 3,5.96 3,9C3,12.04 4.011,14.692 5.756,16.769C6.268,17.364 6.761,17.385 7.235,16.885L8.36,15.617C8.769,14.938 8.773,14.341 8.33,13.835C7.22,12.598 6.528,10.891 6.528,9.001C6.528,7.112 7.22,5.404 8.337,4.175Z" style="fill:rgb(196,196,196);"/>
                </g>
                <g transform="matrix(0.68749,0,0,0.594547,471.683,216.486)">
                    <path d="M7.64,2.64L6.22,1.22C4.23,3.21 3,5.96 3,9C3,12.04 4.23,14.79 6.22,16.78L7.63,15.37C6.01,13.74 5,11.49 5,9C5,6.51 6.01,4.26 7.64,2.64Z" style="fill:rgb(57,57,57);"/>
                </g>
                <g transform="matrix(0.62058,0,0,0.613547,472,216.068)">
                    <path d="M17,20C16.71,20 16.44,19.94 16.24,19.85C15.53,19.48 15.03,18.97 14.53,17.47C14.02,15.91 13.06,15.18 12.14,14.47C11.35,13.86 10.53,13.23 9.82,11.94C9.29,10.98 9,9.93 9,9C9,6.2 11.2,4 14,4C16.8,4 19,5.261 19,8.061L21,8.061C21,4.131 17.93,2 14,2C10.07,2 7,5.07 7,9C7,10.26 7.38,11.65 8.07,12.9C8.98,14.55 10.05,15.38 10.92,16.05C11.73,16.67 12.31,17.12 12.63,18.1C13.23,19.92 14,20.94 15.36,21.65C15.87,21.88 16.43,22 17,22C19.21,22 21.213,19.364 21.213,17.154L19.213,17.154C19.213,18.254 18.1,20 17,20Z" style="fill:rgb(57,57,57);"/>
                </g>
                <g transform="matrix(0.634377,0,0,0.631934,471.852,215.791)">
                    <path d="M11.5,9C11.5,10.38 12.62,11.5 14,11.5C15.38,11.5 16.5,10.38 16.5,9C16.5,7.62 15.38,6.5 14,6.5C12.62,6.5 11.5,7.62 11.5,9Z" style="fill:rgb(57,57,57);"/>
                    <path d="M14.102,5.03L14.203,5.034L14.304,5.04L14.404,5.049L14.504,5.06L14.603,5.074L14.701,5.091L14.799,5.109L14.896,5.13L14.991,5.154L15.086,5.179L15.18,5.208L15.274,5.238L15.366,5.27L15.456,5.305L15.546,5.341L15.635,5.38L15.723,5.421L15.809,5.464L15.894,5.509L15.978,5.556L16.06,5.605L16.141,5.655L16.221,5.708L16.3,5.763L16.377,5.819L16.452,5.877L16.527,5.936L16.599,5.998L16.67,6.061L16.74,6.126L16.808,6.192L16.874,6.26L16.939,6.33L17.002,6.401L17.064,6.473L17.123,6.548L17.181,6.623L17.238,6.7L17.292,6.779L17.345,6.859L17.395,6.94L17.444,7.022L17.491,7.106L17.536,7.191L17.579,7.278L17.62,7.365L17.658,7.454L17.695,7.544L17.73,7.635L17.762,7.727L17.792,7.82L17.82,7.914L17.846,8.009L17.87,8.104L17.891,8.201L17.909,8.299L17.926,8.397L17.94,8.496L17.951,8.596L17.96,8.696L17.966,8.797L17.97,8.898L17.971,9L17.97,9.102L17.966,9.203L17.96,9.304L17.951,9.404L17.94,9.504L17.926,9.603L17.909,9.701L17.891,9.799L17.87,9.896L17.846,9.991L17.82,10.086L17.792,10.181L17.762,10.273L17.73,10.365L17.695,10.456L17.659,10.546L17.62,10.635L17.579,10.722L17.536,10.809L17.491,10.894L17.444,10.978L17.395,11.06L17.344,11.142L17.292,11.221L17.238,11.3L17.181,11.377L17.123,11.452L17.064,11.526L17.002,11.599L16.939,11.67L16.874,11.74L16.808,11.808L16.74,11.874L16.67,11.939L16.599,12.002L16.527,12.064L16.452,12.123L16.377,12.181L16.3,12.238L16.221,12.292L16.142,12.344L16.06,12.395L15.978,12.444L15.894,12.491L15.809,12.536L15.722,12.579L15.635,12.62L15.546,12.658L15.456,12.695L15.365,12.73L15.273,12.762L15.18,12.792L15.087,12.82L14.991,12.846L14.895,12.87L14.799,12.891L14.701,12.909L14.603,12.926L14.504,12.94L14.404,12.951L14.304,12.96L14.203,12.966L14.102,12.97L14,12.971L13.898,12.97L13.797,12.966L13.696,12.96L13.596,12.951L13.496,12.94L13.397,12.926L13.299,12.909L13.201,12.891L13.105,12.87L13.009,12.846L12.913,12.82L12.82,12.792L12.727,12.762L12.635,12.73L12.544,12.695L12.454,12.658L12.365,12.62L12.278,12.579L12.191,12.536L12.106,12.491L12.022,12.444L11.94,12.395L11.858,12.344L11.779,12.292L11.7,12.238L11.623,12.181L11.548,12.123L11.473,12.064L11.401,12.002L11.33,11.939L11.26,11.874L11.192,11.808L11.126,11.74L11.061,11.67L10.998,11.599L10.936,11.526L10.877,11.452L10.819,11.377L10.762,11.3L10.708,11.221L10.656,11.142L10.605,11.06L10.556,10.978L10.509,10.894L10.464,10.809L10.421,10.722L10.38,10.635L10.341,10.546L10.305,10.456L10.27,10.366L10.238,10.274L10.208,10.18L10.18,10.086L10.154,9.991L10.13,9.896L10.109,9.799L10.091,9.701L10.074,9.603L10.06,9.504L10.049,9.404L10.04,9.304L10.034,9.203L10.03,9.102L10.029,9L10.03,8.898L10.034,8.797L10.04,8.696L10.049,8.596L10.06,8.496L10.074,8.397L10.091,8.299L10.109,8.201L10.13,8.104L10.154,8.009L10.18,7.914L10.208,7.82L10.238,7.727L10.27,7.634L10.305,7.544L10.342,7.454L10.38,7.365L10.421,7.278L10.464,7.191L10.509,7.106L10.556,7.022L10.605,6.94L10.655,6.859L10.708,6.779L10.762,6.7L10.818,6.623L10.877,6.547L10.936,6.473L10.998,6.401L11.061,6.33L11.126,6.26L11.192,6.192L11.26,6.126L11.33,6.061L11.401,5.998L11.473,5.936L11.548,5.877L11.623,5.819L11.7,5.763L11.779,5.708L11.859,5.655L11.94,5.605L12.022,5.556L12.106,5.509L12.191,5.464L12.277,5.421L12.365,5.38L12.454,5.341L12.544,5.305L12.634,5.27L12.726,5.238L12.82,5.208L12.914,5.179L13.009,5.154L13.104,5.13L13.201,5.109L13.299,5.091L13.397,5.074L13.496,5.06L13.596,5.049L13.696,5.04L13.797,5.034L13.898,5.03L14,5.029L14.102,5.03ZM13.936,6.501L13.871,6.503L13.808,6.507L13.745,6.513L13.682,6.52L13.619,6.529L13.558,6.539L13.496,6.551L13.436,6.564L13.375,6.579L13.316,6.595L13.257,6.612L13.198,6.631L13.141,6.652L13.084,6.673L13.027,6.697L12.971,6.721L12.916,6.747L12.862,6.774L12.809,6.802L12.756,6.831L12.704,6.862L12.653,6.894L12.603,6.927L12.553,6.961L12.505,6.997L12.457,7.033L12.41,7.071L12.364,7.11L12.319,7.15L12.275,7.191L12.233,7.233L12.191,7.275L12.15,7.319L12.11,7.364L12.071,7.41L12.033,7.457L11.997,7.505L11.961,7.553L11.927,7.603L11.894,7.653L11.862,7.704L11.831,7.756L11.802,7.809L11.774,7.862L11.747,7.916L11.721,7.971L11.697,8.027L11.673,8.084L11.652,8.141L11.631,8.198L11.612,8.257L11.595,8.316L11.579,8.375L11.564,8.436L11.551,8.496L11.539,8.558L11.529,8.619L11.52,8.682L11.513,8.745L11.507,8.808L11.503,8.871L11.501,8.936L11.5,9L11.501,9.064L11.503,9.129L11.507,9.192L11.513,9.255L11.52,9.318L11.529,9.381L11.539,9.442L11.551,9.504L11.564,9.564L11.579,9.625L11.595,9.684L11.612,9.743L11.631,9.802L11.652,9.859L11.673,9.916L11.697,9.973L11.721,10.029L11.747,10.084L11.774,10.138L11.802,10.191L11.831,10.244L11.862,10.296L11.894,10.347L11.927,10.397L11.961,10.447L11.997,10.495L12.033,10.543L12.071,10.59L12.11,10.636L12.15,10.681L12.191,10.725L12.233,10.767L12.275,10.809L12.319,10.85L12.364,10.89L12.41,10.929L12.457,10.967L12.505,11.003L12.553,11.039L12.603,11.073L12.653,11.106L12.704,11.138L12.756,11.169L12.809,11.198L12.862,11.226L12.916,11.253L12.971,11.279L13.027,11.303L13.084,11.327L13.141,11.348L13.198,11.369L13.257,11.388L13.316,11.405L13.375,11.421L13.436,11.436L13.496,11.449L13.558,11.461L13.619,11.471L13.682,11.48L13.745,11.487L13.808,11.493L13.871,11.497L13.936,11.499L14,11.5L14.064,11.499L14.129,11.497L14.192,11.493L14.255,11.487L14.318,11.48L14.381,11.471L14.442,11.461L14.504,11.449L14.564,11.436L14.625,11.421L14.684,11.405L14.743,11.388L14.802,11.369L14.859,11.348L14.916,11.327L14.973,11.303L15.029,11.279L15.084,11.253L15.138,11.226L15.191,11.198L15.244,11.169L15.296,11.138L15.347,11.106L15.397,11.073L15.447,11.039L15.495,11.003L15.543,10.967L15.59,10.929L15.636,10.89L15.681,10.85L15.725,10.809L15.767,10.767L15.809,10.725L15.85,10.681L15.89,10.636L15.929,10.59L15.967,10.543L16.003,10.495L16.039,10.447L16.073,10.397L16.106,10.347L16.138,10.296L16.169,10.244L16.198,10.191L16.226,10.138L16.253,10.084L16.279,10.029L16.303,9.973L16.327,9.916L16.348,9.859L16.369,9.802L16.388,9.743L16.405,9.684L16.421,9.625L16.436,9.564L16.449,9.504L16.461,9.442L16.471,9.381L16.48,9.318L16.487,9.255L16.493,9.192L16.497,9.129L16.499,9.064L16.5,9L16.499,8.936L16.497,8.871L16.493,8.808L16.487,8.745L16.48,8.682L16.471,8.619L16.461,8.558L16.449,8.496L16.436,8.436L16.421,8.375L16.405,8.316L16.388,8.257L16.369,8.198L16.348,8.141L16.327,8.084L16.303,8.027L16.279,7.971L16.253,7.916L16.226,7.862L16.198,7.809L16.169,7.756L16.138,7.704L16.106,7.653L16.073,7.603L16.039,7.553L16.003,7.505L15.967,7.457L15.929,7.41L15.89,7.364L15.85,7.319L15.809,7.275L15.768,7.233L15.725,7.191L15.681,7.15L15.636,7.11L15.59,7.071L15.543,7.033L15.495,6.997L15.447,6.961L15.397,6.927L15.347,6.894L15.296,6.862L15.244,6.831L15.191,6.802L15.138,6.774L15.084,6.747L15.029,6.721L14.973,6.697L14.916,6.673L14.859,6.652L14.802,6.631L14.743,6.612L14.684,6.595L14.625,6.579L14.564,6.564L14.504,6.551L14.442,6.539L14.381,6.529L14.318,6.52L14.255,6.513L14.192,6.507L14.129,6.503L14.064,6.501L14,6.5L13.936,6.501Z" style="fill:rgb(196,196,196);"/>
                </g>
            </g>
        </g>
    </g>
</svg>
