<?xml version="1.0" encoding="UTF-8" standalone="no"?>
<!DOCTYPE svg PUBLIC "-//W3C//DTD SVG 1.1//EN" "http://www.w3.org/Graphics/SVG/1.1/DTD/svg11.dtd">
<svg width="100%" height="100%" viewBox="0 0 15 15" version="1.1" xmlns="http://www.w3.org/2000/svg" xmlns:xlink="http://www.w3.org/1999/xlink" xml:space="preserve" xmlns:serif="http://www.serif.com/" style="fill-rule:evenodd;clip-rule:evenodd;stroke-linejoin:round;stroke-miterlimit:1.41421;">
    <g transform="matrix(1,0,0,1,-20,-385)">
        <g transform="matrix(1,0,0,1,19,385)">
            <g id="ObjectIcons_PropBusVolume_nor">
                <g id="Icons">
                    <g transform="matrix(1,0,0,1,-39,-25)">
                        <g id="Object-Icon-Base" serif:id="Object Icon Base">
                            <path d="M55,27.1C55,25.941 54.059,25 52.9,25L42.1,25C40.941,25 40,25.941 40,27.1L40,37.9C40,39.059 40.941,40 42.1,40L52.9,40C54.059,40 55,39.059 55,37.9L55,27.1Z" style="fill-opacity:0;"/>
                        </g>
                    </g>
                    <g transform="matrix(1,0,0,1,0,-1)">
                        <path d="M13.75,14L1.25,14C1.112,14 1,13.888 1,13.75L1,13.25L1.001,13.241L1,13.223C1,12.795 1.348,12.099 1.777,11.67L11.943,1.504C12.114,1.333 12.271,1.231 12.399,1.197C12.564,1.073 12.768,1 12.989,1C13.535,1 13.978,1.443 13.978,1.989L13.978,13.011C13.978,13.052 13.976,13.093 13.97,13.134C13.989,13.168 14,13.208 14,13.25L14,13.75C14,13.887 13.89,13.998 13.75,14ZM13,13L13,2L10,5L10,13L13,13ZM5,13L5,10L2,13L5,13ZM9,13L9,6L6,9L6,13L9,13ZM11.943,3.057L12,3L12,2.997L11.943,3.057Z" style="fill:rgb(196,196,196);"/>
                    </g>
                    <g transform="matrix(-1.5,-0,0,1.16667,6,5)">
                        <path d="M-2,6L0,6L0,2.571L-2,0L-2,6Z" style="fill:rgb(57,57,57);fill-rule:nonzero;"/>
                    </g>
                    <g transform="matrix(-1.5,-0,0,1.33333,2,8)">
                        <path d="M-2,3L0,3L-2,0.75L-2,3Z" style="fill:rgb(57,57,57);fill-rule:nonzero;"/>
                    </g>
                    <g transform="matrix(-1.5,-0,0,1.22222,10,1)">
                        <path d="M-2,9L0,9L0,2.455L-2,0L-2,9Z" style="fill:rgb(57,57,57);fill-rule:nonzero;"/>
                    </g>
                    <g transform="matrix(1.14286,0,0,1.14286,-412.571,-54.7143)">
                        <path d="M375,55.54C375,54.69 374.31,54 373.46,54L369.54,54C368.69,54 368,54.69 368,55.54L368,59.46C368,60.31 368.69,61 369.54,61L373.46,61C374.31,61 375,60.31 375,59.46L375,55.54Z" style="fill:rgb(196,196,196);"/>
                    </g>
                    <g transform="matrix(0.844568,1.26883e-14,0,1.05718,-202.236,-288.354)">
                        <path d="M256.031,281.27L256.079,281.271L256.126,281.272L256.171,281.274L256.215,281.276L256.258,281.28L256.3,281.284L256.34,281.289L256.379,281.294L256.417,281.301L256.454,281.308L256.49,281.315L256.524,281.324L256.558,281.333L256.59,281.343L256.621,281.353L256.652,281.365L256.681,281.377L256.709,281.389L256.736,281.403L256.762,281.417L256.788,281.432L256.812,281.447L256.835,281.463L256.858,281.48L256.879,281.498L256.9,281.516L256.92,281.535L256.939,281.554L256.957,281.574L256.974,281.595L256.991,281.617L257.007,281.639L257.022,281.662L257.036,281.686L257.05,281.71L257.062,281.735L257.075,281.76L257.086,281.786L257.108,281.84L257.126,281.897L257.143,281.956L257.157,282.018L257.17,282.082L257.18,282.149L257.189,282.218L257.197,282.289L257.203,282.363L257.207,282.439L257.211,282.518L257.213,282.599L257.215,282.682L257.215,282.713L257.213,282.744L257.209,282.774L257.203,282.803L257.196,282.832L257.188,282.861L257.178,282.889L257.167,282.916L257.154,282.943L257.14,282.969L257.125,282.995L257.109,283.02L257.091,283.044L257.073,283.068L257.053,283.092L257.033,283.115L257.011,283.137L256.989,283.159L256.966,283.18L256.943,283.201L256.918,283.222L256.893,283.241L256.842,283.279L256.788,283.315L256.733,283.349L256.678,283.381L256.621,283.411L256.565,283.439L256.509,283.465L256.454,283.489L256.401,283.511L256.349,283.531L256.299,283.55L256.252,283.566L256.208,283.581L256.131,283.605L256.071,283.622L256.019,283.635L256.053,283.639L256.088,283.645L256.127,283.652L256.167,283.661L256.21,283.671L256.255,283.682L256.301,283.695L256.348,283.709L256.397,283.725L256.446,283.742L256.496,283.761L256.546,283.782L256.596,283.804L256.645,283.828L256.695,283.853L256.743,283.881L256.791,283.91L256.837,283.941L256.882,283.974L256.925,284.009L256.967,284.046L257.006,284.084L257.024,284.104L257.042,284.125L257.059,284.146L257.076,284.168L257.091,284.19L257.106,284.213L257.12,284.236L257.134,284.26L257.146,284.284L257.157,284.309L257.168,284.334L257.177,284.36L257.186,284.387L257.194,284.414L257.2,284.442L257.205,284.47L257.21,284.499L257.213,284.528L257.214,284.558L257.215,284.588L257.215,284.743L257.214,284.89L257.212,284.961L257.209,285.031L257.205,285.098L257.2,285.163L257.192,285.227L257.183,285.288L257.172,285.347L257.158,285.404L257.142,285.459L257.133,285.486L257.123,285.512L257.112,285.537L257.101,285.562L257.089,285.586L257.075,285.609L257.061,285.632L257.046,285.655L257.03,285.676L257.014,285.697L256.996,285.718L256.977,285.737L256.957,285.756L256.936,285.775L256.914,285.793L256.89,285.81L256.866,285.826L256.84,285.842L256.813,285.857L256.785,285.871L256.756,285.885L256.725,285.898L256.693,285.91L256.659,285.921L256.625,285.932L256.588,285.942L256.55,285.951L256.511,285.959L256.471,285.967L256.428,285.974L256.384,285.98L256.339,285.985L256.292,285.99L256.243,285.993L256.193,285.996L256.141,285.998L256.087,286L256.031,286L252.479,286L252.479,281.27L256.031,281.27ZM253.663,285.054L253.847,285.054L254.021,285.053L254.186,285.05L254.342,285.047L254.489,285.042L254.628,285.036L254.758,285.03L254.881,285.022L254.995,285.013L255.102,285.004L255.202,284.993L255.295,284.982L255.381,284.97L255.46,284.956L255.533,284.942L255.6,284.927L255.661,284.912L255.716,284.895L255.766,284.878L255.811,284.861L255.851,284.842L255.886,284.823L255.916,284.803L255.943,284.782L255.965,284.761L255.984,284.74L255.999,284.718L256.011,284.695L256.02,284.672L256.026,284.648L256.03,284.624L256.031,284.599L256.03,284.574L256.028,284.548L256.024,284.524L256.018,284.499L256.008,284.475L255.996,284.452L255.981,284.429L255.963,284.406L255.952,284.395L255.94,284.385L255.927,284.374L255.913,284.363L255.898,284.353L255.882,284.343L255.846,284.323L255.806,284.304L255.759,284.285L255.707,284.267L255.65,284.25L255.585,284.234L255.515,284.219L255.437,284.204L255.352,284.191L255.26,284.178L255.16,284.167L255.052,284.156L254.935,284.146L254.81,284.137L254.676,284.13L254.532,284.123L254.379,284.118L254.215,284.114L254.042,284.111L253.858,284.109L253.663,284.108L253.663,285.054ZM253.663,282.216L253.663,283.162L254.002,283.162L254.309,283.161L254.586,283.158L254.713,283.155L254.834,283.152L254.947,283.149L255.054,283.144L255.155,283.139L255.249,283.133L255.336,283.126L255.418,283.118L255.494,283.108L255.564,283.098L255.628,283.086L255.687,283.073L255.741,283.059L255.766,283.051L255.79,283.043L255.812,283.034L255.834,283.026L255.854,283.016L255.873,283.007L255.89,282.997L255.907,282.986L255.923,282.975L255.937,282.964L255.95,282.952L255.963,282.94L255.974,282.927L255.984,282.914L255.994,282.9L256.002,282.886L256.009,282.871L256.016,282.856L256.021,282.841L256.026,282.825L256.03,282.808L256.033,282.791L256.036,282.754L256.037,282.716L256.035,282.67L256.032,282.627L256.027,282.587L256.021,282.549L256.012,282.514L256.006,282.498L256,282.482L255.993,282.466L255.986,282.452L255.977,282.437L255.968,282.424L255.958,282.411L255.947,282.398L255.935,282.386L255.922,282.375L255.907,282.364L255.892,282.354L255.875,282.344L255.858,282.334L255.839,282.325L255.818,282.317L255.797,282.309L255.774,282.301L255.749,282.294L255.723,282.287L255.667,282.275L255.604,282.264L255.535,282.254L255.458,282.246L255.374,282.239L255.282,282.233L255.182,282.228L255.074,282.224L254.957,282.221L254.831,282.219L254.695,282.217L254.394,282.216L254.051,282.216L253.663,282.216Z" style="fill:rgb(34,34,34);"/>
                        <path d="M252.479,286L252.479,281.27L256.031,281.27C257.068,281.27 257.2,281.783 257.215,282.682C257.226,283.355 256.019,283.635 256.019,283.635C256.356,283.677 257.215,283.931 257.215,284.588C257.215,285.429 257.237,286 256.031,286L252.479,286ZM253.663,282.216L253.663,283.162C255.555,283.164 256.049,283.138 256.037,282.716C256.022,282.21 255.856,282.212 253.663,282.216ZM253.663,284.108L253.663,285.054C255.673,285.059 256.029,284.864 256.031,284.599C256.033,284.324 255.801,284.108 253.663,284.108Z" style="fill:rgb(57,57,57);fill-rule:nonzero;"/>
                    </g>
                </g>
            </g>
        </g>
    </g>
</svg>
