<?xml version="1.0" encoding="UTF-8" standalone="no"?>
<!DOCTYPE svg PUBLIC "-//W3C//DTD SVG 1.1//EN" "http://www.w3.org/Graphics/SVG/1.1/DTD/svg11.dtd">
<svg width="100%" height="100%" viewBox="0 0 15 15" version="1.1" xmlns="http://www.w3.org/2000/svg" xmlns:xlink="http://www.w3.org/1999/xlink" xml:space="preserve" xmlns:serif="http://www.serif.com/" style="fill-rule:evenodd;clip-rule:evenodd;stroke-linejoin:round;stroke-miterlimit:1.41421;">
    <g transform="matrix(1,0,0,1,-40,-205)">
        <g transform="matrix(1,0,0,1,40,205)">
            <g id="ObjectIcons_SoundcasterSession_nor">
                <g id="Icons">
                    <g transform="matrix(1,0,0,1,-40,-25)">
                        <g id="Base-Block" serif:id="Base Block">
                            <path d="M55,27.1C55,25.941 54.059,25 52.9,25L42.1,25C40.941,25 40,25.941 40,27.1L40,37.9C40,39.059 40.941,40 42.1,40L52.9,40C54.059,40 55,39.059 55,37.9L55,27.1Z" style="fill-opacity:0;"/>
                        </g>
                    </g>
                    <path d="M15,4L13,4L13,12.988C12.978,13.668 12.632,13.995 11.99,14L0,14L0,11L2,11L2,2.012C2.022,1.332 2.368,1.005 3.01,1L15,1L15,4ZM11,11.048C11.004,11.983 11.021,11.989 10.014,12L1,12L1,13L10.99,13C11.632,12.995 11.978,12.668 12,11.988L12,5L7,5C6.372,5.009 5.991,5.371 6,6L6,8L7,8L7,7C7.012,5.994 7.007,5.986 8,6L11,6L11,11.048ZM10,10C10.005,10.63 9.629,10.988 9,11L9.014,11C10.021,10.989 10.004,10.983 10,10.048L10,10ZM14,3L14,2L4.01,2C3.368,2.005 3.022,2.332 3,3.012L3,10L8,10C8.631,9.989 9.009,9.627 9,9L9,7L8,7L8,8C7.988,9.004 7.993,9.014 7,9L4,9L4,3.952C3.996,3.019 3.979,3.011 4.986,3L14,3ZM5,5C4.991,4.373 5.368,4.012 6,4L5.986,4C4.979,4.011 4.996,4.02 5,4.952L5,5Z" style="fill:rgb(196,196,196);"/>
                    <g transform="matrix(1,0,0,1,-160,-85)">
                        <path d="M163,88.012C163.022,87.332 163.368,87.005 164.01,87L174,87L174,88L164.986,88C163.979,88.011 163.996,88.017 164,88.952L164,94L167,94C167.993,94.014 167.988,94.006 168,93L168,92L169,92L169,94C169.009,94.629 168.628,94.991 168,95L163,95L163,88.012Z" style="fill:rgb(43,43,43);"/>
                    </g>
                    <g transform="matrix(-1,1.22465e-16,-1.22465e-16,-1,175,100)">
                        <path d="M163,88.012C163.022,87.332 163.368,87.005 164.01,87L174,87L174,88L164.986,88C163.979,88.011 163.996,88.017 164,88.952L164,94L167,94C167.993,94.014 167.988,94.006 168,93L168,92L169,92L169,94C169.009,94.629 168.628,94.991 168,95L163,95L163,88.012Z" style="fill:rgb(43,43,43);"/>
                    </g>
                </g>
            </g>
        </g>
    </g>
</svg>
