<?xml version="1.0" encoding="UTF-8" standalone="no"?>
<!DOCTYPE svg PUBLIC "-//W3C//DTD SVG 1.1//EN" "http://www.w3.org/Graphics/SVG/1.1/DTD/svg11.dtd">
<svg width="100%" height="100%" viewBox="0 0 15 15" version="1.1" xmlns="http://www.w3.org/2000/svg" xmlns:xlink="http://www.w3.org/1999/xlink" xml:space="preserve" xmlns:serif="http://www.serif.com/" style="fill-rule:evenodd;clip-rule:evenodd;stroke-linejoin:round;stroke-miterlimit:1.41421;">
    <g transform="matrix(1,0,0,1,-320,-285)">
        <g transform="matrix(1,0,0,1,320,285)">
            <g id="ObjectIcons_PropMulti_nor">
                <g id="Icons">
                    <g transform="matrix(1,0,0,1,-40,-25)">
                        <g id="Base-Block" serif:id="Base Block">
                            <path d="M55,27.1C55,25.941 54.059,25 52.9,25L42.1,25C40.941,25 40,25.941 40,27.1L40,37.9C40,39.059 40.941,40 42.1,40L52.9,40C54.059,40 55,39.059 55,37.9L55,27.1Z" style="fill-opacity:0;"/>
                        </g>
                    </g>
                    <g transform="matrix(1.125,0,0,0.875,-357.25,-24.25)">
                        <rect x="322" y="30" width="8" height="8" style="fill:rgb(196,196,196);"/>
                    </g>
                    <g transform="matrix(1.16667,0,0,0.833333,-370.833,-25.3333)">
                        <rect x="323" y="34" width="6" height="6" style="fill:rgb(57,57,57);"/>
                    </g>
                    <g transform="matrix(1.125,0,0,0.875,-359.25,-22.25)">
                        <rect x="322" y="30" width="8" height="8" style="fill:rgb(196,196,196);"/>
                    </g>
                    <g transform="matrix(1.16667,0,0,0.833333,-372.833,-23.3333)">
                        <rect x="323" y="34" width="6" height="6" style="fill:rgb(57,57,57);"/>
                    </g>
                    <g transform="matrix(1.125,0,0,0.875,-361.25,-20.25)">
                        <rect x="322" y="30" width="8" height="8" style="fill:rgb(196,196,196);"/>
                    </g>
                    <g transform="matrix(1.16667,0,0,0.833333,-374.833,-21.3333)">
                        <rect x="323" y="34" width="6" height="6" style="fill:rgb(57,57,57);"/>
                    </g>
                </g>
            </g>
        </g>
    </g>
</svg>
