<?xml version="1.0" encoding="UTF-8" standalone="no"?>
<!DOCTYPE svg PUBLIC "-//W3C//DTD SVG 1.1//EN" "http://www.w3.org/Graphics/SVG/1.1/DTD/svg11.dtd">
<svg width="100%" height="100%" viewBox="0 0 15 15" version="1.1" xmlns="http://www.w3.org/2000/svg" xmlns:xlink="http://www.w3.org/1999/xlink" xml:space="preserve" xmlns:serif="http://www.serif.com/" style="fill-rule:evenodd;clip-rule:evenodd;stroke-linejoin:round;stroke-miterlimit:1.41421;">
    <g transform="matrix(1,0,0,1,-200,-165)">
        <g transform="matrix(1,0,0,1,200,165)">
            <g id="ObjectIcons_EffectPlugin_nor">
                <g id="Icons">
                    <g transform="matrix(1,0,0,1,-40,-25)">
                        <g id="Base-Block" serif:id="Base Block">
                            <path d="M55,27.1C55,25.941 54.059,25 52.9,25L42.1,25C40.941,25 40,25.941 40,27.1L40,37.9C40,39.059 40.941,40 42.1,40L52.9,40C54.059,40 55,39.059 55,37.9L55,27.1Z" style="fill-opacity:0;"/>
                        </g>
                    </g>
                    <path d="M3.6,13L2.4,13C1.627,13 1,12.373 1,11.6L1,3.4C1,2.628 1.626,2.001 2.4,2L8.6,2C9.374,2.001 10,2.628 10,3.4L10,4.6C10,5.301 9.484,5.882 8.811,5.982L9.526,6.698L10.398,5.825C10.945,5.279 11.832,5.279 12.378,5.825L13.227,6.674C13.773,7.22 13.773,8.107 13.227,8.654L12.355,9.526L13.227,10.398C13.773,10.945 13.773,11.832 13.227,12.378L12.378,13.227C11.832,13.773 10.945,13.773 10.398,13.227L9.526,12.355L8.654,13.227C8.107,13.773 7.22,13.773 6.674,13.227L5.825,12.378C5.279,11.832 5.279,10.945 5.825,10.398L6.698,9.526L6.152,8.98L6.057,8.995L5.95,9L5.05,9L5,8.997L5,11.6C5,12.369 4.378,12.994 3.6,13ZM9.444,8.53L11.241,6.241L12.759,7.759L10.503,9.556L12.703,11.297L11.286,12.714L9.545,10.448L7.759,12.759L6.241,11.241L8.585,9.455L6.286,7.714L7.703,6.297L9.444,8.53ZM9,5L9,3L2,3L2,12L4,12L4,8L4.662,8L6.582,6L4,6L4,5L9,5Z" style="fill:rgb(196,196,196);"/>
                    <g transform="matrix(1,0,0,1,-280,-25)">
                        <path d="M289.444,33.53L291.241,31.241L292.759,32.759L290.503,34.556L292.703,36.297L291.286,37.714L289.545,35.448L287.759,37.759L286.241,36.241L288.585,34.455L286.286,32.714L287.703,31.297L289.444,33.53ZM282,28L289,28L289,30L284,30L284,31L286.582,31L284.662,33L284,33L284,37L282,37L282,28Z" style="fill:rgb(43,43,43);"/>
                    </g>
                </g>
            </g>
        </g>
    </g>
</svg>
