<?xml version="1.0" encoding="UTF-8" standalone="no"?>
<!DOCTYPE svg PUBLIC "-//W3C//DTD SVG 1.1//EN" "http://www.w3.org/Graphics/SVG/1.1/DTD/svg11.dtd">
<svg width="100%" height="100%" viewBox="0 0 15 15" version="1.1" xmlns="http://www.w3.org/2000/svg" xmlns:xlink="http://www.w3.org/1999/xlink" xml:space="preserve" xmlns:serif="http://www.serif.com/" style="fill-rule:evenodd;clip-rule:evenodd;stroke-linejoin:round;stroke-miterlimit:1.41421;">
    <g transform="matrix(1,0,0,1,-240,-125)">
        <g transform="matrix(1,0,0,1,240,125)">
            <g id="ObjectIcons_DynamicSequenceItem_nor">
                <g id="Icons">
                    <g transform="matrix(1,0,0,1,-40,-25)">
                        <g id="Base-Block" serif:id="Base Block">
                            <path d="M55,27.1C55,25.941 54.059,25 52.9,25L42.1,25C40.941,25 40,25.941 40,27.1L40,37.9C40,39.059 40.941,40 42.1,40L52.9,40C54.059,40 55,39.059 55,37.9L55,27.1Z" style="fill-opacity:0;"/>
                        </g>
                    </g>
                    <g transform="matrix(1,0,0,1,-260,-25)">
                        <path d="M272.25,30C273.216,30 274,30.784 274,31.75L274,33.25C274,34.127 273.353,34.854 272.511,34.981C271.643,36.763 269.771,37.985 267.038,37.985C266.546,37.983 266.212,37.727 266.01,37.256L266,35L262.75,35C261.784,35 261,34.216 261,33.25L261,31.75C261,30.876 261.643,30.15 262.481,30.021C263.346,28.23 265.221,27 267.962,27C268.454,27.003 268.788,27.259 268.99,27.73L269,30L272.25,30ZM264.633,31C265.244,29.859 266.531,29.071 268.015,29.071L268.015,27.929C265.826,27.929 263.96,29.214 263.277,31L262,31L262,34L270.359,34C269.745,35.133 268.463,35.914 266.985,35.914L266.985,37.056C269.168,37.056 271.03,35.779 271.717,34L273,34L273,31L264.633,31Z" style="fill:rgb(196,196,196);"/>
                    </g>
                    <g transform="matrix(1,0,0,1,-260,-25)">
                        <path d="M263.277,31C263.96,29.214 265.826,27.929 268.015,27.929L268.015,29.071C266.53,29.071 265.244,29.859 264.633,31L273,31L273,34L271.717,34C271.03,35.779 269.168,37.056 266.985,37.056L266.985,35.914C268.463,35.914 269.745,35.133 270.359,34L262,34L262,31L263.277,31Z"/>
                    </g>
                    <g transform="matrix(-11,0,0,0.272727,35,5.45455)">
                        <rect x="2" y="2" width="1" height="11" style="fill:rgb(57,57,57);"/>
                    </g>
                    <g transform="matrix(1,0,0,1,-260,-25)">
                        <path d="M265.443,30C265.111,30.284 264.835,30.623 264.633,31L263.277,31C263.413,30.645 263.596,30.309 263.818,30L265.443,30Z" style="fill:rgb(108,108,108);"/>
                    </g>
                    <g transform="matrix(1,0,0,1,-260,-25)">
                        <path d="M271.717,34C271.58,34.355 271.396,34.691 271.171,35L269.54,35C269.875,34.716 270.154,34.378 270.359,34L271.717,34Z" style="fill:rgb(108,108,108);"/>
                    </g>
                </g>
            </g>
        </g>
    </g>
</svg>
