<?xml version="1.0" encoding="UTF-8" standalone="no"?>
<!DOCTYPE svg PUBLIC "-//W3C//DTD SVG 1.1//EN" "http://www.w3.org/Graphics/SVG/1.1/DTD/svg11.dtd">
<svg width="100%" height="100%" viewBox="0 0 15 15" version="1.1" xmlns="http://www.w3.org/2000/svg" xmlns:xlink="http://www.w3.org/1999/xlink" xml:space="preserve" xmlns:serif="http://www.serif.com/" style="fill-rule:evenodd;clip-rule:evenodd;stroke-linejoin:round;stroke-miterlimit:1.41421;">
    <g transform="matrix(1,0,0,1,-60,-205)">
        <g transform="matrix(1,0,0,1,60,205)">
            <g id="ObjectIcons_ControlSurfaceBinding_nor">
                <g id="Icons">
                    <g transform="matrix(1,0,0,1,-40,-25)">
                        <g id="Base-Block" serif:id="Base Block">
                            <path d="M55,27.1C55,25.941 54.059,25 52.9,25L42.1,25C40.941,25 40,25.941 40,27.1L40,37.9C40,39.059 40.941,40 42.1,40L52.9,40C54.059,40 55,39.059 55,37.9L55,27.1Z" style="fill-opacity:0;"/>
                        </g>
                    </g>
                    <path d="M7.322,4.294L6.876,3.831C6.601,3.436 6.593,3.003 6.975,2.515L7.668,1.83C9.074,0.439 11.598,0.503 13.085,1.975C14.573,3.446 14.696,6.065 13.207,7.536L10.958,9.8L10.965,9.807C10.144,10.619 8.955,10.972 7.769,10.759L8.215,11.222C8.49,11.617 8.498,12.049 8.116,12.537L7.423,13.222C6.017,14.613 3.494,14.549 2.007,13.078C0.518,11.607 0.396,8.988 1.884,7.516L4.133,5.253L4.126,5.246C4.947,4.434 6.136,4.081 7.322,4.294ZM4.64,6.122L4.645,6.128L2.705,8.101L2.7,8.095C1.542,9.272 1.542,11.18 2.7,12.357C3.857,13.534 5.735,13.534 6.892,12.357L7.431,11.809L6.478,10.84L5.939,11.388C5.307,12.03 4.284,12.03 3.653,11.388C3.021,10.747 3.021,9.706 3.653,9.064L3.658,9.069L5.598,7.097L5.593,7.091C6.225,6.449 7.248,6.449 7.879,7.091L8.832,6.122C7.674,4.945 5.798,4.945 4.64,6.122ZM5.284,8.827L4.326,9.8C4.054,10.069 4.198,10.533 4.356,10.689C4.646,10.976 4.987,10.91 5.215,10.685L5.733,10.169C5.815,10.087 5.898,10.019 5.984,9.97C5.816,9.85 5.656,9.712 5.502,9.559C5.33,9.314 5.256,9.07 5.284,8.827ZM10.451,8.93L10.446,8.924L12.386,6.952L12.391,6.957C13.549,5.78 13.549,3.872 12.391,2.695C11.235,1.518 9.356,1.518 8.2,2.695L7.661,3.243L8.613,4.212L9.152,3.664C9.784,3.022 10.807,3.022 11.438,3.664C12.07,4.305 12.07,5.346 11.438,5.989L11.433,5.983L9.493,7.956L9.498,7.961C8.867,8.603 7.843,8.603 7.212,7.961L6.259,8.93C7.417,10.107 9.294,10.107 10.451,8.93ZM9.807,6.225L10.766,5.252C11.037,4.983 10.893,4.519 10.735,4.363C10.445,4.077 10.104,4.142 9.877,4.367L9.358,4.884C9.277,4.966 9.194,5.033 9.107,5.082C9.275,5.202 9.435,5.34 9.59,5.493C9.761,5.738 9.835,5.982 9.807,6.225Z" style="fill:rgb(196,196,196);"/>
                    <g transform="matrix(-1.07784,-4.09552e-16,2.4523e-16,-1.09589,4.64011,12.357)">
                        <path d="M0,5.689L-0.005,5.684L1.795,3.884L1.8,3.889C2.874,2.815 2.874,1.074 1.8,0C0.727,-1.074 -1.016,-1.074 -2.089,0L-2.589,0.5L-1.705,1.384L-1.205,0.884C-0.619,0.298 0.33,0.298 0.916,0.884C1.502,1.469 1.502,2.419 0.916,3.005L0.911,3L-0.889,4.8L-0.884,4.805C-1.47,5.391 -2.42,5.391 -3.005,4.805L-3.889,5.689C-2.815,6.763 -1.074,6.763 0,5.689"/>
                    </g>
                    <g transform="matrix(1.07784,0,0,1.09589,10.4511,2.69539)">
                        <path d="M0,5.689L-0.005,5.684L1.795,3.884L1.8,3.889C2.874,2.815 2.874,1.074 1.8,0C0.727,-1.074 -1.016,-1.074 -2.089,0L-2.589,0.5L-1.705,1.384L-1.205,0.884C-0.619,0.298 0.33,0.298 0.916,0.884C1.502,1.469 1.502,2.419 0.916,3.005L0.911,3L-0.889,4.8L-0.884,4.805C-1.47,5.391 -2.42,5.391 -3.005,4.805L-3.889,5.689C-2.815,6.763 -1.074,6.763 0,5.689"/>
                    </g>
                </g>
            </g>
        </g>
    </g>
</svg>
