<?xml version="1.0" encoding="UTF-8" standalone="no"?>
<!DOCTYPE svg PUBLIC "-//W3C//DTD SVG 1.1//EN" "http://www.w3.org/Graphics/SVG/1.1/DTD/svg11.dtd">
<svg width="100%" height="100%" viewBox="0 0 15 15" version="1.1" xmlns="http://www.w3.org/2000/svg" xmlns:xlink="http://www.w3.org/1999/xlink" xml:space="preserve" xmlns:serif="http://www.serif.com/" style="fill-rule:evenodd;clip-rule:evenodd;stroke-linejoin:round;stroke-miterlimit:1.41421;">
    <g transform="matrix(1,0,0,1,-40,-45)">
        <g transform="matrix(1,0,0,1,40,45)">
            <g id="ObjectIcons_Action_nor">
                <g id="Icons">
                    <g transform="matrix(1,0,0,1,-40,-25)">
                        <g id="Base-Block" serif:id="Base Block">
                            <path d="M55,27.1C55,25.941 54.059,25 52.9,25L42.1,25C40.941,25 40,25.941 40,27.1L40,37.9C40,39.059 40.941,40 42.1,40L52.9,40C54.059,40 55,39.059 55,37.9L55,27.1Z" style="fill-opacity:0;"/>
                        </g>
                    </g>
                    <path d="M11,10L4,10L4,9L0,9L0,6L4,6L4,5L11,5L11,6L15,6L15,9L11,9L11,10ZM10,7L10,6L5,6L5,7L1,7L1,8L5,8L5,9L10,9L10,8L14,8L14,7L10,7Z" style="fill:rgb(196,196,196);"/>
                    <g transform="matrix(-0.272727,0,0,1,14.5455,-1.13687e-13)">
                        <rect x="2" y="7" width="11" height="1" style="fill:rgb(57,57,57);"/>
                    </g>
                    <g transform="matrix(-0.272727,0,0,1,4.54545,-1.13687e-13)">
                        <rect x="2" y="7" width="11" height="1" style="fill:rgb(57,57,57);"/>
                    </g>
                    <g transform="matrix(-0.166667,0,0,1,11.6667,-1.44773e-13)">
                        <rect x="4" y="7" width="6" height="1" style="fill:rgb(160,160,160);"/>
                    </g>
                    <g transform="matrix(-0.166667,0,0,1,5.66667,-1.44773e-13)">
                        <rect x="4" y="7" width="6" height="1" style="fill:rgb(160,160,160);"/>
                    </g>
                    <g transform="matrix(-1,0,0,1,19,-1.13687e-13)">
                        <rect x="9" y="6" width="1" height="3" style="fill:rgb(108,108,108);"/>
                    </g>
                    <g transform="matrix(-1,0,0,1,14,-1.13687e-13)">
                        <rect x="5" y="6" width="4" height="3" style="fill:rgb(43,43,43);"/>
                    </g>
                </g>
            </g>
        </g>
    </g>
</svg>
