<?xml version="1.0" encoding="UTF-8" standalone="no"?>
<!DOCTYPE svg PUBLIC "-//W3C//DTD SVG 1.1//EN" "http://www.w3.org/Graphics/SVG/1.1/DTD/svg11.dtd">
<svg width="100%" height="100%" viewBox="0 0 15 15" version="1.1" xmlns="http://www.w3.org/2000/svg" xmlns:xlink="http://www.w3.org/1999/xlink" xml:space="preserve" xmlns:serif="http://www.serif.com/" style="fill-rule:evenodd;clip-rule:evenodd;stroke-linejoin:round;stroke-miterlimit:1.41421;">
    <g transform="matrix(1,0,0,1,-160,-165)">
        <g transform="matrix(1,0,0,1,160,165.067)">
            <g id="ObjectIcons_Conversion_nor">
                <g id="Icons">
                    <g transform="matrix(1,0,0,1,-40,-25.0671)">
                        <g id="Base-Block" serif:id="Base Block">
                            <path d="M55,27.1C55,25.941 54.059,25 52.9,25L42.1,25C40.941,25 40,25.941 40,27.1L40,37.9C40,39.059 40.941,40 42.1,40L52.9,40C54.059,40 55,39.059 55,37.9L55,27.1Z" style="fill-opacity:0;"/>
                        </g>
                    </g>
                    <g>
                        <g transform="matrix(1,0,0,1,0,-0.0660754)">
                            <path d="M9.871,2L12.59,2C13.376,2.008 14,2.637 14,3.41L14,3.59C14,4.363 13.376,4.992 12.59,5L7.413,5C7.678,5.201 7.887,5.397 8.042,5.574C8.144,5.69 8.232,5.792 8.307,5.868C8.402,5.963 8.514,6.091 8.642,6.236C9.132,6.799 9.997,7.471 10.5,7.471C11.003,7.471 12.083,6.362 12.836,5.536C12.891,5.476 12.945,5.421 13,5.362C13.624,4.795 13.966,4.983 14,6L14,9L13.131,10.108C13.641,10.32 14,10.823 14,11.41L14,11.59C14,12.363 13.376,12.992 12.59,13L9.87,13L7.845,14.999L7.112,14.999L5.165,13L2.41,13C1.632,13 1,12.368 1,11.59L1,11.41C1,10.632 1.632,10 2.41,10L7.294,10C7.223,9.934 7.152,9.863 7.081,9.788C6.975,9.676 6.891,9.571 6.816,9.495C6.721,9.4 6.609,9.272 6.481,9.126C5.991,8.564 5.019,7.553 4.5,7.553C3.981,7.553 2.874,8.701 2.147,9.5C2.098,9.555 2.049,9.603 2,9.657C1.318,10.121 1.013,9.845 1,9L1,6L1.965,4.928C1.405,4.742 1,4.213 1,3.59L1,3.41C1,2.632 1.632,2 2.41,2L5.166,2L7.193,-0.001L7.922,-0.001L9.871,2ZM13,11L2,11L2,12L5.501,12L7.5,14L9.499,12L13,12L13,11ZM13,6.829C12.945,6.888 12.891,6.943 12.836,7.003C12.083,7.829 11.372,8.609 10.5,8.609C9.597,8.609 8.855,7.901 8.365,7.338C8.237,7.193 8.125,7.065 8.03,6.97C7.955,6.894 7.867,6.792 7.765,6.676C7.178,6.003 6.084,4.961 4.5,4.961C3.486,4.961 2.68,5.473 2,6.09L2,8.242C2.049,8.188 2.098,8.14 2.147,8.085C2.874,7.286 3.625,6.461 4.5,6.461C5.403,6.461 6.145,7.1 6.635,7.662C6.763,7.808 6.875,7.936 6.97,8.031C7.045,8.107 7.133,8.208 7.235,8.324C7.822,8.997 8.916,10.109 10.5,10.109C11.527,10.109 12.318,9.608 13,8.983L13,6.829ZM5.5,3L2,3L2,4L13,4L13,3L9.5,3L7.5,1L5.5,3Z" style="fill:rgb(196,196,196);"/>
                        </g>
                        <g transform="matrix(1,0,0,1,-200,-25.0661)">
                            <path d="M213,37L209.499,37L207.5,39L205.501,37L202,37L202,36L213,36L213,37ZM209.5,28L213,28L213,29L202,29L202,28L205.5,28L207.5,26L209.5,28Z" style="fill:rgb(57,57,57);"/>
                        </g>
                        <g transform="matrix(1,0,0,1,13,7.96362)">
                            <path d="M0,-1.201C-0.055,-1.142 -0.109,-1.087 -0.164,-1.027C-0.917,-0.201 -1.628,0.579 -2.5,0.579C-3.403,0.579 -4.145,-0.129 -4.635,-0.692C-4.763,-0.837 -4.875,-0.965 -4.97,-1.06C-5.045,-1.136 -5.133,-1.238 -5.235,-1.354C-5.822,-2.027 -6.916,-3.069 -8.5,-3.069C-9.514,-3.069 -10.32,-2.557 -11,-1.94L-11,0.212C-10.951,0.158 -10.902,0.11 -10.853,0.055C-10.126,-0.744 -9.375,-1.569 -8.5,-1.569C-7.597,-1.569 -6.855,-0.93 -6.365,-0.368C-6.237,-0.222 -6.125,-0.094 -6.03,0.001C-5.955,0.077 -5.867,0.178 -5.765,0.294C-5.178,0.967 -4.084,2.079 -2.5,2.079C-1.473,2.079 -0.682,1.578 0,0.953L0,-1.201Z"/>
                        </g>
                    </g>
                </g>
            </g>
        </g>
    </g>
</svg>
