<?xml version="1.0" encoding="UTF-8" standalone="no"?>
<!DOCTYPE svg PUBLIC "-//W3C//DTD SVG 1.1//EN" "http://www.w3.org/Graphics/SVG/1.1/DTD/svg11.dtd">
<svg width="100%" height="100%" viewBox="0 0 15 15" version="1.1" xmlns="http://www.w3.org/2000/svg" xmlns:xlink="http://www.w3.org/1999/xlink" xml:space="preserve" xmlns:serif="http://www.serif.com/" style="fill-rule:evenodd;clip-rule:evenodd;stroke-linejoin:round;stroke-miterlimit:1.41421;">
    <g transform="matrix(1,0,0,1,-300,-125)">
        <g transform="matrix(1,0,0,1,300,125)">
            <g id="ObjectIcons_MusicPlaylistSequenceGroup_nor">
                <g id="Icons">
                    <g transform="matrix(1,0,0,1,-40,-25)">
                        <g id="Base-Block" serif:id="Base Block">
                            <path d="M55,27.1C55,25.941 54.059,25 52.9,25L42.1,25C40.941,25 40,25.941 40,27.1L40,37.9C40,39.059 40.941,40 42.1,40L52.9,40C54.059,40 55,39.059 55,37.9L55,27.1Z" style="fill-opacity:0;"/>
                        </g>
                    </g>
                    <g id="Clipped-Base" serif:id="Clipped Base">
                        <path d="M12.2,14L2.8,14C1.807,14 1,13.193 1,12.2L1,10.8C1,10.289 1.214,9.827 1.558,9.5C1.214,9.173 1,8.711 1,8.2L1,6.8C1,6.289 1.214,5.827 1.558,5.5C1.214,5.173 1,4.711 1,4.2L1,2.8C1,1.808 1.804,1.002 2.8,1L9.261,1L14,5.739L14,8.2C14,8.711 13.786,9.173 13.442,9.5C13.786,9.827 14,10.289 14,10.8L14,12.2C14,13.191 13.197,13.996 12.2,14ZM13,10L2,10L2,13L13,13L13,10ZM13,6L2,6L2,9L13,9L13,6ZM12,5L9,2L2,2L2,5L12,5Z" style="fill:rgb(196,196,196);"/>
                    </g>
                    <g transform="matrix(3.66667,0,0,1,-20,0)">
                        <rect x="6" y="6" width="3" height="3" style="fill:rgb(108,108,108);"/>
                    </g>
                    <g transform="matrix(3.66667,0,0,1,-20,4)">
                        <rect x="6" y="6" width="3" height="3" style="fill:rgb(108,108,108);"/>
                    </g>
                    <g transform="matrix(1,0,0,1,0,-8)">
                        <path d="M9,10L12,13L2,13L2,10L9,10Z"/>
                    </g>
                </g>
            </g>
        </g>
    </g>
</svg>
