<?xml version="1.0" encoding="UTF-8" standalone="no"?>
<!DOCTYPE svg PUBLIC "-//W3C//DTD SVG 1.1//EN" "http://www.w3.org/Graphics/SVG/1.1/DTD/svg11.dtd">
<svg width="100%" height="100%" viewBox="0 0 15 15" version="1.1" xmlns="http://www.w3.org/2000/svg" xmlns:xlink="http://www.w3.org/1999/xlink" xml:space="preserve" xmlns:serif="http://www.serif.com/" style="fill-rule:evenodd;clip-rule:evenodd;stroke-linejoin:round;stroke-miterlimit:1.41421;">
    <g transform="matrix(1,0,0,1,-100,-285)">
        <g transform="matrix(1,0,0,1,100,285)">
            <g id="ObjectIcons_RayObstruction_nor">
                <g id="Icons">
                    <g transform="matrix(1,0,0,1,-40,-25)">
                        <g id="Base-Block" serif:id="Base Block">
                            <path d="M55,27.1C55,25.941 54.059,25 52.9,25L42.1,25C40.941,25 40,25.941 40,27.1L40,37.9C40,39.059 40.941,40 42.1,40L52.9,40C54.059,40 55,39.059 55,37.9L55,27.1Z" style="fill-opacity:0;"/>
                        </g>
                    </g>
                    <g transform="matrix(0.111111,0,0,9,-22.8889,-652)">
                        <path d="M269.523,72.889L270.045,72.89L270.563,72.891L271.076,72.892L271.581,72.894L272.078,72.896L272.565,72.898L273.039,72.901L273.5,72.904L273.946,72.907L274.374,72.911L274.785,72.915L275.176,72.919L275.546,72.924L275.894,72.929L276.219,72.934L276.519,72.939L276.794,72.944L277.043,72.95L277.264,72.956L277.457,72.962L277.622,72.968L277.757,72.974L277.863,72.981L277.939,72.987L277.985,72.994L278,73L278,74L277.985,74.006L277.939,74.013L277.863,74.019L277.757,74.026L277.622,74.032L277.457,74.038L277.264,74.044L277.043,74.05L276.794,74.056L276.519,74.061L276.219,74.066L275.894,74.071L275.546,74.076L275.176,74.081L274.785,74.085L274.374,74.089L273.946,74.093L273.5,74.096L273.039,74.099L272.565,74.102L272.078,74.104L271.581,74.106L271.076,74.108L270.563,74.109L270.045,74.11L269.523,74.111L269,74.111L260,74.111L259.477,74.111L258.955,74.11L258.437,74.109L257.924,74.108L257.419,74.106L256.922,74.104L256.435,74.102L255.961,74.099L255.5,74.096L255.054,74.093L254.626,74.089L254.215,74.085L253.824,74.081L253.454,74.076L253.106,74.071L252.781,74.066L252.481,74.061L252.206,74.056L251.957,74.05L251.736,74.044L251.543,74.038L251.378,74.032L251.243,74.026L251.137,74.019L251.061,74.013L251.015,74.006L251,74L251,73L251.015,72.994L251.061,72.987L251.137,72.981L251.243,72.974L251.378,72.968L251.543,72.962L251.736,72.956L251.957,72.95L252.206,72.944L252.481,72.939L252.781,72.934L253.106,72.929L253.454,72.924L253.824,72.919L254.215,72.915L254.626,72.911L255.054,72.907L255.5,72.904L255.961,72.901L256.435,72.898L256.922,72.896L257.419,72.894L257.924,72.892L258.437,72.891L258.955,72.89L259.477,72.889L260,72.889L269,72.889L269.523,72.889ZM260,73L260,74L269,74L269,73L260,73Z" style="fill:rgb(196,196,196);"/>
                        <rect x="260" y="73" width="9" height="1" style="fill:rgb(57,57,57);"/>
                    </g>
                    <g transform="matrix(1,0,0,1,-100,-245)">
                        <path d="M112,250C108.765,244.236 103.604,244.797 100,251C100.02,252.8 100.954,253.528 102.489,252.644C105.364,248.458 106.84,247.236 109.911,251.933L112,250Z" style="fill:rgb(196,196,196);"/>
                    </g>
                    <g transform="matrix(1,0,0,1.01366,-300,-64.97)">
                        <path d="M306.505,65.987L306.51,65.987L306.615,65.99L306.621,65.99L306.724,65.995L306.73,65.996L306.832,66.003L306.838,66.004L306.938,66.014L306.945,66.015L307.044,66.027L307.05,66.028L307.147,66.043L307.154,66.044L307.249,66.061L307.256,66.062L307.35,66.082L307.357,66.083L307.45,66.105L307.456,66.106L307.548,66.13L307.554,66.132L307.644,66.158L307.651,66.16L307.74,66.188L307.746,66.19L307.833,66.221L307.84,66.223L307.926,66.256L307.932,66.258L308.016,66.292L308.022,66.295L308.106,66.331L308.112,66.334L308.194,66.373L308.2,66.375L308.281,66.416L308.286,66.418L308.366,66.461L308.371,66.463L308.45,66.507L308.455,66.51L308.532,66.556L308.537,66.559L308.614,66.607L308.618,66.61L308.694,66.659L308.698,66.662L308.772,66.713L308.777,66.716L308.85,66.768L308.854,66.771L308.926,66.825L308.93,66.828L309.001,66.883L309.005,66.886L309.075,66.943L309.079,66.946L309.148,67.004L309.151,67.007L309.22,67.067L309.223,67.069L309.291,67.13L309.294,67.133L309.361,67.195L309.364,67.198L309.43,67.261L309.433,67.264L309.499,67.329L309.501,67.331L309.569,67.399L309.635,67.469L309.701,67.539L309.767,67.61L309.832,67.683L309.896,67.756L309.96,67.83L310.024,67.906L310.147,68.055L310.15,68.057L310.272,68.21L310.274,68.212L310.397,68.368L310.398,68.37L310.521,68.53L310.644,68.693L310.768,68.857L310.892,69.024L311.143,69.362L311.271,69.533L311.401,69.706L310.599,70.294L310.467,70.12L310.467,70.119L310.338,69.947L310.337,69.946L310.086,69.608L309.963,69.443L309.842,69.281L309.722,69.123L309.604,68.969L309.486,68.819L309.369,68.674L309.252,68.533L309.195,68.465L309.137,68.398L309.079,68.332L309.021,68.268L308.963,68.205L308.905,68.143L308.847,68.082L308.789,68.024L308.731,67.966L308.672,67.91L308.613,67.856L308.555,67.803L308.496,67.752L308.436,67.702L308.377,67.654L308.317,67.607L308.256,67.562L308.196,67.519L308.135,67.477L308.073,67.437L308.011,67.398L307.949,67.361L307.886,67.326L307.822,67.292L307.757,67.26L307.692,67.23L307.626,67.201L307.559,67.174L307.492,67.148L307.423,67.124L307.353,67.102L307.282,67.081L307.21,67.063L307.136,67.045L307.062,67.03L306.985,67.016L306.907,67.004L306.828,66.994L306.747,66.986L306.664,66.98L306.579,66.976L306.492,66.974L306.447,66.973L306.401,66.974L306.356,66.975L306.311,66.977L306.266,66.979L306.221,66.983L306.176,66.987L306.132,66.991L306.087,66.997L306.043,67.003L305.998,67.009L305.954,67.017L305.91,67.025L305.866,67.034L305.822,67.043L305.778,67.053L305.735,67.064L305.691,67.075L305.648,67.087L305.606,67.099L305.517,67.127L305.431,67.157L305.345,67.189L305.259,67.224L305.173,67.261L305.088,67.301L305.002,67.344L304.917,67.388L304.833,67.435L304.748,67.485L304.664,67.536L304.58,67.59L304.496,67.646L304.413,67.705L304.33,67.765L304.247,67.828L304.165,67.893L304.082,67.96L304.001,68.028L303.919,68.099L303.838,68.171L303.758,68.246L303.677,68.322L303.597,68.4L303.518,68.479L303.439,68.56L303.361,68.643L303.282,68.727L303.205,68.813L303.128,68.899L303.051,68.988L302.975,69.077L302.899,69.168L302.824,69.26L302.749,69.353L302.675,69.448L302.601,69.543L302.527,69.639L302.455,69.736L302.382,69.834L302.311,69.932L302.239,70.032L302.169,70.131L302.099,70.231L301.96,70.435L301.823,70.639L301.688,70.845L301.556,71.052L301.425,71.26L300.575,70.74L300.708,70.529L300.709,70.527L300.845,70.315L300.846,70.313L300.985,70.101L300.986,70.099L301.127,69.888L301.129,69.886L301.272,69.677L301.273,69.675L301.346,69.57L301.347,69.569L301.421,69.465L301.422,69.464L301.496,69.36L301.497,69.359L301.572,69.256L301.573,69.255L301.648,69.153L301.649,69.151L301.725,69.05L301.727,69.048L301.803,68.947L301.805,68.946L301.882,68.846L301.883,68.844L301.962,68.745L301.963,68.743L302.042,68.645L302.043,68.643L302.123,68.546L302.125,68.544L302.205,68.448L302.206,68.446L302.287,68.351L302.289,68.349L302.371,68.255L302.373,68.253L302.455,68.16L302.457,68.158L302.54,68.066L302.542,68.064L302.626,67.973L302.628,67.971L302.713,67.882L302.715,67.88L302.8,67.792L302.803,67.79L302.889,67.704L302.891,67.701L302.978,67.616L302.981,67.614L303.068,67.531L303.071,67.528L303.16,67.447L303.162,67.444L303.252,67.364L303.254,67.362L303.345,67.284L303.348,67.281L303.439,67.205L303.442,67.202L303.534,67.127L303.537,67.125L303.63,67.052L303.633,67.049L303.726,66.979L303.73,66.976L303.824,66.907L303.828,66.904L303.924,66.838L303.928,66.835L304.024,66.771L304.028,66.768L304.125,66.705L304.129,66.703L304.227,66.643L304.231,66.64L304.33,66.582L304.335,66.579L304.435,66.524L304.44,66.521L304.54,66.469L304.545,66.466L304.647,66.416L304.652,66.413L304.755,66.365L304.76,66.363L304.864,66.318L304.87,66.315L304.974,66.273L304.98,66.271L305.085,66.231L305.091,66.229L305.197,66.192L305.204,66.19L305.31,66.157L305.315,66.155L305.37,66.139L305.373,66.138L305.427,66.124L305.431,66.123L305.485,66.108L305.489,66.108L305.543,66.094L305.547,66.093L305.601,66.081L305.605,66.08L305.66,66.068L305.663,66.068L305.718,66.057L305.722,66.056L305.778,66.046L305.782,66.045L305.837,66.036L305.841,66.035L305.896,66.027L305.9,66.026L305.956,66.019L305.96,66.018L306.016,66.011L306.02,66.011L306.077,66.005L306.08,66.005L306.137,66L306.141,65.999L306.198,65.995L306.202,65.995L306.259,65.992L306.263,65.991L306.32,65.989L306.324,65.989L306.381,65.987L306.385,65.987L306.443,65.987L306.447,65.987L306.505,65.987Z"/>
                    </g>
                    <g transform="matrix(1.66667,0,0,1.66667,-438.333,-115)">
                        <circle cx="270.5" cy="73.5" r="1.5" style="fill:rgb(196,196,196);"/>
                    </g>
                    <g transform="matrix(1,0,0,1,-258,-66)">
                        <circle cx="270.5" cy="73.5" r="1.5"/>
                    </g>
                </g>
            </g>
        </g>
    </g>
</svg>
