<?xml version="1.0" encoding="UTF-8" standalone="no"?>
<!DOCTYPE svg PUBLIC "-//W3C//DTD SVG 1.1//EN" "http://www.w3.org/Graphics/SVG/1.1/DTD/svg11.dtd">
<svg width="100%" height="100%" viewBox="0 0 15 15" version="1.1" xmlns="http://www.w3.org/2000/svg" xmlns:xlink="http://www.w3.org/1999/xlink" xml:space="preserve" xmlns:serif="http://www.serif.com/" style="fill-rule:evenodd;clip-rule:evenodd;stroke-linejoin:round;stroke-miterlimit:1.41421;">
    <g transform="matrix(1,0,0,1,-220,-165)">
        <g transform="matrix(1,0,0,1,220,165)">
            <g id="ObjectIcons_LFO_nor">
                <g id="Icons">
                    <g transform="matrix(1,0,0,1,-40,-25)">
                        <g id="Base-Block" serif:id="Base Block">
                            <path d="M55,27.1C55,25.941 54.059,25 52.9,25L42.1,25C40.941,25 40,25.941 40,27.1L40,37.9C40,39.059 40.941,40 42.1,40L52.9,40C54.059,40 55,39.059 55,37.9L55,27.1Z" style="fill-opacity:0;"/>
                        </g>
                    </g>
                    <path d="M4.685,12L1,12L1,8.996C0.441,8.956 0,8.489 0,7.92L0,7.08C0,6.485 0.483,6.001 1.08,6L1.203,6C1.727,3.529 2.565,0.751 5.015,0.751C7.519,0.751 8.399,3.95 8.894,6L10.354,6L10.354,3L14.039,3L14.039,6L13.92,6C14.518,6.002 15,6.485 15,7.08L15,7.92C15,8.515 14.518,8.998 13.92,9L13.771,9C13.255,11.521 12.331,14.235 10.06,14.235C8.153,14.235 6.981,12.664 6.07,9L4.685,9L4.685,12ZM3.622,9L2,9L2,10.997L3.622,10.997L3.622,9ZM10.203,9L9.671,9C9.845,9.564 9.97,9.879 9.97,9.879C9.97,9.879 10.042,9.699 10.203,9ZM12.76,9C12.832,8.67 12.9,8.336 12.966,8L14,8L14,7L9.135,7L9.403,8L11.435,8C11.371,8.314 11.298,8.656 11.218,9L11.217,9C10.904,10.35 10.477,11.75 10,11.75C9.738,11.75 9.179,11.25 8.373,7.907C8.318,7.675 8.269,7.471 8.226,7.308C8.185,7.154 8.138,6.961 8.085,6.743C7.607,4.754 6.884,1.75 5,1.75C3.396,1.75 2.732,3.733 2.24,6L2.24,6L2.133,6.5L2.031,7L1,7L1,8L5.844,8L5.576,7L3.561,7C3.625,6.688 3.701,6.343 3.781,6L3.783,6C4.095,4.649 4.522,3.25 5,3.25C5.263,3.25 5.822,3.75 6.627,7.094C6.683,7.326 6.732,7.53 6.775,7.693C6.816,7.847 6.863,8.04 6.915,8.258C7.394,10.247 8.117,13.25 10,13.25C11.604,13.25 12.268,11.267 12.76,9L12.76,9ZM5.323,6C5.148,5.41 5.031,5.098 5.031,5.098C5.031,5.098 4.946,5.29 4.776,6L5.323,6ZM13.039,4.003L11.417,4.003L11.417,6L13.039,6L13.039,4.003Z" style="fill:rgb(196,196,196);"/>
                    <g transform="matrix(-0.811106,-2.33735e-16,-3.55533e-16,-1.99658,111.994,107.826)">
                        <rect x="122" y="51" width="2" height="1"/>
                    </g>
                    <path d="M14,8L9.403,8L9.135,7L14,7L14,8ZM1,8L1,7L5.576,7L5.844,8L1,8Z" style="fill:rgb(57,57,57);"/>
                    <g transform="matrix(0.811106,5.55112e-17,-1.66533e-16,1.99658,-96.9549,-92.8256)">
                        <rect x="122" y="51" width="2" height="1"/>
                    </g>
                    <g transform="matrix(1,0,0,1,-120,-45)">
                        <path d="M132.966,53C132.9,53.336 132.832,53.671 132.76,54L131.218,54C131.298,53.655 131.371,53.314 131.435,53L132.966,53ZM123.781,51C123.701,51.344 123.628,51.686 123.563,52L122.033,52C122.1,51.664 122.168,51.329 122.24,51L123.781,51Z" style="fill:rgb(149,149,149);"/>
                    </g>
                    <path d="M2.24,6C2.732,3.733 3.396,1.75 5,1.75C6.884,1.75 7.607,4.754 8.085,6.743C8.138,6.961 8.185,7.154 8.226,7.308C8.269,7.471 8.318,7.675 8.373,7.907C9.179,11.25 9.738,11.75 10,11.75C10.477,11.75 10.904,10.35 11.217,9L12.76,9C12.268,11.267 11.604,13.25 10,13.25C8.117,13.25 7.394,10.247 6.915,8.258C6.863,8.04 6.816,7.847 6.775,7.693C6.732,7.53 6.683,7.326 6.627,7.094C5.822,3.75 5.263,3.25 5,3.25C4.522,3.25 4.095,4.65 3.783,6L2.24,6Z"/>
                </g>
            </g>
        </g>
    </g>
</svg>
