<?xml version="1.0" encoding="UTF-8" standalone="no"?>
<!DOCTYPE svg PUBLIC "-//W3C//DTD SVG 1.1//EN" "http://www.w3.org/Graphics/SVG/1.1/DTD/svg11.dtd">
<svg width="100%" height="100%" viewBox="0 0 15 15" version="1.1" xmlns="http://www.w3.org/2000/svg" xmlns:xlink="http://www.w3.org/1999/xlink" xml:space="preserve" xmlns:serif="http://www.serif.com/" style="fill-rule:evenodd;clip-rule:evenodd;stroke-linejoin:round;stroke-miterlimit:1.41421;">
    <g transform="matrix(1,0,0,1,-180,-285)">
        <g transform="matrix(1,0,0,1,180,285)">
            <g id="ObjectIcons_HDR_nor">
                <g id="Icons">
                    <g transform="matrix(1,0,0,1,-40,-25)">
                        <g id="Object-Icon-Base" serif:id="Object Icon Base">
                            <path d="M55,27.1C55,25.941 54.059,25 52.9,25L42.1,25C40.941,25 40,25.941 40,27.1L40,37.9C40,39.059 40.941,40 42.1,40L52.9,40C54.059,40 55,39.059 55,37.9L55,27.1Z" style="fill-opacity:0;"/>
                        </g>
                    </g>
                    <g transform="matrix(0.737548,0,0,1.08508,-177.373,-73.636)">
                        <path d="M243.261,71.55L243.32,71.552L243.38,71.557L243.438,71.563L243.497,71.571L243.555,71.581L243.612,71.592L243.668,71.605L243.723,71.62L243.778,71.636L243.831,71.654L243.883,71.674L243.934,71.695L243.983,71.718L244.031,71.742L244.078,71.767L244.122,71.794L244.165,71.822L244.206,71.851L244.245,71.882L244.282,71.914L244.317,71.946L244.35,71.98L244.38,72.015L244.408,72.05L244.434,72.087L244.458,72.124L244.479,72.162L244.498,72.2L244.514,72.239L244.528,72.278L244.539,72.318L244.547,72.358L244.553,72.399L244.557,72.439L244.557,72.479L244.544,73.392L244.571,73.392L244.584,72.462L244.586,72.42L244.59,72.379L244.598,72.339L244.608,72.298L244.62,72.258L244.636,72.218L244.653,72.179L244.674,72.14L244.697,72.102L244.722,72.065L244.75,72.028L244.78,71.993L244.813,71.958L244.847,71.924L244.884,71.892L244.923,71.86L244.964,71.83L245.007,71.801L245.052,71.774L245.099,71.748L245.147,71.723L245.197,71.699L245.248,71.678L245.301,71.658L245.355,71.639L245.41,71.622L245.466,71.607L245.523,71.593L245.581,71.582L245.64,71.572L245.699,71.563L245.759,71.557L245.819,71.553L245.879,71.55L245.94,71.549L247.269,71.549L247.328,71.55L247.387,71.552L247.446,71.557L247.505,71.563L247.563,71.571L247.62,71.58L247.677,71.591L247.733,71.604L247.788,71.619L247.842,71.635L247.895,71.653L247.947,71.672L247.998,71.693L248.047,71.716L248.095,71.739L248.141,71.764L248.185,71.791L248.228,71.819L248.269,71.848L248.308,71.878L248.345,71.909L248.38,71.942L248.413,71.975L248.443,72.01L248.472,72.045L248.498,72.081L248.522,72.118L248.543,72.155L248.562,72.193L248.579,72.232L248.593,72.271L248.604,72.31L248.613,72.35L248.62,72.39L248.624,72.43L248.625,72.47L248.625,77.078L248.624,77.119L248.62,77.159L248.613,77.199L248.604,77.238L248.593,77.278L248.579,77.317L248.562,77.356L248.543,77.394L248.522,77.431L248.498,77.468L248.472,77.504L248.443,77.539L248.413,77.574L248.38,77.607L248.345,77.639L248.308,77.671L248.269,77.701L248.228,77.73L248.185,77.758L248.141,77.784L248.095,77.81L248.047,77.833L247.998,77.856L247.947,77.877L247.895,77.896L247.842,77.914L247.788,77.93L247.733,77.944L247.677,77.957L247.62,77.969L247.563,77.978L247.505,77.986L247.446,77.992L247.387,77.996L247.328,77.999L247.269,78L245.94,78L245.879,77.999L245.819,77.996L245.759,77.992L245.699,77.985L245.64,77.977L245.581,77.967L245.523,77.955L245.466,77.942L245.41,77.927L245.355,77.91L245.301,77.891L245.248,77.871L245.197,77.849L245.147,77.826L245.099,77.801L245.052,77.775L245.007,77.748L244.964,77.719L244.923,77.688L244.884,77.657L244.847,77.624L244.813,77.591L244.78,77.556L244.75,77.521L244.722,77.484L244.697,77.447L244.674,77.409L244.653,77.37L244.636,77.331L244.62,77.291L244.608,77.251L244.598,77.21L244.59,77.169L244.586,77.128L244.584,77.087L244.571,76.157L244.544,76.157L244.557,77.069L244.557,77.11L244.553,77.15L244.547,77.191L244.539,77.231L244.528,77.27L244.514,77.31L244.498,77.349L244.479,77.387L244.458,77.425L244.434,77.462L244.408,77.498L244.38,77.534L244.35,77.569L244.317,77.603L244.282,77.635L244.245,77.667L244.206,77.698L244.165,77.727L244.122,77.755L244.078,77.782L244.031,77.807L243.983,77.831L243.934,77.854L243.883,77.875L243.831,77.895L243.778,77.913L243.723,77.929L243.668,77.944L243.612,77.957L243.555,77.968L243.497,77.978L243.438,77.986L243.38,77.992L243.32,77.996L243.261,77.999L243.202,78L241.846,78L241.787,77.999L241.728,77.996L241.669,77.992L241.61,77.986L241.552,77.978L241.495,77.969L241.438,77.957L241.382,77.944L241.327,77.93L241.273,77.914L241.22,77.896L241.168,77.877L241.117,77.856L241.068,77.833L241.02,77.81L240.974,77.784L240.93,77.758L240.887,77.73L240.846,77.701L240.807,77.671L240.77,77.639L240.735,77.607L240.702,77.574L240.672,77.539L240.643,77.504L240.617,77.468L240.593,77.431L240.572,77.394L240.553,77.356L240.536,77.317L240.522,77.278L240.511,77.238L240.502,77.199L240.495,77.159L240.491,77.119L240.49,77.078L240.49,72.47L240.491,72.43L240.495,72.39L240.502,72.35L240.511,72.31L240.522,72.271L240.536,72.232L240.553,72.193L240.572,72.155L240.593,72.118L240.617,72.081L240.643,72.045L240.672,72.01L240.702,71.975L240.735,71.942L240.77,71.909L240.807,71.878L240.846,71.848L240.887,71.819L240.93,71.791L240.974,71.764L241.02,71.739L241.068,71.716L241.117,71.693L241.168,71.672L241.22,71.653L241.273,71.635L241.327,71.619L241.382,71.604L241.438,71.591L241.495,71.58L241.552,71.571L241.61,71.563L241.669,71.557L241.728,71.552L241.787,71.55L241.846,71.549L243.202,71.549L243.261,71.55ZM241.846,72.47L241.846,77.078L243.202,77.078L243.175,75.235L245.913,75.235L245.94,77.078L247.269,77.078L247.269,72.47L245.94,72.47L245.913,74.314L243.175,74.314L243.202,72.47L241.846,72.47Z" style="fill:rgb(196,196,196);"/>
                        <path d="M247.269,77.078L245.94,77.078L245.913,75.235L243.175,75.235L243.202,77.078L241.846,77.078L241.846,72.47L243.202,72.47L243.175,74.314L245.913,74.314L245.94,72.47L247.269,72.47L247.269,77.078Z"/>
                        <path d="M250.476,71.549L250.637,71.551L250.801,71.554L250.969,71.558L251.137,71.566L251.229,71.571L251.318,71.577L251.408,71.584L251.499,71.593L251.592,71.603L251.686,71.614L251.781,71.627L251.877,71.641L251.974,71.658L252.072,71.677L252.171,71.698L252.271,71.721L252.371,71.748L252.471,71.776L252.572,71.808L252.672,71.843L252.772,71.881L252.871,71.922L252.968,71.966L253.065,72.014L253.159,72.065L253.25,72.118L253.339,72.175L253.425,72.235L253.507,72.297L253.586,72.362L253.661,72.429L253.733,72.499L253.801,72.57L253.864,72.644L253.924,72.719L253.981,72.796L254.033,72.874L254.082,72.954L254.128,73.036L254.17,73.119L254.209,73.204L254.245,73.29L254.278,73.378L254.308,73.467L254.335,73.558L254.36,73.651L254.382,73.746L254.402,73.842L254.419,73.941L254.433,74.041L254.446,74.144L254.456,74.249L254.464,74.357L254.469,74.466L254.472,74.579L254.474,74.694L254.472,74.822L254.467,74.947L254.459,75.069L254.448,75.189L254.433,75.306L254.415,75.421L254.394,75.533L254.369,75.642L254.342,75.749L254.311,75.854L254.276,75.956L254.238,76.057L254.197,76.155L254.152,76.251L254.104,76.344L254.052,76.436L253.996,76.525L253.937,76.612L253.874,76.696L253.808,76.779L253.739,76.859L253.665,76.936L253.589,77.011L253.509,77.083L253.426,77.152L253.34,77.219L253.251,77.282L253.16,77.343L253.066,77.401L252.971,77.455L252.874,77.506L252.776,77.554L252.676,77.599L252.575,77.641L252.474,77.68L252.373,77.716L252.272,77.749L252.171,77.78L252.071,77.807L251.971,77.833L251.872,77.855L251.774,77.876L251.678,77.894L251.583,77.91L251.489,77.925L251.396,77.938L251.305,77.949L251.217,77.959L251.129,77.967L251.039,77.974L250.88,77.985L250.724,77.992L250.577,77.997L250.44,77.999L250.313,78L250.097,78L248.625,78L248.566,77.999L248.507,77.996L248.448,77.992L248.39,77.986L248.332,77.978L248.274,77.969L248.217,77.957L248.161,77.944L248.106,77.93L248.052,77.914L247.999,77.896L247.947,77.877L247.896,77.856L247.847,77.833L247.8,77.81L247.753,77.784L247.709,77.758L247.666,77.73L247.625,77.701L247.586,77.671L247.549,77.639L247.514,77.607L247.481,77.574L247.451,77.539L247.422,77.504L247.396,77.468L247.372,77.431L247.351,77.394L247.332,77.356L247.315,77.317L247.301,77.278L247.29,77.238L247.281,77.199L247.274,77.159L247.27,77.119L247.269,77.078L247.269,72.47L247.27,72.43L247.274,72.39L247.281,72.35L247.29,72.31L247.301,72.271L247.315,72.232L247.332,72.193L247.351,72.155L247.372,72.118L247.396,72.081L247.422,72.045L247.451,72.01L247.481,71.975L247.514,71.942L247.549,71.909L247.586,71.878L247.625,71.848L247.666,71.819L247.709,71.791L247.753,71.764L247.8,71.739L247.847,71.716L247.896,71.693L247.947,71.672L247.999,71.653L248.052,71.635L248.106,71.619L248.161,71.604L248.217,71.592L248.274,71.58L248.332,71.571L248.39,71.563L248.448,71.557L248.507,71.552L248.566,71.55L248.625,71.549L250.17,71.549L250.476,71.549ZM248.625,72.47L248.625,77.078L250.096,77.078L250.305,77.078L250.416,77.077L250.53,77.075L250.648,77.072L250.768,77.066L250.891,77.058L250.953,77.053L251.015,77.047L251.078,77.04L251.14,77.033L251.203,77.024L251.266,77.014L251.329,77.003L251.392,76.991L251.455,76.978L251.518,76.964L251.58,76.948L251.642,76.931L251.704,76.913L251.765,76.892L251.826,76.871L251.886,76.848L251.945,76.823L252.004,76.796L252.062,76.768L252.119,76.738L252.175,76.706L252.231,76.672L252.285,76.636L252.338,76.598L252.39,76.557L252.441,76.515L252.49,76.47L252.538,76.423L252.585,76.374L252.63,76.322L252.674,76.268L252.716,76.211L252.756,76.152L252.794,76.09L252.831,76.026L252.866,75.958L252.899,75.888L252.93,75.815L252.958,75.739L252.985,75.66L253.009,75.578L253.031,75.493L253.051,75.405L253.068,75.313L253.083,75.218L253.095,75.12L253.105,75.019L253.112,74.914L253.116,74.805L253.118,74.693L253.117,74.591L253.114,74.491L253.109,74.395L253.102,74.302L253.094,74.212L253.083,74.125L253.071,74.04L253.057,73.959L253.041,73.881L253.023,73.805L253.004,73.732L252.983,73.662L252.96,73.595L252.936,73.53L252.91,73.467L252.882,73.407L252.853,73.35L252.822,73.295L252.79,73.242L252.756,73.192L252.721,73.144L252.684,73.098L252.646,73.054L252.607,73.012L252.566,72.973L252.524,72.935L252.48,72.899L252.435,72.865L252.389,72.833L252.342,72.803L252.293,72.774L252.244,72.748L252.193,72.722L252.141,72.699L252.087,72.677L252.033,72.656L251.978,72.637L251.921,72.619L251.864,72.602L251.805,72.587L251.746,72.573L251.686,72.56L251.624,72.549L251.562,72.538L251.499,72.528L251.435,72.52L251.37,72.512L251.305,72.505L251.239,72.499L251.172,72.493L251.104,72.489L251.035,72.485L250.896,72.479L250.755,72.475L250.611,72.472L250.465,72.471L250.168,72.47L248.625,72.47ZM250.22,73.394L250.29,73.399L250.36,73.405L250.431,73.414L250.502,73.424L250.573,73.437L250.643,73.453L250.713,73.471L250.782,73.491L250.851,73.514L250.918,73.54L250.951,73.554L250.984,73.568L251.017,73.583L251.049,73.599L251.08,73.616L251.112,73.633L251.143,73.651L251.173,73.67L251.203,73.69L251.232,73.71L251.261,73.731L251.29,73.753L251.317,73.776L251.344,73.799L251.371,73.823L251.397,73.849L251.422,73.874L251.446,73.901L251.47,73.929L251.493,73.957L251.515,73.986L251.536,74.016L251.557,74.047L251.577,74.079L251.596,74.112L251.614,74.146L251.631,74.18L251.647,74.216L251.662,74.252L251.676,74.29L251.689,74.328L251.702,74.367L251.713,74.407L251.723,74.448L251.732,74.49L251.74,74.534L251.746,74.578L251.752,74.623L251.756,74.669L251.759,74.716L251.761,74.764L251.762,74.813L251.761,74.86L251.76,74.905L251.757,74.95L251.753,74.993L251.748,75.036L251.742,75.078L251.735,75.119L251.727,75.158L251.718,75.197L251.708,75.236L251.697,75.273L251.686,75.309L251.673,75.344L251.659,75.379L251.644,75.413L251.629,75.446L251.612,75.478L251.595,75.509L251.577,75.539L251.558,75.568L251.538,75.597L251.517,75.625L251.496,75.652L251.473,75.678L251.45,75.704L251.427,75.728L251.402,75.752L251.377,75.775L251.351,75.798L251.324,75.819L251.297,75.84L251.269,75.86L251.24,75.88L251.211,75.898L251.181,75.916L251.15,75.934L251.119,75.95L251.087,75.966L251.055,75.981L251.022,75.996L250.989,76.009L250.955,76.023L250.92,76.035L250.886,76.047L250.85,76.058L250.814,76.068L250.778,76.078L250.741,76.088L250.666,76.104L250.59,76.119L250.512,76.131L250.433,76.14L250.353,76.148L250.271,76.153L250.189,76.156L250.105,76.157L249.981,76.157L249.981,73.392L250.15,73.392L250.22,73.394Z" style="fill:rgb(196,196,196);"/>
                        <path d="M248.625,77.078L248.625,72.47L250.168,72.47C251.77,72.47 253.118,72.468 253.118,74.693C253.118,77.121 251.155,77.078 250.096,77.078L248.625,77.078ZM249.981,73.392L249.981,76.157L250.105,76.157C250.999,76.157 251.762,75.814 251.762,74.813C251.762,73.753 250.887,73.406 250.15,73.392L249.981,73.392Z"/>
                        <path d="M258.256,71.55L258.397,71.556L258.541,71.566L258.677,71.58L258.758,71.59L258.831,71.601L258.905,71.613L258.978,71.627L259.053,71.642L259.127,71.659L259.2,71.678L259.275,71.699L259.349,71.722L259.421,71.746L259.493,71.773L259.564,71.801L259.634,71.831L259.703,71.863L259.77,71.897L259.835,71.933L259.899,71.97L259.96,72.009L260.019,72.048L260.075,72.09L260.129,72.132L260.181,72.175L260.23,72.219L260.276,72.264L260.32,72.31L260.362,72.356L260.401,72.403L260.437,72.449L260.472,72.496L260.504,72.544L260.534,72.591L260.565,72.644L260.612,72.734L260.655,72.83L260.692,72.926L260.723,73.023L260.75,73.12L260.772,73.218L260.789,73.317L260.803,73.417L260.814,73.519L260.821,73.622L260.826,73.727L260.828,73.841L260.825,73.934L260.814,74.034L260.796,74.133L260.771,74.23L260.738,74.327L260.698,74.422L260.649,74.514L260.594,74.605L260.532,74.692L260.463,74.777L260.393,74.852L260.397,74.856L260.432,74.908L260.489,74.995L260.541,75.086L260.587,75.175L260.626,75.262L260.661,75.347L260.69,75.429L260.716,75.508L260.738,75.585L260.756,75.658L260.772,75.729L260.785,75.795L260.796,75.858L260.805,75.919L260.817,76.019L260.828,76.127L260.828,77.078L260.826,77.119L260.822,77.159L260.816,77.199L260.807,77.238L260.795,77.278L260.781,77.317L260.765,77.356L260.746,77.394L260.724,77.431L260.701,77.468L260.674,77.504L260.646,77.539L260.615,77.574L260.582,77.607L260.547,77.639L260.51,77.671L260.471,77.701L260.43,77.73L260.388,77.758L260.343,77.784L260.297,77.81L260.249,77.833L260.2,77.856L260.15,77.877L260.098,77.896L260.045,77.914L259.991,77.93L259.935,77.944L259.879,77.957L259.823,77.969L259.765,77.978L259.707,77.986L259.649,77.992L259.59,77.996L259.531,77.999L259.472,78L258.116,78L258.057,77.999L257.998,77.996L257.939,77.992L257.88,77.986L257.822,77.978L257.765,77.969L257.708,77.957L257.652,77.944L257.597,77.93L257.543,77.914L257.49,77.896L257.438,77.877L257.387,77.856L257.338,77.833L257.29,77.81L257.244,77.784L257.2,77.758L257.157,77.73L257.116,77.701L257.077,77.671L257.04,77.639L257.005,77.607L256.972,77.574L256.942,77.539L256.913,77.504L256.887,77.468L256.863,77.431L256.842,77.394L256.823,77.356L256.806,77.317L256.792,77.278L256.781,77.238L256.772,77.199L256.765,77.159L256.761,77.119L256.76,77.078L256.759,77.119L256.755,77.159L256.748,77.199L256.739,77.238L256.728,77.278L256.714,77.317L256.697,77.356L256.678,77.394L256.657,77.431L256.633,77.468L256.607,77.504L256.578,77.539L256.548,77.574L256.515,77.607L256.48,77.639L256.443,77.671L256.404,77.701L256.363,77.73L256.32,77.758L256.276,77.784L256.23,77.81L256.182,77.833L256.133,77.856L256.082,77.877L256.03,77.896L255.977,77.914L255.923,77.93L255.868,77.944L255.812,77.957L255.755,77.969L255.698,77.978L255.64,77.986L255.581,77.992L255.522,77.996L255.463,77.999L255.404,78L254.048,78L253.989,77.999L253.93,77.996L253.871,77.992L253.813,77.986L253.755,77.978L253.697,77.969L253.641,77.957L253.585,77.944L253.529,77.93L253.475,77.914L253.422,77.896L253.37,77.877L253.32,77.856L253.271,77.833L253.223,77.81L253.177,77.784L253.132,77.758L253.09,77.73L253.049,77.701L253.01,77.671L252.973,77.639L252.938,77.607L252.905,77.574L252.874,77.539L252.846,77.504L252.82,77.468L252.796,77.431L252.774,77.394L252.755,77.356L252.739,77.317L252.725,77.278L252.713,77.238L252.704,77.199L252.698,77.159L252.694,77.119L252.693,77.078L252.693,72.47L252.694,72.43L252.698,72.39L252.704,72.35L252.713,72.31L252.725,72.271L252.739,72.232L252.755,72.193L252.774,72.155L252.796,72.118L252.82,72.081L252.846,72.045L252.874,72.01L252.905,71.975L252.938,71.942L252.973,71.909L253.01,71.878L253.049,71.848L253.09,71.819L253.132,71.791L253.177,71.764L253.223,71.739L253.271,71.716L253.32,71.693L253.37,71.672L253.422,71.653L253.475,71.635L253.529,71.619L253.585,71.604L253.641,71.591L253.697,71.58L253.755,71.571L253.813,71.563L253.871,71.557L253.93,71.552L253.989,71.55L254.048,71.549L258.128,71.549L258.256,71.55ZM254.048,72.47L254.048,77.078L255.404,77.078L255.404,75.235L256.76,75.235L256.834,75.236L256.906,75.239L256.976,75.245L257.046,75.252L257.113,75.261L257.179,75.273L257.243,75.286L257.306,75.301L257.367,75.318L257.425,75.337L257.482,75.358L257.537,75.38L257.59,75.405L257.64,75.431L257.689,75.458L257.735,75.488L257.779,75.519L257.82,75.551L257.859,75.585L257.896,75.621L257.93,75.658L257.961,75.697L257.99,75.737L258.016,75.778L258.039,75.821L258.059,75.865L258.076,75.911L258.09,75.958L258.102,76.006L258.11,76.055L258.114,76.105L258.116,76.157L258.116,77.078L259.472,77.078L259.472,76.157L259.465,76.087L259.455,76.004L259.448,75.958L259.44,75.909L259.43,75.858L259.418,75.805L259.404,75.751L259.388,75.695L259.37,75.638L259.349,75.58L259.325,75.522L259.298,75.463L259.269,75.405L259.236,75.348L259.199,75.291L259.179,75.263L259.159,75.235L259.137,75.208L259.115,75.181L259.091,75.154L259.066,75.128L259.041,75.102L259.014,75.077L258.986,75.053L258.957,75.029L258.927,75.006L258.895,74.983L258.863,74.962L258.829,74.941L258.794,74.92L258.758,74.901L258.72,74.883L258.681,74.865L258.641,74.849L258.599,74.833L258.556,74.818L258.512,74.805L258.466,74.793L258.418,74.782L258.37,74.772L258.319,74.763L258.267,74.755L258.214,74.749L258.159,74.744L258.102,74.741L258.168,74.739L258.233,74.735L258.297,74.729L258.362,74.722L258.425,74.713L258.488,74.703L258.55,74.691L258.611,74.677L258.671,74.661L258.73,74.644L258.787,74.626L258.843,74.605L258.897,74.583L258.95,74.559L259.001,74.534L259.05,74.506L259.097,74.477L259.141,74.447L259.184,74.414L259.224,74.38L259.261,74.345L259.296,74.307L259.328,74.268L259.357,74.227L259.383,74.184L259.406,74.14L259.426,74.094L259.442,74.046L259.455,73.996L259.464,73.945L259.47,73.891L259.472,73.836L259.47,73.745L259.466,73.658L259.46,73.574L259.452,73.494L259.441,73.417L259.428,73.343L259.412,73.272L259.394,73.205L259.374,73.142L259.35,73.081L259.324,73.024L259.296,72.969L259.281,72.943L259.265,72.918L259.248,72.894L259.231,72.87L259.213,72.847L259.194,72.825L259.175,72.803L259.155,72.782L259.134,72.762L259.113,72.743L259.09,72.724L259.068,72.706L259.044,72.689L259.02,72.673L258.995,72.657L258.969,72.642L258.942,72.627L258.915,72.613L258.887,72.6L258.858,72.588L258.828,72.576L258.798,72.565L258.767,72.555L258.735,72.545L258.702,72.535L258.669,72.527L258.635,72.519L258.6,72.512L258.564,72.505L258.527,72.499L258.49,72.493L258.452,72.489L258.373,72.481L258.29,72.475L258.205,72.472L258.116,72.47L254.048,72.47ZM257.228,73.393L257.266,73.395L257.302,73.398L257.337,73.402L257.371,73.408L257.403,73.415L257.435,73.423L257.465,73.432L257.495,73.442L257.523,73.452L257.55,73.464L257.576,73.477L257.6,73.491L257.624,73.505L257.646,73.52L257.667,73.536L257.687,73.553L257.706,73.57L257.723,73.587L257.74,73.606L257.755,73.625L257.768,73.644L257.781,73.664L257.793,73.684L257.803,73.704L257.812,73.725L257.819,73.746L257.826,73.767L257.831,73.788L257.835,73.81L257.838,73.831L257.839,73.853L257.839,73.874L257.838,73.896L257.836,73.917L257.832,73.939L257.827,73.96L257.821,73.981L257.813,74.002L257.804,74.022L257.794,74.042L257.782,74.062L257.769,74.081L257.755,74.1L257.739,74.118L257.722,74.136L257.704,74.153L257.684,74.17L257.663,74.185L257.641,74.201L257.617,74.215L257.592,74.229L257.566,74.241L257.538,74.253L257.508,74.264L257.478,74.274L257.446,74.283L257.412,74.291L257.377,74.298L257.341,74.303L257.303,74.308L257.264,74.311L257.223,74.313L257.181,74.314L255.404,74.314L255.404,73.392L257.19,73.392L257.228,73.393Z" style="fill:rgb(196,196,196);"/>
                        <path d="M259.472,77.078L258.116,77.078L258.116,76.157C258.117,75.601 257.551,75.235 256.76,75.235L255.404,75.235L255.404,77.078L254.048,77.078L254.048,72.47L258.116,72.47C259.083,72.47 259.468,72.847 259.472,73.836C259.474,74.432 258.801,74.726 258.102,74.741C259.328,74.8 259.443,75.828 259.472,76.157L259.472,77.078ZM255.404,73.392L255.404,74.314L257.181,74.314C258.094,74.314 258.02,73.392 257.19,73.392L255.404,73.392Z"/>
                    </g>
                </g>
            </g>
        </g>
    </g>
</svg>
