<?xml version="1.0" encoding="UTF-8" standalone="no"?>
<!DOCTYPE svg PUBLIC "-//W3C//DTD SVG 1.1//EN" "http://www.w3.org/Graphics/SVG/1.1/DTD/svg11.dtd">
<svg width="100%" height="100%" viewBox="0 0 15 15" version="1.1" xmlns="http://www.w3.org/2000/svg" xmlns:xlink="http://www.w3.org/1999/xlink" xml:space="preserve" xmlns:serif="http://www.serif.com/" style="fill-rule:evenodd;clip-rule:evenodd;stroke-linejoin:round;stroke-miterlimit:1.41421;">
    <g transform="matrix(1,0,0,1,-120,-125)">
        <g transform="matrix(1,0,0,1,120,125)">
            <g id="ObjectIcons_LayerBlendTrack_nor">
                <g id="Icons">
                    <g transform="matrix(1,0,0,1,-40,-25)">
                        <g id="Base-Block" serif:id="Base Block">
                            <path d="M55,27.1C55,25.941 54.059,25 52.9,25L42.1,25C40.941,25 40,25.941 40,27.1L40,37.9C40,39.059 40.941,40 42.1,40L52.9,40C54.059,40 55,39.059 55,37.9L55,27.1Z" style="fill-opacity:0;"/>
                        </g>
                    </g>
                    <g transform="matrix(5,0,0,3.66667,-10,-34.6667)">
                        <path d="M5,10.48C5,10.215 4.842,10 4.648,10L2.352,10C2.158,10 2,10.215 2,10.48L2,12.52C2,12.785 2.158,13 2.352,13L4.648,13C4.842,13 5,12.785 5,12.52L5,10.48Z" style="fill:rgb(196,196,196);"/>
                    </g>
                    <g transform="matrix(1.08333,0,0,0.715797,-237.333,-32.6531)">
                        <path d="M232,52.603L232,62.382L220,62.382L220,60.985C223.32,61.109 224.985,58.512 225.898,57.127C227.209,55.14 228.842,52.629 232,52.603Z" style="fill:rgb(43,43,43);"/>
                    </g>
                    <g transform="matrix(-1,0,0,0.871517,233.951,-43.003)">
                        <path d="M232.772,53.886L232.769,53.886L232.595,53.89L232.592,53.89L232.421,53.895L232.418,53.895L232.251,53.903L232.248,53.904L232.085,53.914L232.082,53.914L231.922,53.926L231.919,53.927L231.763,53.941L231.76,53.941L231.607,53.958L231.603,53.958L231.454,53.977L231.451,53.978L231.305,53.998L231.301,53.999L231.158,54.022L231.155,54.022L231.015,54.047L231.011,54.048L230.875,54.075L230.871,54.075L230.738,54.104L230.734,54.105L230.603,54.136L230.599,54.137L230.472,54.169L230.468,54.17L230.343,54.204L230.339,54.206L230.217,54.242L230.213,54.243L230.094,54.281L230.09,54.282L229.974,54.322L229.969,54.323L229.856,54.364L229.851,54.366L229.74,54.409L229.736,54.411L229.628,54.455L229.623,54.457L229.517,54.503L229.513,54.505L229.409,54.553L229.405,54.555L229.303,54.604L229.299,54.606L229.2,54.657L229.196,54.659L229.099,54.711L229.095,54.713L229,54.767L228.996,54.769L228.904,54.824L228.899,54.826L228.809,54.882L228.805,54.885L228.717,54.942L228.713,54.945L228.626,55.003L228.622,55.006L228.538,55.065L228.534,55.068L228.452,55.129L228.448,55.132L228.367,55.193L228.363,55.196L228.284,55.259L228.281,55.262L228.204,55.325L228.2,55.328L228.124,55.393L228.121,55.396L228.047,55.461L228.044,55.464L227.971,55.53L227.968,55.533L227.897,55.6L227.894,55.602L227.824,55.67L227.822,55.673L227.753,55.741L227.751,55.743L227.683,55.812L227.681,55.815L227.615,55.884L227.613,55.887L227.548,55.957L227.546,55.959L227.482,56.029L227.48,56.032L227.417,56.102L227.415,56.104L227.353,56.176L227.35,56.179L227.229,56.322L227.227,56.325L227.108,56.469L227.106,56.472L226.99,56.617L226.988,56.619L226.874,56.764L226.873,56.765L226.76,56.91L226.76,56.911L226.535,57.199L226.424,57.341L226.312,57.481L226.2,57.619L226.086,57.756L226.029,57.822L225.971,57.889L225.912,57.954L225.853,58.019L225.793,58.083L225.732,58.147L225.671,58.209L225.608,58.271L225.545,58.333L225.48,58.393L225.415,58.453L225.348,58.512L225.28,58.57L225.21,58.627L225.139,58.683L225.067,58.738L224.993,58.793L224.917,58.847L224.84,58.899L224.761,58.951L224.68,59.002L224.597,59.052L224.511,59.1L224.424,59.148L224.334,59.195L224.243,59.24L224.148,59.285L224.051,59.328L223.952,59.37L223.85,59.411L223.745,59.451L223.637,59.489L223.527,59.526L223.413,59.562L223.297,59.596L223.177,59.629L223.054,59.66L222.928,59.69L222.798,59.718L222.665,59.745L222.528,59.77L222.388,59.793L222.245,59.814L222.097,59.834L221.946,59.851L221.791,59.867L221.632,59.881L221.469,59.893L221.302,59.902L221.131,59.91L220.956,59.916L220.776,59.919L220.593,59.92L220.405,59.919L220.212,59.916L220.013,59.91L219.962,59.911L219.912,59.919L219.862,59.932L219.814,59.951L219.768,59.975L219.725,60.005L219.684,60.039L219.646,60.078L219.612,60.121L219.582,60.168L219.557,60.218L219.536,60.271L219.519,60.326L219.508,60.382L219.501,60.44L219.5,60.498L219.504,60.556L219.513,60.613L219.527,60.669L219.546,60.723L219.569,60.775L219.597,60.823L219.629,60.868L219.665,60.909L219.704,60.946L219.746,60.978L219.791,61.005L219.838,61.026L219.887,61.042L219.937,61.053L219.987,61.057L220.191,61.063L220.193,61.063L220.393,61.066L220.396,61.066L220.592,61.068L220.594,61.068L220.786,61.066L220.789,61.066L220.976,61.063L220.979,61.063L221.163,61.057L221.166,61.057L221.346,61.049L221.349,61.049L221.525,61.038L221.528,61.038L221.7,61.026L221.703,61.025L221.871,61.011L221.874,61.01L222.039,60.994L222.042,60.993L222.203,60.975L222.207,60.974L222.364,60.953L222.368,60.953L222.522,60.93L222.525,60.929L222.676,60.904L222.68,60.904L222.827,60.877L222.831,60.876L222.975,60.848L222.978,60.847L223.119,60.816L223.123,60.815L223.261,60.783L223.265,60.782L223.399,60.748L223.403,60.747L223.535,60.711L223.539,60.71L223.667,60.672L223.671,60.671L223.797,60.631L223.801,60.63L223.924,60.589L223.928,60.587L224.048,60.545L224.052,60.543L224.169,60.499L224.173,60.497L224.288,60.451L224.292,60.449L224.404,60.402L224.408,60.4L224.518,60.351L224.522,60.349L224.629,60.299L224.633,60.297L224.738,60.245L224.742,60.243L224.844,60.19L224.848,60.187L224.948,60.133L224.952,60.131L225.049,60.075L225.053,60.072L225.149,60.015L225.153,60.013L225.246,59.954L225.25,59.952L225.341,59.892L225.345,59.89L225.434,59.829L225.437,59.827L225.524,59.765L225.528,59.762L225.613,59.7L225.617,59.697L225.7,59.633L225.703,59.631L225.784,59.566L225.788,59.563L225.867,59.498L225.871,59.495L225.948,59.429L225.952,59.426L226.028,59.359L226.031,59.356L226.105,59.289L226.108,59.286L226.181,59.218L226.184,59.215L226.256,59.146L226.258,59.143L226.329,59.074L226.331,59.071L226.4,59.001L226.402,58.998L226.47,58.928L226.472,58.925L226.538,58.854L226.541,58.852L226.606,58.781L226.608,58.778L226.672,58.707L226.674,58.705L226.737,58.632L226.738,58.631L226.801,58.558L226.803,58.555L226.925,58.41L226.927,58.407L227.046,58.261L227.048,58.259L227.164,58.113L227.165,58.111L227.28,57.965L227.281,57.964L227.506,57.674L227.617,57.531L227.728,57.391L227.839,57.253L227.95,57.117L228.064,56.983L228.12,56.918L228.177,56.854L228.235,56.79L228.294,56.727L228.353,56.665L228.413,56.603L228.474,56.543L228.535,56.483L228.598,56.424L228.661,56.366L228.726,56.309L228.792,56.253L228.858,56.198L228.927,56.144L228.996,56.091L229.068,56.039L229.14,55.987L229.215,55.937L229.291,55.888L229.368,55.84L229.448,55.792L229.53,55.746L229.613,55.701L229.699,55.658L229.787,55.615L229.878,55.573L229.971,55.533L230.066,55.494L230.164,55.456L230.264,55.42L230.368,55.384L230.474,55.351L230.583,55.318L230.695,55.288L230.81,55.258L230.928,55.231L231.049,55.204L231.174,55.18L231.302,55.157L231.433,55.136L231.568,55.117L231.707,55.1L231.849,55.084L231.995,55.071L232.144,55.059L232.298,55.05L232.455,55.042L232.616,55.037L232.781,55.034L232.953,55.033L233.004,55.029L233.054,55.02L233.103,55.005L233.15,54.985L233.196,54.959L233.239,54.928L233.278,54.892L233.315,54.852L233.348,54.808L233.376,54.76L233.401,54.709L233.421,54.655L233.435,54.6L233.445,54.543L233.45,54.485L233.45,54.427L233.445,54.369L233.434,54.312L233.419,54.257L233.399,54.204L233.374,54.153L233.345,54.105L233.311,54.062L233.275,54.022L233.234,53.986L233.191,53.956L233.146,53.931L233.098,53.911L233.049,53.896L232.999,53.888L232.948,53.885L232.772,53.886Z" style="fill:rgb(196,196,196);fill-opacity:0.378571;"/>
                    </g>
                    <g transform="matrix(-1.08333,0,0,0.835097,252.333,-40.0952)">
                        <path d="M232,54L232,62.382L220,62.382L220,59.987C221.066,60.027 224.661,59.811 225.538,58.79C226.904,57.2 228.075,54.032 232,54Z" style="fill:rgb(43,43,43);fill-opacity:0.5;"/>
                    </g>
                    <g transform="matrix(-1.08333,0,0,0.835097,252.333,-40.0952)">
                        <path d="M226.111,58.039C227.794,59.632 228.946,61.305 232,61.185L232,62.382L220,62.382L220,59.987C221.066,60.027 224.661,59.811 225.538,58.79C225.731,58.566 225.889,57.828 226.111,58.039Z" style="fill-opacity:0.5;"/>
                    </g>
                    <g transform="matrix(1,0,0,1,-219,-50)">
                        <path d="M232.999,53.961L233.049,53.969L233.098,53.981L233.145,53.998L233.191,54.02L233.234,54.047L233.274,54.078L233.311,54.112L233.345,54.151L233.374,54.192L233.399,54.236L233.419,54.283L233.434,54.331L233.445,54.38L233.45,54.431L233.45,54.481L233.445,54.532L233.436,54.582L233.421,54.63L233.401,54.677L233.377,54.721L233.348,54.763L233.315,54.801L233.279,54.836L233.239,54.868L233.196,54.895L233.151,54.917L233.103,54.935L233.054,54.948L233.004,54.956L232.954,54.959L232.781,54.96L232.616,54.963L232.454,54.968L232.295,54.975L232.14,54.984L231.988,54.995L231.839,55.008L231.693,55.022L231.551,55.039L231.412,55.057L231.275,55.077L231.142,55.098L231.012,55.122L230.884,55.146L230.759,55.173L230.637,55.201L230.518,55.23L230.401,55.261L230.286,55.293L230.175,55.327L230.065,55.362L229.958,55.398L229.853,55.436L229.75,55.475L229.65,55.515L229.551,55.556L229.455,55.599L229.36,55.642L229.267,55.687L229.177,55.733L229.087,55.78L229,55.828L228.914,55.877L228.829,55.927L228.746,55.978L228.665,56.03L228.584,56.083L228.505,56.137L228.428,56.191L228.351,56.247L228.275,56.304L228.201,56.361L228.128,56.419L228.055,56.478L227.983,56.538L227.912,56.598L227.842,56.66L227.773,56.722L227.704,56.784L227.636,56.848L227.569,56.912L227.502,56.976L227.369,57.108L227.237,57.241L227.107,57.376L226.977,57.513L226.848,57.652L226.718,57.792L226.457,58.073L226.456,58.074L226.324,58.215L226.323,58.217L226.189,58.357L226.188,58.359L226.052,58.499L226.05,58.501L225.913,58.64L225.911,58.642L225.841,58.711L225.839,58.712L225.769,58.781L225.767,58.783L225.696,58.851L225.694,58.853L225.622,58.921L225.62,58.922L225.547,58.99L225.545,58.991L225.471,59.058L225.469,59.06L225.394,59.127L225.392,59.129L225.316,59.195L225.314,59.196L225.236,59.262L225.234,59.264L225.155,59.328L225.153,59.33L225.073,59.394L225.071,59.397L224.99,59.46L224.987,59.462L224.904,59.524L224.902,59.527L224.818,59.588L224.815,59.59L224.73,59.651L224.727,59.653L224.64,59.713L224.637,59.715L224.549,59.774L224.546,59.776L224.456,59.834L224.452,59.837L224.361,59.894L224.358,59.896L224.265,59.952L224.261,59.954L224.166,60.009L224.162,60.011L224.066,60.064L224.062,60.066L223.964,60.119L223.96,60.121L223.86,60.172L223.856,60.174L223.754,60.224L223.75,60.226L223.646,60.274L223.642,60.276L223.536,60.323L223.532,60.325L223.424,60.371L223.42,60.373L223.309,60.417L223.305,60.419L223.193,60.462L223.189,60.463L223.074,60.505L223.07,60.506L222.953,60.546L222.949,60.548L222.83,60.586L222.826,60.587L222.705,60.624L222.701,60.625L222.577,60.66L222.573,60.662L222.447,60.695L222.443,60.696L222.314,60.728L222.31,60.729L222.179,60.759L222.175,60.76L222.042,60.788L222.037,60.789L221.901,60.815L221.897,60.816L221.759,60.84L221.755,60.841L221.613,60.864L221.609,60.864L221.465,60.885L221.461,60.886L221.315,60.904L221.311,60.905L221.161,60.922L221.157,60.922L221.005,60.937L221.001,60.937L220.846,60.95L220.842,60.95L220.683,60.961L220.68,60.961L220.518,60.97L220.515,60.97L220.35,60.977L220.347,60.977L220.179,60.981L220.176,60.981L220.006,60.983L219.956,60.982L219.906,60.975L219.856,60.962L219.809,60.945L219.763,60.924L219.72,60.898L219.679,60.867L219.642,60.833L219.609,60.795L219.579,60.753L219.554,60.709L219.533,60.663L219.518,60.615L219.507,60.566L219.501,60.515L219.5,60.465L219.505,60.414L219.514,60.364L219.529,60.316L219.548,60.269L219.572,60.224L219.601,60.183L219.633,60.144L219.669,60.108L219.709,60.077L219.752,60.049L219.797,60.027L219.844,60.008L219.893,59.995L219.943,59.987L219.994,59.984L220.158,59.981L220.316,59.977L220.47,59.971L220.621,59.963L220.769,59.953L220.913,59.941L221.055,59.927L221.193,59.912L221.329,59.894L221.461,59.875L221.59,59.855L221.717,59.832L221.841,59.808L221.962,59.783L222.081,59.755L222.197,59.727L222.31,59.697L222.421,59.665L222.53,59.632L222.636,59.598L222.74,59.562L222.842,59.525L222.941,59.487L223.039,59.448L223.135,59.407L223.229,59.366L223.32,59.323L223.411,59.278L223.499,59.233L223.586,59.187L223.671,59.14L223.755,59.091L223.837,59.042L223.918,58.991L223.998,58.94L224.076,58.887L224.153,58.834L224.229,58.78L224.304,58.725L224.378,58.668L224.451,58.611L224.523,58.554L224.594,58.495L224.665,58.435L224.734,58.375L224.803,58.314L224.872,58.252L224.939,58.19L225.007,58.127L225.073,58.063L225.14,57.998L225.205,57.933L225.336,57.801L225.466,57.666L225.596,57.53L225.725,57.392L225.985,57.112L225.985,57.112L226.116,56.971L226.116,56.97L226.248,56.829L226.249,56.828L226.383,56.687L226.384,56.685L226.52,56.544L226.522,56.542L226.66,56.402L226.662,56.4L226.803,56.261L226.805,56.259L226.877,56.19L226.878,56.188L226.951,56.12L226.952,56.118L227.026,56.05L227.027,56.048L227.102,55.98L227.104,55.979L227.179,55.911L227.181,55.909L227.257,55.843L227.26,55.841L227.337,55.775L227.339,55.773L227.418,55.707L227.421,55.705L227.501,55.64L227.503,55.638L227.584,55.574L227.587,55.572L227.67,55.508L227.672,55.506L227.756,55.443L227.759,55.441L227.845,55.379L227.848,55.377L227.934,55.316L227.938,55.313L228.026,55.253L228.029,55.251L228.119,55.192L228.123,55.19L228.214,55.131L228.218,55.129L228.311,55.072L228.315,55.07L228.41,55.013L228.413,55.011L228.51,54.956L228.514,54.954L228.613,54.9L228.616,54.898L228.717,54.845L228.721,54.843L228.823,54.791L228.827,54.789L228.932,54.739L228.935,54.737L229.042,54.688L229.046,54.686L229.154,54.638L229.158,54.637L229.269,54.59L229.273,54.589L229.386,54.544L229.39,54.542L229.505,54.499L229.509,54.497L229.626,54.455L229.631,54.454L229.75,54.413L229.754,54.412L229.876,54.373L229.88,54.371L230.004,54.334L230.008,54.333L230.135,54.297L230.139,54.296L230.268,54.262L230.272,54.261L230.404,54.228L230.408,54.227L230.542,54.197L230.546,54.196L230.683,54.167L230.687,54.166L230.826,54.139L230.83,54.138L230.972,54.113L230.976,54.112L231.121,54.089L231.125,54.088L231.273,54.067L231.276,54.066L231.427,54.046L231.431,54.046L231.584,54.028L231.588,54.028L231.744,54.012L231.748,54.012L231.907,53.998L231.911,53.998L232.073,53.986L232.077,53.986L232.242,53.976L232.246,53.976L232.414,53.969L232.418,53.969L232.59,53.963L232.593,53.963L232.768,53.96L232.771,53.96L232.948,53.959L232.999,53.961Z" style="fill:rgb(196,196,196);"/>
                    </g>
                </g>
            </g>
        </g>
    </g>
</svg>
