<?xml version="1.0" encoding="UTF-8" standalone="no"?>
<!DOCTYPE svg PUBLIC "-//W3C//DTD SVG 1.1//EN" "http://www.w3.org/Graphics/SVG/1.1/DTD/svg11.dtd">
<svg width="100%" height="100%" viewBox="0 0 15 15" version="1.1" xmlns="http://www.w3.org/2000/svg" xmlns:xlink="http://www.w3.org/1999/xlink" xml:space="preserve" xmlns:serif="http://www.serif.com/" style="fill-rule:evenodd;clip-rule:evenodd;stroke-linejoin:round;stroke-miterlimit:1.41421;">
    <g transform="matrix(1,0,0,1,-80,-345)">
        <g transform="matrix(1,0,0,1,80,345)">
            <g id="ObjectIcons_PropHighpassSend_nor">
                <g id="Icons">
                    <g transform="matrix(1,0,0,1,-40,-25)">
                        <g id="Base-Block" serif:id="Base Block">
                            <path d="M55,27.1C55,25.941 54.059,25 52.9,25L42.1,25C40.941,25 40,25.941 40,27.1L40,37.9C40,39.059 40.941,40 42.1,40L52.9,40C54.059,40 55,39.059 55,37.9L55,27.1Z" style="fill-opacity:0;"/>
                        </g>
                    </g>
                    <g id="Send-Sub-Icon" serif:id="Send Sub Icon" transform="matrix(1,0,0,1,-1,-3.12639e-13)">
                        <g transform="matrix(1.57143,0,0,1,-573.286,-46)">
                            <path d="M375,55.54C375,54.69 374.561,54 374.02,54L368.98,54C368.439,54 368,54.69 368,55.54L368,59.46C368,60.31 368.439,61 368.98,61L374.02,61C374.561,61 375,60.31 375,59.46L375,55.54Z" style="fill:rgb(196,196,196);"/>
                        </g>
                        <g transform="matrix(-2.66667,0,0,1,1052.33,-46)">
                            <rect x="389" y="56" width="3" height="1" style="fill:rgb(57,57,57);"/>
                        </g>
                        <g transform="matrix(-0.666667,-1.8216e-16,2.88658e-15,1,271.333,-43)">
                            <path d="M390.5,54L390.5,55.465L389.697,56L384.5,56L384.5,57L390.5,57L392,56L392,54L390.5,54Z" style="fill:rgb(57,57,57);"/>
                        </g>
                    </g>
                    <g transform="matrix(-1,0,0,1,14.9997,-0.995052)">
                        <path d="M10.755,12.995L14.308,12.995C14.884,12.955 14.987,12.557 14.79,11.932C13.667,10.104 11.488,6.56 11.481,6.548C9.572,3.44 8.209,3.044 5.283,3L0,2.995L0,7L5.2,7.001C5.971,7.005 7.061,7.006 7.895,8.346C7.904,8.36 10.755,12.995 10.755,12.995ZM11.332,11.995L13.611,11.995C13.611,11.995 10.623,7.134 10.614,7.119C9.06,4.589 7.672,4.041 5.283,4.005L1,4L1,6L5.2,6.001C5.971,6.005 7.539,5.849 8.745,7.787C8.754,7.801 11.332,11.995 11.332,11.995Z" style="fill:rgb(196,196,196);"/>
                    </g>
                    <g transform="matrix(1,0,0,0.933333,1.99975,3.00495)">
                        <path d="M1.667,8.566L-0.612,8.567C-0.612,8.567 2.377,3.358 2.386,3.342C3.94,0.631 5.328,0.044 7.717,0.005L12,0L12,2.143L7.8,2.144C7.029,2.148 5.461,1.981 4.255,4.057C4.246,4.072 1.667,8.566 1.667,8.566Z" style="fill:rgb(57,57,57);"/>
                    </g>
                </g>
            </g>
        </g>
    </g>
</svg>
