<?xml version="1.0" encoding="UTF-8" standalone="no"?>
<!DOCTYPE svg PUBLIC "-//W3C//DTD SVG 1.1//EN" "http://www.w3.org/Graphics/SVG/1.1/DTD/svg11.dtd">
<svg width="100%" height="100%" viewBox="0 0 15 15" version="1.1" xmlns="http://www.w3.org/2000/svg" xmlns:xlink="http://www.w3.org/1999/xlink" xml:space="preserve" xmlns:serif="http://www.serif.com/" style="fill-rule:evenodd;clip-rule:evenodd;stroke-linejoin:round;stroke-miterlimit:1.41421;">
    <g transform="matrix(1,0,0,1,-119,-285)">
        <g transform="matrix(0.714286,0,0,1,123.286,285)">
            <g id="ObjectIcons_Distance_nor">
                <rect id="Icons" x="-6" y="0" width="21" height="15" style="fill:none;"/>
                <clipPath id="_clip1">
                    <rect id="Icons1" serif:id="Icons" x="-6" y="0" width="21" height="15"/>
                </clipPath>
                <g clip-path="url(#_clip1)">
                    <g transform="matrix(1.4,0,0,1,-62,-25)">
                        <g id="Base-Block" serif:id="Base Block">
                            <path d="M55,27.1C55,25.941 54.059,25 52.9,25L42.1,25C40.941,25 40,25.941 40,27.1L40,37.9C40,39.059 40.941,40 42.1,40L52.9,40C54.059,40 55,39.059 55,37.9L55,27.1Z" style="fill-opacity:0;"/>
                        </g>
                    </g>
                    <g transform="matrix(1.4,0,0,1,-6,1.13687e-13)">
                        <clipPath id="_clip2">
                            <rect x="-5" y="1" width="12" height="13"/>
                        </clipPath>
                        <g clip-path="url(#_clip2)">
                            <g transform="matrix(1,0,0,1,-7,0)">
                                <path d="M7.5,1C11.087,1 14,3.913 14,7.5C14,11.087 11.087,14 7.5,14C3.913,14 1,11.087 1,7.5C1,3.913 3.913,1 7.5,1ZM7.5,13C4.467,13 2,10.533 2,7.5C2,4.467 4.467,2 7.5,2C10.533,2 13,4.467 13,7.5C13,10.533 10.533,13 7.5,13ZM7.5,2.733C4.872,2.733 2.733,4.872 2.733,7.5C2.733,10.128 4.872,12.267 7.5,12.267C10.128,12.267 12.267,10.128 12.267,7.5C12.267,4.872 10.128,2.733 7.5,2.733ZM7.5,11C5.571,11 4,9.43 4,7.5C4,5.57 5.571,4 7.5,4C9.429,4 11,5.57 11,7.5C11,9.43 9.429,11 7.5,11ZM7.5,4.933C6.084,4.933 4.933,6.084 4.933,7.5C4.933,8.916 6.084,10.067 7.5,10.067C8.916,10.067 10.067,8.916 10.067,7.5C10.067,6.084 8.916,4.933 7.5,4.933ZM9,7.5C9,8.328 8.328,9 7.5,9C6.672,9 6,8.328 6,7.5C6,6.672 6.672,6 7.5,6C8.328,6 9,6.672 9,7.5Z" style="fill:rgb(196,196,196);"/>
                            </g>
                            <g transform="matrix(0.977778,0,0,0.977778,0.5,12.2667)">
                                <path d="M0,-9.75C-2.688,-9.75 -4.875,-7.563 -4.875,-4.875C-4.875,-2.187 -2.688,0 0,0C2.688,0 4.875,-2.187 4.875,-4.875C4.875,-7.563 2.688,-9.75 0,-9.75M0,0.75C-3.102,0.75 -5.625,-1.773 -5.625,-4.875C-5.625,-7.977 -3.102,-10.5 0,-10.5C3.102,-10.5 5.625,-7.977 5.625,-4.875C5.625,-1.773 3.102,0.75 0,0.75" style="fill:rgb(108,108,108);"/>
                            </g>
                            <g transform="matrix(0.933333,0,0,0.933333,0.5,10.0667)">
                                <path d="M0,-5.5C-1.517,-5.5 -2.75,-4.267 -2.75,-2.75C-2.75,-1.233 -1.517,0 0,0C1.517,0 2.75,-1.233 2.75,-2.75C2.75,-4.267 1.517,-5.5 0,-5.5M0,1C-2.067,1 -3.75,-0.682 -3.75,-2.75C-3.75,-4.818 -2.067,-6.5 0,-6.5C2.067,-6.5 3.75,-4.818 3.75,-2.75C3.75,-0.682 2.067,1 0,1" style="fill:rgb(57,57,57);"/>
                            </g>
                            <g transform="matrix(0.833333,0,0,0.833333,2,7.5)">
                                <path d="M0,0C0,0.994 -0.806,1.8 -1.8,1.8C-2.794,1.8 -3.6,0.994 -3.6,0C-3.6,-0.994 -2.794,-1.8 -1.8,-1.8C-0.806,-1.8 0,-0.994 0,0"/>
                            </g>
                        </g>
                    </g>
                    <g transform="matrix(2.33333,0,0,1.66667,-619.667,-115)">
                        <circle cx="270.5" cy="73.5" r="1.5" style="fill:rgb(196,196,196);"/>
                    </g>
                    <g transform="matrix(1.4,0,0,1,-367.2,-66)">
                        <circle cx="270.5" cy="73.5" r="1.5"/>
                    </g>
                    <g transform="matrix(1.08889,0,0,1,-284.911,-66)">
                        <path d="M269.067,72.001L269.134,72.005L269.201,72.012L269.267,72.022L269.333,72.034L269.397,72.049L269.461,72.066L269.523,72.086L269.584,72.109L269.643,72.134L269.7,72.161L269.756,72.191L269.809,72.223L269.86,72.257L269.909,72.293L269.955,72.331L269.999,72.371L270.04,72.412L270.078,72.455L270.113,72.5L270.146,72.546L270.175,72.593L270.2,72.642L270.223,72.691L270.242,72.741L270.258,72.792L270.27,72.844L270.279,72.895L270.284,72.948L270.286,73L270.286,74L270.284,74.052L270.279,74.105L270.27,74.156L270.258,74.208L270.242,74.259L270.223,74.309L270.2,74.358L270.175,74.407L270.146,74.454L270.113,74.5L270.078,74.545L270.04,74.588L269.999,74.629L269.955,74.669L269.909,74.707L269.86,74.743L269.809,74.777L269.756,74.809L269.7,74.839L269.643,74.866L269.584,74.891L269.523,74.914L269.461,74.934L269.397,74.951L269.333,74.966L269.267,74.978L269.201,74.988L269.134,74.995L269.067,74.999L269,75L260,75L259.933,74.999L259.866,74.995L259.799,74.988L259.733,74.978L259.667,74.966L259.603,74.951L259.539,74.934L259.477,74.914L259.416,74.891L259.357,74.866L259.3,74.839L259.244,74.809L259.191,74.777L259.14,74.743L259.091,74.707L259.045,74.669L259.001,74.629L258.96,74.588L258.922,74.545L258.887,74.5L258.854,74.454L258.825,74.407L258.8,74.358L258.777,74.309L258.758,74.259L258.742,74.208L258.73,74.156L258.721,74.105L258.716,74.052L258.714,74L258.714,73L258.716,72.948L258.721,72.895L258.73,72.844L258.742,72.792L258.758,72.741L258.777,72.691L258.8,72.642L258.825,72.593L258.854,72.546L258.887,72.5L258.922,72.455L258.96,72.412L259.001,72.371L259.045,72.331L259.091,72.293L259.14,72.257L259.191,72.223L259.244,72.191L259.3,72.161L259.357,72.134L259.416,72.109L259.477,72.086L259.539,72.066L259.603,72.049L259.667,72.034L259.733,72.022L259.799,72.012L259.866,72.005L259.933,72.001L260,72L269,72L269.067,72.001ZM260,73L260,74L269,74L269,73L260,73Z" style="fill:rgb(196,196,196);"/>
                        <rect x="260" y="73" width="9" height="1"/>
                    </g>
                    <g transform="matrix(0.466667,0,0,1,-127.333,-66)">
                        <rect x="260" y="73" width="9" height="1"/>
                    </g>
                    <g transform="matrix(1.4,0,0,1,-6,0)">
                        <g opacity="0">
                            <g transform="matrix(1.66667,0,0,3,-433.333,-207)">
                                <path d="M269,73.29C269,73.13 268.766,73 268.478,73L260.522,73C260.234,73 260,73.13 260,73.29L260,73.71C260,73.87 260.234,74 260.522,74L268.478,74C268.766,74 269,73.87 269,73.71L269,73.29Z" style="fill:rgb(196,196,196);"/>
                            </g>
                            <g transform="matrix(0.333333,0,0,3,-83.6667,-208)">
                                <path d="M269,73.5C269,73.224 266.984,73 264.5,73C262.016,73 260,73.224 260,73.5C260,73.776 262.016,74 264.5,74C266.984,74 269,73.776 269,73.5Z" style="fill:rgb(196,196,196);"/>
                            </g>
                            <g transform="matrix(0.333333,0,0,3,-86.6667,-208)">
                                <path d="M269,73.5C269,73.224 266.984,73 264.5,73C262.016,73 260,73.224 260,73.5C260,73.776 262.016,74 264.5,74C266.984,74 269,73.776 269,73.5Z" style="fill:rgb(196,196,196);"/>
                            </g>
                            <g transform="matrix(0.333333,0,0,4,-86.6667,-282)">
                                <path d="M269,73.375C269,73.168 266.984,73 264.5,73C262.016,73 260,73.168 260,73.375L260,73.625C260,73.832 262.016,74 264.5,74C266.984,74 269,73.832 269,73.625L269,73.375Z" style="fill:rgb(196,196,196);"/>
                            </g>
                            <g transform="matrix(0.333333,0,0,3,-80.6667,-208)">
                                <path d="M269,73.5C269,73.224 266.984,73 264.5,73C262.016,73 260,73.224 260,73.5C260,73.776 262.016,74 264.5,74C266.984,74 269,73.776 269,73.5Z" style="fill:rgb(196,196,196);"/>
                            </g>
                            <g transform="matrix(0.333333,0,0,3,-77.6667,-208)">
                                <path d="M269,73.5C269,73.224 266.984,73 264.5,73C262.016,73 260,73.224 260,73.5C260,73.776 262.016,74 264.5,74C266.984,74 269,73.776 269,73.5Z" style="fill:rgb(196,196,196);"/>
                            </g>
                            <g transform="matrix(0.333333,0,0,4,-74.6667,-282)">
                                <path d="M269,73.375C269,73.168 266.984,73 264.5,73C262.016,73 260,73.168 260,73.375L260,73.625C260,73.832 262.016,74 264.5,74C266.984,74 269,73.832 269,73.625L269,73.375Z" style="fill:rgb(196,196,196);"/>
                            </g>
                            <g transform="matrix(1.44444,0,0,1,-374.556,-60)">
                                <rect x="260" y="73" width="9" height="1" style="fill:rgb(57,57,57);"/>
                            </g>
                            <g transform="matrix(0.111111,0,0,1,-18.8889,-61)">
                                <rect x="260" y="73" width="9" height="1" style="fill:rgb(57,57,57);"/>
                            </g>
                            <g transform="matrix(0.111111,0,0,1,-21.8889,-61)">
                                <rect x="260" y="73" width="9" height="1" style="fill:rgb(57,57,57);"/>
                            </g>
                            <g transform="matrix(0.111111,0,0,1,-24.8889,-61)">
                                <rect x="260" y="73" width="9" height="1" style="fill:rgb(57,57,57);"/>
                            </g>
                            <g transform="matrix(0.111111,0,0,3,-15.8958,-208)">
                                <rect x="260" y="73" width="9" height="1"/>
                            </g>
                            <g transform="matrix(0.111111,0,0,3,-27.8889,-208)">
                                <rect x="260" y="73" width="9" height="1"/>
                            </g>
                        </g>
                    </g>
                </g>
            </g>
        </g>
    </g>
</svg>
