<?xml version="1.0" encoding="UTF-8" standalone="no"?>
<!DOCTYPE svg PUBLIC "-//W3C//DTD SVG 1.1//EN" "http://www.w3.org/Graphics/SVG/1.1/DTD/svg11.dtd">
<svg width="100%" height="100%" viewBox="0 0 15 15" version="1.1" xmlns="http://www.w3.org/2000/svg" xmlns:xlink="http://www.w3.org/1999/xlink" xml:space="preserve" xmlns:serif="http://www.serif.com/" style="fill-rule:evenodd;clip-rule:evenodd;stroke-linejoin:round;stroke-miterlimit:1.41421;">
    <g transform="matrix(1,0,0,1,-80,-285)">
        <g transform="matrix(1,0,0,1,80,285)">
            <g id="ObjectIcons_RayOcclusion_nor">
                <g id="Icons">
                    <g transform="matrix(1,0,0,1,-40,-25)">
                        <g id="Base-Block" serif:id="Base Block">
                            <path d="M55,27.1C55,25.941 54.059,25 52.9,25L42.1,25C40.941,25 40,25.941 40,27.1L40,37.9C40,39.059 40.941,40 42.1,40L52.9,40C54.059,40 55,39.059 55,37.9L55,27.1Z" style="fill-opacity:0;"/>
                        </g>
                    </g>
                    <g transform="matrix(0.444444,0,0,1,-114.556,-66)">
                        <path d="M269.088,72.001L269.177,72.003L269.264,72.007L269.352,72.012L269.439,72.019L269.525,72.028L269.611,72.038L269.695,72.049L269.779,72.062L269.861,72.076L269.942,72.092L270.021,72.109L270.099,72.128L270.176,72.147L270.25,72.169L270.323,72.191L270.393,72.215L270.461,72.24L270.527,72.266L270.591,72.293L270.652,72.321L270.711,72.351L270.767,72.381L270.82,72.412L270.871,72.444L270.918,72.478L270.963,72.511L271.005,72.546L271.043,72.581L271.079,72.617L271.111,72.654L271.14,72.691L271.166,72.729L271.188,72.767L271.207,72.805L271.222,72.844L271.234,72.882L271.243,72.922L271.248,72.961L271.25,73L271.25,74L271.248,74.039L271.243,74.078L271.234,74.118L271.222,74.156L271.207,74.195L271.188,74.233L271.166,74.271L271.14,74.309L271.111,74.346L271.079,74.383L271.043,74.419L271.005,74.454L270.963,74.489L270.918,74.522L270.871,74.556L270.82,74.588L270.767,74.619L270.711,74.649L270.652,74.679L270.591,74.707L270.527,74.734L270.461,74.76L270.393,74.785L270.323,74.809L270.25,74.831L270.176,74.853L270.099,74.872L270.021,74.891L269.942,74.908L269.861,74.924L269.779,74.938L269.695,74.951L269.611,74.962L269.525,74.972L269.439,74.981L269.352,74.988L269.264,74.993L269.177,74.997L269.088,74.999L269,75L260,75L259.912,74.999L259.823,74.997L259.736,74.993L259.648,74.988L259.561,74.981L259.475,74.972L259.389,74.962L259.305,74.951L259.221,74.938L259.139,74.924L259.058,74.908L258.979,74.891L258.901,74.872L258.824,74.853L258.75,74.831L258.677,74.809L258.607,74.785L258.539,74.76L258.473,74.734L258.409,74.707L258.348,74.679L258.289,74.649L258.233,74.619L258.18,74.588L258.129,74.556L258.082,74.522L258.037,74.489L257.995,74.454L257.957,74.419L257.921,74.383L257.889,74.346L257.86,74.309L257.834,74.271L257.812,74.233L257.793,74.195L257.778,74.156L257.766,74.118L257.757,74.078L257.752,74.039L257.75,74L257.75,73L257.752,72.961L257.757,72.922L257.766,72.882L257.778,72.844L257.793,72.805L257.812,72.767L257.834,72.729L257.86,72.691L257.889,72.654L257.921,72.617L257.957,72.581L257.995,72.546L258.037,72.511L258.082,72.478L258.129,72.444L258.18,72.412L258.233,72.381L258.289,72.351L258.348,72.321L258.409,72.293L258.473,72.266L258.539,72.24L258.607,72.215L258.677,72.191L258.75,72.169L258.824,72.147L258.901,72.128L258.979,72.109L259.058,72.092L259.139,72.076L259.221,72.062L259.305,72.049L259.389,72.038L259.475,72.028L259.561,72.019L259.648,72.012L259.736,72.007L259.823,72.003L259.912,72.001L260,72L269,72L269.088,72.001ZM260,73L260,74L269,74L269,73L260,73Z" style="fill:rgb(196,196,196);"/>
                        <rect x="260" y="73" width="9" height="1" style="fill:rgb(43,43,43);"/>
                    </g>
                    <g transform="matrix(0.222222,0,0,1,-49.7778,-66)">
                        <path d="M269.126,72L269.252,72.002L269.378,72.004L269.504,72.006L269.629,72.01L269.754,72.014L269.878,72.019L270.001,72.025L270.124,72.032L270.246,72.039L270.367,72.047L270.486,72.056L270.605,72.066L270.722,72.076L270.838,72.087L270.952,72.099L271.065,72.112L271.177,72.125L271.286,72.139L271.394,72.153L271.5,72.169L271.604,72.184L271.706,72.201L271.806,72.218L271.903,72.236L271.999,72.254L272.091,72.273L272.182,72.293L272.27,72.313L272.355,72.334L272.438,72.355L272.518,72.377L272.596,72.399L272.67,72.421L272.742,72.444L272.81,72.468L272.876,72.492L272.939,72.516L272.998,72.541L273.054,72.566L273.108,72.592L273.157,72.617L273.204,72.643L273.247,72.67L273.287,72.696L273.324,72.723L273.357,72.75L273.387,72.777L273.414,72.805L273.436,72.832L273.456,72.86L273.472,72.888L273.484,72.916L273.493,72.944L273.498,72.972L273.5,73L273.5,74L273.498,74.028L273.493,74.056L273.484,74.084L273.472,74.112L273.456,74.14L273.436,74.168L273.414,74.195L273.387,74.223L273.357,74.25L273.324,74.277L273.287,74.304L273.247,74.33L273.204,74.357L273.157,74.383L273.108,74.408L273.054,74.434L272.998,74.459L272.939,74.484L272.876,74.508L272.81,74.532L272.742,74.556L272.67,74.579L272.596,74.601L272.518,74.623L272.438,74.645L272.355,74.666L272.27,74.687L272.182,74.707L272.091,74.727L271.999,74.746L271.903,74.764L271.806,74.782L271.706,74.799L271.604,74.816L271.5,74.831L271.394,74.847L271.286,74.861L271.177,74.875L271.065,74.888L270.952,74.901L270.838,74.913L270.722,74.924L270.605,74.934L270.486,74.944L270.367,74.953L270.246,74.961L270.124,74.968L270.001,74.975L269.878,74.981L269.754,74.986L269.629,74.99L269.504,74.994L269.378,74.996L269.252,74.998L269.126,75L269,75L260,75L259.874,75L259.748,74.998L259.622,74.996L259.496,74.994L259.371,74.99L259.246,74.986L259.122,74.981L258.999,74.975L258.876,74.968L258.754,74.961L258.633,74.953L258.514,74.944L258.395,74.934L258.278,74.924L258.162,74.913L258.048,74.901L257.935,74.888L257.823,74.875L257.714,74.861L257.606,74.847L257.5,74.831L257.396,74.816L257.294,74.799L257.194,74.782L257.097,74.764L257.001,74.746L256.909,74.727L256.818,74.707L256.73,74.687L256.645,74.666L256.562,74.645L256.482,74.623L256.404,74.601L256.33,74.579L256.258,74.556L256.19,74.532L256.124,74.508L256.061,74.484L256.002,74.459L255.946,74.434L255.892,74.408L255.843,74.383L255.796,74.357L255.753,74.33L255.713,74.304L255.676,74.277L255.643,74.25L255.613,74.223L255.586,74.195L255.564,74.168L255.544,74.14L255.528,74.112L255.516,74.084L255.507,74.056L255.502,74.028L255.5,74L255.5,73L255.502,72.972L255.507,72.944L255.516,72.916L255.528,72.888L255.544,72.86L255.564,72.832L255.586,72.805L255.613,72.777L255.643,72.75L255.676,72.723L255.713,72.696L255.753,72.67L255.796,72.643L255.843,72.617L255.892,72.592L255.946,72.566L256.002,72.541L256.061,72.516L256.124,72.492L256.19,72.468L256.258,72.444L256.33,72.421L256.404,72.399L256.482,72.377L256.562,72.355L256.645,72.334L256.73,72.313L256.818,72.293L256.909,72.273L257.001,72.254L257.097,72.236L257.194,72.218L257.294,72.201L257.396,72.184L257.5,72.169L257.606,72.153L257.714,72.139L257.823,72.125L257.935,72.112L258.048,72.099L258.162,72.087L258.278,72.076L258.395,72.066L258.514,72.056L258.633,72.047L258.754,72.039L258.876,72.032L258.999,72.025L259.122,72.019L259.246,72.014L259.371,72.01L259.496,72.006L259.622,72.004L259.748,72.002L259.874,72L260,72L269,72L269.126,72ZM260,73L260,74L269,74L269,73L260,73Z" style="fill:rgb(196,196,196);"/>
                        <rect x="260" y="73" width="9" height="1" style="fill:rgb(108,108,108);"/>
                    </g>
                    <g transform="matrix(0.111111,0,0,13,-22.8889,-948)">
                        <path d="M269.642,72.923L270.281,72.924L270.913,72.925L271.536,72.926L272.145,72.928L272.739,72.93L273.313,72.932L273.866,72.935L274.394,72.938L274.894,72.942L275.364,72.946L275.802,72.95L276.205,72.954L276.571,72.958L276.899,72.963L277.187,72.968L277.433,72.973L277.635,72.978L277.794,72.984L277.908,72.989L277.977,72.995L278,73L278,74L277.977,74.005L277.908,74.011L277.794,74.016L277.635,74.022L277.433,74.027L277.187,74.032L276.899,74.037L276.571,74.042L276.205,74.046L275.802,74.05L275.364,74.054L274.894,74.058L274.394,74.062L273.866,74.065L273.313,74.068L272.739,74.07L272.145,74.072L271.536,74.074L270.913,74.075L270.281,74.076L269.642,74.077L269,74.077L260,74.077L259.358,74.077L258.719,74.076L258.087,74.075L257.464,74.074L256.855,74.072L256.261,74.07L255.687,74.068L255.134,74.065L254.606,74.062L254.106,74.058L253.636,74.054L253.198,74.05L252.795,74.046L252.429,74.042L252.101,74.037L251.813,74.032L251.567,74.027L251.365,74.022L251.206,74.016L251.092,74.011L251.023,74.005L251,74L251,73L251.023,72.995L251.092,72.989L251.206,72.984L251.365,72.978L251.567,72.973L251.813,72.968L252.101,72.963L252.429,72.958L252.795,72.954L253.198,72.95L253.636,72.946L254.106,72.942L254.606,72.938L255.134,72.935L255.687,72.932L256.261,72.93L256.855,72.928L257.464,72.926L258.087,72.925L258.719,72.924L259.358,72.923L260,72.923L269,72.923L269.642,72.923ZM260,73L260,74L269,74L269,73L260,73Z" style="fill:rgb(196,196,196);"/>
                        <rect x="260" y="73" width="9" height="1"/>
                    </g>
                    <g transform="matrix(1.66667,0,0,1.66667,-438.333,-115)">
                        <circle cx="270.5" cy="73.5" r="1.5" style="fill:rgb(196,196,196);"/>
                    </g>
                    <g transform="matrix(1,0,0,1,-258,-66)">
                        <circle cx="270.5" cy="73.5" r="1.5"/>
                    </g>
                </g>
            </g>
        </g>
    </g>
</svg>
