<?xml version="1.0" encoding="UTF-8" standalone="no"?>
<!DOCTYPE svg PUBLIC "-//W3C//DTD SVG 1.1//EN" "http://www.w3.org/Graphics/SVG/1.1/DTD/svg11.dtd">
<svg width="100%" height="100%" viewBox="0 0 15 15" version="1.1" xmlns="http://www.w3.org/2000/svg" xmlns:xlink="http://www.w3.org/1999/xlink" xml:space="preserve" xmlns:serif="http://www.serif.com/" style="fill-rule:evenodd;clip-rule:evenodd;stroke-linejoin:round;stroke-miterlimit:1.41421;">
    <g transform="matrix(1,0,0,1,-200,-45)">
        <g transform="matrix(1,0,0,1,200,45)">
            <g id="ObjectIcons_ActionPlay_nor">
                <g id="Icons">
                    <g transform="matrix(1,0,0,1,-40,-25)">
                        <g id="Base-Block" serif:id="Base Block">
                            <path d="M55,27.1C55,25.941 54.059,25 52.9,25L42.1,25C40.941,25 40,25.941 40,27.1L40,37.9C40,39.059 40.941,40 42.1,40L52.9,40C54.059,40 55,39.059 55,37.9L55,27.1Z" style="fill-opacity:0;"/>
                        </g>
                    </g>
                    <g id="Object-Icon-Base" serif:id="Object Icon Base">
                    </g>
                    <path d="M3.691,1.142C2.655,0.744 2.14,1.204 2,2.279L2,12.555C2.113,13.895 2.679,14.381 3.874,13.681L11.908,8.671C12.917,7.711 12.728,6.917 11.832,6.219L3.691,1.142ZM3,2L3,13L11.514,7.5L3,2Z" style="fill:rgb(196,196,196);"/>
                    <g transform="matrix(1.41895,0,0,1.57143,3,13)">
                        <path d="M0,-7L0,0L6,-3.5L0,-7Z" style="fill:rgb(57,57,57);"/>
                    </g>
                </g>
            </g>
        </g>
    </g>
</svg>
